Schroffer_v1.0.glyphspackage
{
glyphname = one;
layers = (
{
layerId = m01;
shapes = (
{
closed = 1;
nodes = (
(94,0,o),
(114,20,o),
(114,45,cs),
(114,70,o),
(94,90,o),
(69,90,cs),
(44,90,o),
(24,70,o),
(24,45,cs),
(24,20,o),
(44,0,o),
(69,0,cs)
);
},
{
closed = 1;
nodes = (
(232,0,o),
(251,20,o),
(251,45,cs),
(251,70,o),
(232,90,o),
(206,90,cs),
(181,90,o),
(161,70,o),
(161,45,cs),
(161,20,o),
(181,0,o),
(206,0,cs)
);
},
{
closed = 1;
nodes = (
(368,0,o),
(388,20,o),
(388,45,cs),
(388,70,o),
(368,90,o),
(343,90,cs),
(317,90,o),
(298,70,o),
(298,45,cs),
(298,20,o),
(317,0,o),
(343,0,cs)
);
},
{
closed = 1;
nodes = (
(231,181,o),
(251,201,o),
(251,226,cs),
(251,251,o),
(231,271,o),
(206,271,cs),
(181,271,o),
(161,251,o),
(161,226,cs),
(161,201,o),
(181,181,o),
(206,181,cs)
);
},
{
closed = 1;
nodes = (
(231,362,o),
(251,382,o),
(251,407,cs),
(251,432,o),
(231,452,o),
(206,452,cs),
(181,452,o),
(161,432,o),
(161,407,cs),
(161,382,o),
(181,362,o),
(206,362,cs)
);
},
{
closed = 1;
nodes = (
(94,543,o),
(114,563,o),
(114,588,cs),
(114,613,o),
(94,633,o),
(69,633,cs),
(44,633,o),
(24,613,o),
(24,588,cs),
(24,563,o),
(44,543,o),
(69,543,cs)
);
},
{
closed = 1;
nodes = (
(232,543,o),
(251,563,o),
(251,588,cs),
(251,613,o),
(232,633,o),
(206,633,cs),
(181,633,o),
(161,613,o),
(161,588,cs),
(161,563,o),
(181,543,o),
(206,543,cs)
);
},
{
closed = 1;
nodes = (
(231,724,o),
(251,744,o),
(251,769,cs),
(251,794,o),
(231,814,o),
(206,814,cs),
(181,814,o),
(161,794,o),
(161,769,cs),
(161,744,o),
(181,724,o),
(206,724,cs)
);
}
);
width = 412;
},
{
layerId = m003;
shapes = (
{
closed = 1;
nodes = (
(174,-145,o),
(259,-60,o),
(259,45,cs),
(259,150,o),
(174,235,o),
(69,235,cs),
(-36,235,o),
(-121,150,o),
(-121,45,cs),
(-121,-60,o),
(-36,-145,o),
(69,-145,cs)
);
},
{
closed = 1;
nodes = (
(312,-145,o),
(396,-60,o),
(396,45,cs),
(396,150,o),
(312,235,o),
(206,235,cs),
(101,235,o),
(16,150,o),
(16,45,cs),
(16,-60,o),
(101,-145,o),
(206,-145,cs)
);
},
{
closed = 1;
nodes = (
(448,-145,o),
(533,-60,o),
(533,45,cs),
(533,150,o),
(448,235,o),
(343,235,cs),
(237,235,o),
(153,150,o),
(153,45,cs),
(153,-60,o),
(237,-145,o),
(343,-145,cs)
);
},
{
closed = 1;
nodes = (
(311,36,o),
(396,121,o),
(396,226,cs),
(396,331,o),
(311,416,o),
(206,416,cs),
(101,416,o),
(16,331,o),
(16,226,cs),
(16,121,o),
(101,36,o),
(206,36,cs)
);
},
{
closed = 1;
nodes = (
(311,217,o),
(396,302,o),
(396,407,cs),
(396,512,o),
(311,597,o),
(206,597,cs),
(101,597,o),
(16,512,o),
(16,407,cs),
(16,302,o),
(101,217,o),
(206,217,cs)
);
},
{
closed = 1;
nodes = (
(174,398,o),
(259,483,o),
(259,588,cs),
(259,693,o),
(174,778,o),
(69,778,cs),
(-36,778,o),
(-121,693,o),
(-121,588,cs),
(-121,483,o),
(-36,398,o),
(69,398,cs)
);
},
{
closed = 1;
nodes = (
(312,398,o),
(396,483,o),
(396,588,cs),
(396,693,o),
(312,778,o),
(206,778,cs),
(101,778,o),
(16,693,o),
(16,588,cs),
(16,483,o),
(101,398,o),
(206,398,cs)
);
},
{
closed = 1;
nodes = (
(311,579,o),
(396,664,o),
(396,769,cs),
(396,874,o),
(311,959,o),
(206,959,cs),
(101,959,o),
(16,874,o),
(16,769,cs),
(16,664,o),
(101,579,o),
(206,579,cs)
);
}
);
width = 412;
},
{
layerId = m004;
shapes = (
{
closed = 1;
nodes = (
(119,-45,o),
(159,-5,o),
(159,45,cs),
(159,95,o),
(119,135,o),
(69,135,cs),
(19,135,o),
(-21,95,o),
(-21,45,cs),
(-21,-5,o),
(19,-45,o),
(69,-45,cs)
);
},
{
closed = 1;
nodes = (
(257,-45,o),
(296,-5,o),
(296,45,cs),
(296,95,o),
(257,135,o),
(206,135,cs),
(156,135,o),
(116,95,o),
(116,45,cs),
(116,-5,o),
(156,-45,o),
(206,-45,cs)
);
},
{
closed = 1;
nodes = (
(393,-45,o),
(433,-5,o),
(433,45,cs),
(433,95,o),
(393,135,o),
(343,135,cs),
(292,135,o),
(253,95,o),
(253,45,cs),
(253,-5,o),
(292,-45,o),
(343,-45,cs)
);
},
{
closed = 1;
nodes = (
(256,136,o),
(296,176,o),
(296,226,cs),
(296,276,o),
(256,316,o),
(206,316,cs),
(156,316,o),
(116,276,o),
(116,226,cs),
(116,176,o),
(156,136,o),
(206,136,cs)
);
},
{
closed = 1;
nodes = (
(256,317,o),
(296,357,o),
(296,407,cs),
(296,457,o),
(256,497,o),
(206,497,cs),
(156,497,o),
(116,457,o),
(116,407,cs),
(116,357,o),
(156,317,o),
(206,317,cs)
);
},
{
closed = 1;
nodes = (
(119,498,o),
(159,538,o),
(159,588,cs),
(159,638,o),
(119,678,o),
(69,678,cs),
(19,678,o),
(-21,638,o),
(-21,588,cs),
(-21,538,o),
(19,498,o),
(69,498,cs)
);
},
{
closed = 1;
nodes = (
(257,498,o),
(296,538,o),
(296,588,cs),
(296,638,o),
(257,678,o),
(206,678,cs),
(156,678,o),
(116,638,o),
(116,588,cs),
(116,538,o),
(156,498,o),
(206,498,cs)
);
},
{
closed = 1;
nodes = (
(256,679,o),
(296,719,o),
(296,769,cs),
(296,819,o),
(256,859,o),
(206,859,cs),
(156,859,o),
(116,819,o),
(116,769,cs),
(116,719,o),
(156,679,o),
(206,679,cs)
);
}
);
width = 412;
}
);
unicode = 49;
}
{
glyphname = two;
layers = (
{
layerId = m01;
shapes = (
{
closed = 1;
nodes = (
(94,0,o),
(114,20,o),
(114,45,cs),
(114,70,o),
(94,90,o),
(69,90,cs),
(44,90,o),
(24,70,o),
(24,45,cs),
(24,20,o),
(44,0,o),
(69,0,cs)
);
},
{
closed = 1;
nodes = (
(232,0,o),
(251,20,o),
(251,45,cs),
(251,70,o),
(232,90,o),
(206,90,cs),
(181,90,o),
(161,70,o),
(161,45,cs),
(161,20,o),
(181,0,o),
(206,0,cs)
);
},
{
closed = 1;
nodes = (
(368,0,o),
(388,20,o),
(388,45,cs),
(388,70,o),
(368,90,o),
(343,90,cs),
(317,90,o),
(298,70,o),
(298,45,cs),
(298,20,o),
(317,0,o),
(343,0,cs)
);
},
{
closed = 1;
nodes = (
(505,0,o),
(525,19,o),
(525,45,cs),
(525,70,o),
(505,90,o),
(480,90,cs),
(455,90,o),
(435,70,o),
(435,45,cs),
(435,19,o),
(455,0,o),
(480,0,cs)
);
},
{
closed = 1;
nodes = (
(231,181,o),
(251,201,o),
(251,226,cs),
(251,251,o),
(231,271,o),
(206,271,cs),
(181,271,o),
(161,251,o),
(161,226,cs),
(161,201,o),
(181,181,o),
(206,181,cs)
);
},
{
closed = 1;
nodes = (
(368,362,o),
(388,382,o),
(388,407,cs),
(388,432,o),
(368,452,o),
(343,452,cs),
(318,452,o),
(298,432,o),
(298,407,cs),
(298,382,o),
(318,362,o),
(343,362,cs)
);
},
{
closed = 1;
nodes = (
(94,543,o),
(114,563,o),
(114,588,cs),
(114,613,o),
(94,633,o),
(69,633,cs),
(44,633,o),
(24,613,o),
(24,588,cs),
(24,563,o),
(44,543,o),
(69,543,cs)
);
},
{
closed = 1;
nodes = (
(505,543,o),
(525,562,o),
(525,588,cs),
(525,613,o),
(505,633,o),
(480,633,cs),
(455,633,o),
(435,613,o),
(435,588,cs),
(435,562,o),
(455,543,o),
(480,543,cs)
);
},
{
closed = 1;
nodes = (
(231,724,o),
(251,744,o),
(251,769,cs),
(251,794,o),
(231,814,o),
(206,814,cs),
(181,814,o),
(161,794,o),
(161,769,cs),
(161,744,o),
(181,724,o),
(206,724,cs)
);
},
{
closed = 1;
nodes = (
(368,724,o),
(388,744,o),
(388,769,cs),
(388,794,o),
(368,814,o),
(343,814,cs),
(318,814,o),
(298,794,o),
(298,769,cs),
(298,744,o),
(318,724,o),
(343,724,cs)
);
}
);
width = 549;
},
{
layerId = m003;
shapes = (
{
closed = 1;
nodes = (
(174,-145,o),
(259,-60,o),
(259,45,cs),
(259,150,o),
(174,235,o),
(69,235,cs),
(-36,235,o),
(-121,150,o),
(-121,45,cs),
(-121,-60,o),
(-36,-145,o),
(69,-145,cs)
);
},
{
closed = 1;
nodes = (
(312,-145,o),
(396,-60,o),
(396,45,cs),
(396,150,o),
(312,235,o),
(206,235,cs),
(101,235,o),
(16,150,o),
(16,45,cs),
(16,-60,o),
(101,-145,o),
(206,-145,cs)
);
},
{
closed = 1;
nodes = (
(448,-145,o),
(533,-60,o),
(533,45,cs),
(533,150,o),
(448,235,o),
(343,235,cs),
(237,235,o),
(153,150,o),
(153,45,cs),
(153,-60,o),
(237,-145,o),
(343,-145,cs)
);
},
{
closed = 1;
nodes = (
(585,-145,o),
(670,-61,o),
(670,45,cs),
(670,150,o),
(585,235,o),
(480,235,cs),
(375,235,o),
(290,150,o),
(290,45,cs),
(290,-61,o),
(375,-145,o),
(480,-145,cs)
);
},
{
closed = 1;
nodes = (
(311,36,o),
(396,121,o),
(396,226,cs),
(396,331,o),
(311,416,o),
(206,416,cs),
(101,416,o),
(16,331,o),
(16,226,cs),
(16,121,o),
(101,36,o),
(206,36,cs)
);
},
{
closed = 1;
nodes = (
(448,217,o),
(533,302,o),
(533,407,cs),
(533,512,o),
(448,597,o),
(343,597,cs),
(238,597,o),
(153,512,o),
(153,407,cs),
(153,302,o),
(238,217,o),
(343,217,cs)
);
},
{
closed = 1;
nodes = (
(174,398,o),
(259,483,o),
(259,588,cs),
(259,693,o),
(174,778,o),
(69,778,cs),
(-36,778,o),
(-121,693,o),
(-121,588,cs),
(-121,483,o),
(-36,398,o),
(69,398,cs)
);
},
{
closed = 1;
nodes = (
(585,398,o),
(670,482,o),
(670,588,cs),
(670,693,o),
(585,778,o),
(480,778,cs),
(375,778,o),
(290,693,o),
(290,588,cs),
(290,482,o),
(375,398,o),
(480,398,cs)
);
},
{
closed = 1;
nodes = (
(311,579,o),
(396,664,o),
(396,769,cs),
(396,874,o),
(311,959,o),
(206,959,cs),
(101,959,o),
(16,874,o),
(16,769,cs),
(16,664,o),
(101,579,o),
(206,579,cs)
);
},
{
closed = 1;
nodes = (
(448,579,o),
(533,664,o),
(533,769,cs),
(533,874,o),
(448,959,o),
(343,959,cs),
(238,959,o),
(153,874,o),
(153,769,cs),
(153,664,o),
(238,579,o),
(343,579,cs)
);
}
);
width = 549;
},
{
layerId = m004;
shapes = (
{
closed = 1;
nodes = (
(119,-45,o),
(159,-5,o),
(159,45,cs),
(159,95,o),
(119,135,o),
(69,135,cs),
(19,135,o),
(-21,95,o),
(-21,45,cs),
(-21,-5,o),
(19,-45,o),
(69,-45,cs)
);
},
{
closed = 1;
nodes = (
(257,-45,o),
(296,-5,o),
(296,45,cs),
(296,95,o),
(257,135,o),
(206,135,cs),
(156,135,o),
(116,95,o),
(116,45,cs),
(116,-5,o),
(156,-45,o),
(206,-45,cs)
);
},
{
closed = 1;
nodes = (
(393,-45,o),
(433,-5,o),
(433,45,cs),
(433,95,o),
(393,135,o),
(343,135,cs),
(292,135,o),
(253,95,o),
(253,45,cs),
(253,-5,o),
(292,-45,o),
(343,-45,cs)
);
},
{
closed = 1;
nodes = (
(530,-45,o),
(570,-6,o),
(570,45,cs),
(570,95,o),
(530,135,o),
(480,135,cs),
(430,135,o),
(390,95,o),
(390,45,cs),
(390,-6,o),
(430,-45,o),
(480,-45,cs)
);
},
{
closed = 1;
nodes = (
(256,136,o),
(296,176,o),
(296,226,cs),
(296,276,o),
(256,316,o),
(206,316,cs),
(156,316,o),
(116,276,o),
(116,226,cs),
(116,176,o),
(156,136,o),
(206,136,cs)
);
},
{
closed = 1;
nodes = (
(393,317,o),
(433,357,o),
(433,407,cs),
(433,457,o),
(393,497,o),
(343,497,cs),
(293,497,o),
(253,457,o),
(253,407,cs),
(253,357,o),
(293,317,o),
(343,317,cs)
);
},
{
closed = 1;
nodes = (
(119,498,o),
(159,538,o),
(159,588,cs),
(159,638,o),
(119,678,o),
(69,678,cs),
(19,678,o),
(-21,638,o),
(-21,588,cs),
(-21,538,o),
(19,498,o),
(69,498,cs)
);
},
{
closed = 1;
nodes = (
(530,498,o),
(570,537,o),
(570,588,cs),
(570,638,o),
(530,678,o),
(480,678,cs),
(430,678,o),
(390,638,o),
(390,588,cs),
(390,537,o),
(430,498,o),
(480,498,cs)
);
},
{
closed = 1;
nodes = (
(256,679,o),
(296,719,o),
(296,769,cs),
(296,819,o),
(256,859,o),
(206,859,cs),
(156,859,o),
(116,819,o),
(116,769,cs),
(116,719,o),
(156,679,o),
(206,679,cs)
);
},
{
closed = 1;
nodes = (
(393,679,o),
(433,719,o),
(433,769,cs),
(433,819,o),
(393,859,o),
(343,859,cs),
(293,859,o),
(253,819,o),
(253,769,cs),
(253,719,o),
(293,679,o),
(343,679,cs)
);
}
);
width = 549;
}
);
unicode = 50;
}
{
glyphname = four;
layers = (
{
layerId = m01;
shapes = (
{
closed = 1;
nodes = (
(94,181,o),
(114,201,o),
(114,226,cs),
(114,251,o),
(94,271,o),
(69,271,cs),
(44,271,o),
(24,251,o),
(24,226,cs),
(24,201,o),
(44,181,o),
(69,181,cs)
);
},
{
closed = 1;
nodes = (
(368,0,o),
(388,20,o),
(388,45,cs),
(388,70,o),
(368,90,o),
(343,90,cs),
(317,90,o),
(298,70,o),
(298,45,cs),
(298,20,o),
(317,0,o),
(343,0,cs)
);
},
{
closed = 1;
nodes = (
(231,181,o),
(251,201,o),
(251,226,cs),
(251,251,o),
(231,271,o),
(206,271,cs),
(181,271,o),
(161,251,o),
(161,226,cs),
(161,201,o),
(181,181,o),
(206,181,cs)
);
},
{
closed = 1;
nodes = (
(368,181,o),
(388,201,o),
(388,226,cs),
(388,251,o),
(368,271,o),
(343,271,cs),
(318,271,o),
(298,251,o),
(298,226,cs),
(298,201,o),
(318,181,o),
(343,181,cs)
);
},
{
closed = 1;
nodes = (
(505,181,o),
(525,201,o),
(525,226,cs),
(525,251,o),
(505,271,o),
(480,271,cs),
(455,271,o),
(435,251,o),
(435,226,cs),
(435,201,o),
(455,181,o),
(480,181,cs)
);
},
{
closed = 1;
nodes = (
(94,362,o),
(114,382,o),
(114,407,cs),
(114,432,o),
(94,452,o),
(69,452,cs),
(44,452,o),
(24,432,o),
(24,407,cs),
(24,382,o),
(44,362,o),
(69,362,cs)
);
},
{
closed = 1;
nodes = (
(368,362,o),
(388,382,o),
(388,407,cs),
(388,432,o),
(368,452,o),
(343,452,cs),
(318,452,o),
(298,432,o),
(298,407,cs),
(298,382,o),
(318,362,o),
(343,362,cs)
);
},
{
closed = 1;
nodes = (
(94,724,o),
(114,744,o),
(114,769,cs),
(114,794,o),
(94,814,o),
(69,814,cs),
(44,814,o),
(24,794,o),
(24,769,cs),
(24,744,o),
(44,724,o),
(69,724,cs)
);
},
{
closed = 1;
nodes = (
(94,543,o),
(114,563,o),
(114,588,cs),
(114,613,o),
(94,633,o),
(69,633,cs),
(44,633,o),
(24,613,o),
(24,588,cs),
(24,563,o),
(44,543,o),
(69,543,cs)
);
},
{
closed = 1;
nodes = (
(368,543,o),
(388,563,o),
(388,588,cs),
(388,613,o),
(368,633,o),
(343,633,cs),
(317,633,o),
(298,613,o),
(298,588,cs),
(298,563,o),
(317,543,o),
(343,543,cs)
);
}
);
width = 549;
},
{
layerId = m003;
shapes = (
{
closed = 1;
nodes = (
(174,36,o),
(259,121,o),
(259,226,cs),
(259,331,o),
(174,416,o),
(69,416,cs),
(-36,416,o),
(-121,331,o),
(-121,226,cs),
(-121,121,o),
(-36,36,o),
(69,36,cs)
);
},
{
closed = 1;
nodes = (
(448,-145,o),
(533,-60,o),
(533,45,cs),
(533,150,o),
(448,235,o),
(343,235,cs),
(237,235,o),
(153,150,o),
(153,45,cs),
(153,-60,o),
(237,-145,o),
(343,-145,cs)
);
},
{
closed = 1;
nodes = (
(311,36,o),
(396,121,o),
(396,226,cs),
(396,331,o),
(311,416,o),
(206,416,cs),
(101,416,o),
(16,331,o),
(16,226,cs),
(16,121,o),
(101,36,o),
(206,36,cs)
);
},
{
closed = 1;
nodes = (
(448,36,o),
(533,121,o),
(533,226,cs),
(533,331,o),
(448,416,o),
(343,416,cs),
(238,416,o),
(153,331,o),
(153,226,cs),
(153,121,o),
(238,36,o),
(343,36,cs)
);
},
{
closed = 1;
nodes = (
(585,36,o),
(670,121,o),
(670,226,cs),
(670,331,o),
(585,416,o),
(480,416,cs),
(375,416,o),
(290,331,o),
(290,226,cs),
(290,121,o),
(375,36,o),
(480,36,cs)
);
},
{
closed = 1;
nodes = (
(174,217,o),
(259,302,o),
(259,407,cs),
(259,512,o),
(174,597,o),
(69,597,cs),
(-36,597,o),
(-121,512,o),
(-121,407,cs),
(-121,302,o),
(-36,217,o),
(69,217,cs)
);
},
{
closed = 1;
nodes = (
(448,217,o),
(533,302,o),
(533,407,cs),
(533,512,o),
(448,597,o),
(343,597,cs),
(238,597,o),
(153,512,o),
(153,407,cs),
(153,302,o),
(238,217,o),
(343,217,cs)
);
},
{
closed = 1;
nodes = (
(174,579,o),
(259,664,o),
(259,769,cs),
(259,874,o),
(174,959,o),
(69,959,cs),
(-36,959,o),
(-121,874,o),
(-121,769,cs),
(-121,664,o),
(-36,579,o),
(69,579,cs)
);
},
{
closed = 1;
nodes = (
(174,398,o),
(259,483,o),
(259,588,cs),
(259,693,o),
(174,778,o),
(69,778,cs),
(-36,778,o),
(-121,693,o),
(-121,588,cs),
(-121,483,o),
(-36,398,o),
(69,398,cs)
);
},
{
closed = 1;
nodes = (
(448,398,o),
(533,483,o),
(533,588,cs),
(533,693,o),
(448,778,o),
(343,778,cs),
(237,778,o),
(153,693,o),
(153,588,cs),
(153,483,o),
(237,398,o),
(343,398,cs)
);
}
);
width = 549;
},
{
layerId = m004;
shapes = (
{
closed = 1;
nodes = (
(119,136,o),
(159,176,o),
(159,226,cs),
(159,276,o),
(119,316,o),
(69,316,cs),
(19,316,o),
(-21,276,o),
(-21,226,cs),
(-21,176,o),
(19,136,o),
(69,136,cs)
);
},
{
closed = 1;
nodes = (
(393,-45,o),
(433,-5,o),
(433,45,cs),
(433,95,o),
(393,135,o),
(343,135,cs),
(292,135,o),
(253,95,o),
(253,45,cs),
(253,-5,o),
(292,-45,o),
(343,-45,cs)
);
},
{
closed = 1;
nodes = (
(256,136,o),
(296,176,o),
(296,226,cs),
(296,276,o),
(256,316,o),
(206,316,cs),
(156,316,o),
(116,276,o),
(116,226,cs),
(116,176,o),
(156,136,o),
(206,136,cs)
);
},
{
closed = 1;
nodes = (
(393,136,o),
(433,176,o),
(433,226,cs),
(433,276,o),
(393,316,o),
(343,316,cs),
(293,316,o),
(253,276,o),
(253,226,cs),
(253,176,o),
(293,136,o),
(343,136,cs)
);
},
{
closed = 1;
nodes = (
(530,136,o),
(570,176,o),
(570,226,cs),
(570,276,o),
(530,316,o),
(480,316,cs),
(430,316,o),
(390,276,o),
(390,226,cs),
(390,176,o),
(430,136,o),
(480,136,cs)
);
},
{
closed = 1;
nodes = (
(119,317,o),
(159,357,o),
(159,407,cs),
(159,457,o),
(119,497,o),
(69,497,cs),
(19,497,o),
(-21,457,o),
(-21,407,cs),
(-21,357,o),
(19,317,o),
(69,317,cs)
);
},
{
closed = 1;
nodes = (
(393,317,o),
(433,357,o),
(433,407,cs),
(433,457,o),
(393,497,o),
(343,497,cs),
(293,497,o),
(253,457,o),
(253,407,cs),
(253,357,o),
(293,317,o),
(343,317,cs)
);
},
{
closed = 1;
nodes = (
(119,679,o),
(159,719,o),
(159,769,cs),
(159,819,o),
(119,859,o),
(69,859,cs),
(19,859,o),
(-21,819,o),
(-21,769,cs),
(-21,719,o),
(19,679,o),
(69,679,cs)
);
},
{
closed = 1;
nodes = (
(119,498,o),
(159,538,o),
(159,588,cs),
(159,638,o),
(119,678,o),
(69,678,cs),
(19,678,o),
(-21,638,o),
(-21,588,cs),
(-21,538,o),
(19,498,o),
(69,498,cs)
);
},
{
closed = 1;
nodes = (
(393,498,o),
(433,538,o),
(433,588,cs),
(433,638,o),
(393,678,o),
(343,678,cs),
(292,678,o),
(253,638,o),
(253,588,cs),
(253,538,o),
(292,498,o),
(343,498,cs)
);
}
);
width = 549;
}
);
unicode = 52;
}
{
glyphname = five;
layers = (
{
guides = (
{
angle = 270;
pos = (277,-78);
},
{
angle = 270;
pos = (322,-79);
}
);
layerId = m01;
shapes = (
{
closed = 1;
nodes = (
(94,0,o),
(114,20,o),
(114,45,cs),
(114,70,o),
(94,90,o),
(69,90,cs),
(44,90,o),
(24,70,o),
(24,45,cs),
(24,20,o),
(44,0,o),
(69,0,cs)
);
},
{
closed = 1;
nodes = (
(232,0,o),
(251,20,o),
(251,45,cs),
(251,70,o),
(232,90,o),
(206,90,cs),
(181,90,o),
(161,70,o),
(161,45,cs),
(161,20,o),
(181,0,o),
(206,0,cs)
);
},
{
closed = 1;
nodes = (
(368,0,o),
(388,20,o),
(388,45,cs),
(388,70,o),
(368,90,o),
(343,90,cs),
(317,90,o),
(298,70,o),
(298,45,cs),
(298,20,o),
(317,0,o),
(343,0,cs)
);
},
{
closed = 1;
nodes = (
(505,181,o),
(525,201,o),
(525,226,cs),
(525,251,o),
(505,271,o),
(480,271,cs),
(455,271,o),
(435,251,o),
(435,226,cs),
(435,201,o),
(455,181,o),
(480,181,cs)
);
},
{
closed = 1;
nodes = (
(94,362,o),
(114,382,o),
(114,407,cs),
(114,432,o),
(94,452,o),
(69,452,cs),
(44,452,o),
(24,432,o),
(24,407,cs),
(24,382,o),
(44,362,o),
(69,362,cs)
);
},
{
closed = 1;
nodes = (
(231,362,o),
(251,382,o),
(251,407,cs),
(251,432,o),
(231,452,o),
(206,452,cs),
(181,452,o),
(161,432,o),
(161,407,cs),
(161,382,o),
(181,362,o),
(206,362,cs)
);
},
{
closed = 1;
nodes = (
(368,362,o),
(388,382,o),
(388,407,cs),
(388,432,o),
(368,452,o),
(343,452,cs),
(318,452,o),
(298,432,o),
(298,407,cs),
(298,382,o),
(318,362,o),
(343,362,cs)
);
},
{
closed = 1;
nodes = (
(94,724,o),
(114,744,o),
(114,769,cs),
(114,794,o),
(94,814,o),
(69,814,cs),
(44,814,o),
(24,794,o),
(24,769,cs),
(24,744,o),
(44,724,o),
(69,724,cs)
);
},
{
closed = 1;
nodes = (
(94,543,o),
(114,563,o),
(114,588,cs),
(114,613,o),
(94,633,o),
(69,633,cs),
(44,633,o),
(24,613,o),
(24,588,cs),
(24,563,o),
(44,543,o),
(69,543,cs)
);
},
{
closed = 1;
nodes = (
(231,724,o),
(251,744,o),
(251,769,cs),
(251,794,o),
(231,814,o),
(206,814,cs),
(181,814,o),
(161,794,o),
(161,769,cs),
(161,744,o),
(181,724,o),
(206,724,cs)
);
},
{
closed = 1;
nodes = (
(368,724,o),
(388,744,o),
(388,769,cs),
(388,794,o),
(368,814,o),
(343,814,cs),
(318,814,o),
(298,794,o),
(298,769,cs),
(298,744,o),
(318,724,o),
(343,724,cs)
);
},
{
closed = 1;
nodes = (
(505,724,o),
(525,744,o),
(525,769,cs),
(525,794,o),
(505,814,o),
(480,814,cs),
(455,814,o),
(435,794,o),
(435,769,cs),
(435,744,o),
(455,724,o),
(480,724,cs)
);
}
);
width = 549;
},
{
guides = (
{
angle = 270;
pos = (277,-78);
},
{
angle = 270;
pos = (322,-79);
}
);
layerId = m003;
shapes = (
{
closed = 1;
nodes = (
(174,-145,o),
(259,-60,o),
(259,45,cs),
(259,150,o),
(174,235,o),
(69,235,cs),
(-36,235,o),
(-121,150,o),
(-121,45,cs),
(-121,-60,o),
(-36,-145,o),
(69,-145,cs)
);
},
{
closed = 1;
nodes = (
(312,-145,o),
(396,-60,o),
(396,45,cs),
(396,150,o),
(312,235,o),
(206,235,cs),
(101,235,o),
(16,150,o),
(16,45,cs),
(16,-60,o),
(101,-145,o),
(206,-145,cs)
);
},
{
closed = 1;
nodes = (
(448,-145,o),
(533,-60,o),
(533,45,cs),
(533,150,o),
(448,235,o),
(343,235,cs),
(237,235,o),
(153,150,o),
(153,45,cs),
(153,-60,o),
(237,-145,o),
(343,-145,cs)
);
},
{
closed = 1;
nodes = (
(585,36,o),
(670,121,o),
(670,226,cs),
(670,331,o),
(585,416,o),
(480,416,cs),
(375,416,o),
(290,331,o),
(290,226,cs),
(290,121,o),
(375,36,o),
(480,36,cs)
);
},
{
closed = 1;
nodes = (
(174,217,o),
(259,302,o),
(259,407,cs),
(259,512,o),
(174,597,o),
(69,597,cs),
(-36,597,o),
(-121,512,o),
(-121,407,cs),
(-121,302,o),
(-36,217,o),
(69,217,cs)
);
},
{
closed = 1;
nodes = (
(311,217,o),
(396,302,o),
(396,407,cs),
(396,512,o),
(311,597,o),
(206,597,cs),
(101,597,o),
(16,512,o),
(16,407,cs),
(16,302,o),
(101,217,o),
(206,217,cs)
);
},
{
closed = 1;
nodes = (
(448,217,o),
(533,302,o),
(533,407,cs),
(533,512,o),
(448,597,o),
(343,597,cs),
(238,597,o),
(153,512,o),
(153,407,cs),
(153,302,o),
(238,217,o),
(343,217,cs)
);
},
{
closed = 1;
nodes = (
(174,579,o),
(259,664,o),
(259,769,cs),
(259,874,o),
(174,959,o),
(69,959,cs),
(-36,959,o),
(-121,874,o),
(-121,769,cs),
(-121,664,o),
(-36,579,o),
(69,579,cs)
);
},
{
closed = 1;
nodes = (
(174,398,o),
(259,483,o),
(259,588,cs),
(259,693,o),
(174,778,o),
(69,778,cs),
(-36,778,o),
(-121,693,o),
(-121,588,cs),
(-121,483,o),
(-36,398,o),
(69,398,cs)
);
},
{
closed = 1;
nodes = (
(311,579,o),
(396,664,o),
(396,769,cs),
(396,874,o),
(311,959,o),
(206,959,cs),
(101,959,o),
(16,874,o),
(16,769,cs),
(16,664,o),
(101,579,o),
(206,579,cs)
);
},
{
closed = 1;
nodes = (
(448,579,o),
(533,664,o),
(533,769,cs),
(533,874,o),
(448,959,o),
(343,959,cs),
(238,959,o),
(153,874,o),
(153,769,cs),
(153,664,o),
(238,579,o),
(343,579,cs)
);
},
{
closed = 1;
nodes = (
(585,579,o),
(670,664,o),
(670,769,cs),
(670,874,o),
(585,959,o),
(480,959,cs),
(375,959,o),
(290,874,o),
(290,769,cs),
(290,664,o),
(375,579,o),
(480,579,cs)
);
}
);
width = 549;
},
{
guides = (
{
angle = 270;
pos = (277,-78);
},
{
angle = 270;
pos = (322,-79);
}
);
layerId = m004;
shapes = (
{
closed = 1;
nodes = (
(119,-45,o),
(159,-5,o),
(159,45,cs),
(159,95,o),
(119,135,o),
(69,135,cs),
(19,135,o),
(-21,95,o),
(-21,45,cs),
(-21,-5,o),
(19,-45,o),
(69,-45,cs)
);
},
{
closed = 1;
nodes = (
(257,-45,o),
(296,-5,o),
(296,45,cs),
(296,95,o),
(257,135,o),
(206,135,cs),
(156,135,o),
(116,95,o),
(116,45,cs),
(116,-5,o),
(156,-45,o),
(206,-45,cs)
);
},
{
closed = 1;
nodes = (
(393,-45,o),
(433,-5,o),
(433,45,cs),
(433,95,o),
(393,135,o),
(343,135,cs),
(292,135,o),
(253,95,o),
(253,45,cs),
(253,-5,o),
(292,-45,o),
(343,-45,cs)
);
},
{
closed = 1;
nodes = (
(530,136,o),
(570,176,o),
(570,226,cs),
(570,276,o),
(530,316,o),
(480,316,cs),
(430,316,o),
(390,276,o),
(390,226,cs),
(390,176,o),
(430,136,o),
(480,136,cs)
);
},
{
closed = 1;
nodes = (
(119,317,o),
(159,357,o),
(159,407,cs),
(159,457,o),
(119,497,o),
(69,497,cs),
(19,497,o),
(-21,457,o),
(-21,407,cs),
(-21,357,o),
(19,317,o),
(69,317,cs)
);
},
{
closed = 1;
nodes = (
(256,317,o),
(296,357,o),
(296,407,cs),
(296,457,o),
(256,497,o),
(206,497,cs),
(156,497,o),
(116,457,o),
(116,407,cs),
(116,357,o),
(156,317,o),
(206,317,cs)
);
},
{
closed = 1;
nodes = (
(393,317,o),
(433,357,o),
(433,407,cs),
(433,457,o),
(393,497,o),
(343,497,cs),
(293,497,o),
(253,457,o),
(253,407,cs),
(253,357,o),
(293,317,o),
(343,317,cs)
);
},
{
closed = 1;
nodes = (
(119,679,o),
(159,719,o),
(159,769,cs),
(159,819,o),
(119,859,o),
(69,859,cs),
(19,859,o),
(-21,819,o),
(-21,769,cs),
(-21,719,o),
(19,679,o),
(69,679,cs)
);
},
{
closed = 1;
nodes = (
(119,498,o),
(159,538,o),
(159,588,cs),
(159,638,o),
(119,678,o),
(69,678,cs),
(19,678,o),
(-21,638,o),
(-21,588,cs),
(-21,538,o),
(19,498,o),
(69,498,cs)
);
},
{
closed = 1;
nodes = (
(256,679,o),
(296,719,o),
(296,769,cs),
(296,819,o),
(256,859,o),
(206,859,cs),
(156,859,o),
(116,819,o),
(116,769,cs),
(116,719,o),
(156,679,o),
(206,679,cs)
);
},
{
closed = 1;
nodes = (
(393,679,o),
(433,719,o),
(433,769,cs),
(433,819,o),
(393,859,o),
(343,859,cs),
(293,859,o),
(253,819,o),
(253,769,cs),
(253,719,o),
(293,679,o),
(343,679,cs)
);
},
{
closed = 1;
nodes = (
(530,679,o),
(570,719,o),
(570,769,cs),
(570,819,o),
(530,859,o),
(480,859,cs),
(430,859,o),
(390,819,o),
(390,769,cs),
(390,719,o),
(430,679,o),
(480,679,cs)
);
}
);
width = 549;
}
);
unicode = 53;
}
{
glyphname = six;
layers = (
{
layerId = m01;
shapes = (
{
closed = 1;
nodes = (
(94,181,o),
(114,201,o),
(114,226,cs),
(114,251,o),
(94,271,o),
(69,271,cs),
(44,271,o),
(24,251,o),
(24,226,cs),
(24,201,o),
(44,181,o),
(69,181,cs)
);
},
{
closed = 1;
nodes = (
(232,0,o),
(251,20,o),
(251,45,cs),
(251,70,o),
(232,90,o),
(206,90,cs),
(181,90,o),
(161,70,o),
(161,45,cs),
(161,20,o),
(181,0,o),
(206,0,cs)
);
},
{
closed = 1;
nodes = (
(368,0,o),
(388,19,o),
(388,45,cs),
(388,70,o),
(368,90,o),
(343,90,cs),
(318,90,o),
(298,70,o),
(298,45,cs),
(298,19,o),
(318,0,o),
(343,0,cs)
);
},
{
closed = 1;
nodes = (
(505,181,o),
(525,201,o),
(525,226,cs),
(525,251,o),
(505,271,o),
(480,271,cs),
(455,271,o),
(435,251,o),
(435,226,cs),
(435,201,o),
(455,181,o),
(480,181,cs)
);
},
{
closed = 1;
nodes = (
(94,362,o),
(114,382,o),
(114,407,cs),
(114,432,o),
(94,452,o),
(69,452,cs),
(44,452,o),
(24,432,o),
(24,407,cs),
(24,382,o),
(44,362,o),
(69,362,cs)
);
},
{
closed = 1;
nodes = (
(231,362,o),
(251,382,o),
(251,407,cs),
(251,432,o),
(231,452,o),
(206,452,cs),
(181,452,o),
(161,432,o),
(161,407,cs),
(161,382,o),
(181,362,o),
(206,362,cs)
);
},
{
closed = 1;
nodes = (
(368,362,o),
(388,382,o),
(388,407,cs),
(388,432,o),
(368,452,o),
(343,452,cs),
(318,452,o),
(298,432,o),
(298,407,cs),
(298,382,o),
(318,362,o),
(343,362,cs)
);
},
{
closed = 1;
nodes = (
(94,543,o),
(114,563,o),
(114,588,cs),
(114,613,o),
(94,633,o),
(69,633,cs),
(44,633,o),
(24,613,o),
(24,588,cs),
(24,563,o),
(44,543,o),
(69,543,cs)
);
},
{
closed = 1;
nodes = (
(231,724,o),
(251,744,o),
(251,769,cs),
(251,794,o),
(231,814,o),
(206,814,cs),
(181,814,o),
(161,794,o),
(161,769,cs),
(161,744,o),
(181,724,o),
(206,724,cs)
);
},
{
closed = 1;
nodes = (
(368,724,o),
(388,744,o),
(388,769,cs),
(388,794,o),
(368,814,o),
(343,814,cs),
(318,814,o),
(298,794,o),
(298,769,cs),
(298,744,o),
(318,724,o),
(343,724,cs)
);
},
{
closed = 1;
nodes = (
(505,724,o),
(525,744,o),
(525,769,cs),
(525,794,o),
(505,814,o),
(480,814,cs),
(455,814,o),
(435,794,o),
(435,769,cs),
(435,744,o),
(455,724,o),
(480,724,cs)
);
}
);
width = 549;
},
{
layerId = m003;
shapes = (
{
closed = 1;
nodes = (
(174,36,o),
(259,121,o),
(259,226,cs),
(259,331,o),
(174,416,o),
(69,416,cs),
(-36,416,o),
(-121,331,o),
(-121,226,cs),
(-121,121,o),
(-36,36,o),
(69,36,cs)
);
},
{
closed = 1;
nodes = (
(312,-145,o),
(396,-60,o),
(396,45,cs),
(396,150,o),
(312,235,o),
(206,235,cs),
(101,235,o),
(16,150,o),
(16,45,cs),
(16,-60,o),
(101,-145,o),
(206,-145,cs)
);
},
{
closed = 1;
nodes = (
(448,-145,o),
(533,-61,o),
(533,45,cs),
(533,150,o),
(448,235,o),
(343,235,cs),
(238,235,o),
(153,150,o),
(153,45,cs),
(153,-61,o),
(238,-145,o),
(343,-145,cs)
);
},
{
closed = 1;
nodes = (
(585,36,o),
(670,121,o),
(670,226,cs),
(670,331,o),
(585,416,o),
(480,416,cs),
(375,416,o),
(290,331,o),
(290,226,cs),
(290,121,o),
(375,36,o),
(480,36,cs)
);
},
{
closed = 1;
nodes = (
(174,217,o),
(259,302,o),
(259,407,cs),
(259,512,o),
(174,597,o),
(69,597,cs),
(-36,597,o),
(-121,512,o),
(-121,407,cs),
(-121,302,o),
(-36,217,o),
(69,217,cs)
);
},
{
closed = 1;
nodes = (
(311,217,o),
(396,302,o),
(396,407,cs),
(396,512,o),
(311,597,o),
(206,597,cs),
(101,597,o),
(16,512,o),
(16,407,cs),
(16,302,o),
(101,217,o),
(206,217,cs)
);
},
{
closed = 1;
nodes = (
(448,217,o),
(533,302,o),
(533,407,cs),
(533,512,o),
(448,597,o),
(343,597,cs),
(238,597,o),
(153,512,o),
(153,407,cs),
(153,302,o),
(238,217,o),
(343,217,cs)
);
},
{
closed = 1;
nodes = (
(174,398,o),
(259,483,o),
(259,588,cs),
(259,693,o),
(174,778,o),
(69,778,cs),
(-36,778,o),
(-121,693,o),
(-121,588,cs),
(-121,483,o),
(-36,398,o),
(69,398,cs)
);
},
{
closed = 1;
nodes = (
(311,579,o),
(396,664,o),
(396,769,cs),
(396,874,o),
(311,959,o),
(206,959,cs),
(101,959,o),
(16,874,o),
(16,769,cs),
(16,664,o),
(101,579,o),
(206,579,cs)
);
},
{
closed = 1;
nodes = (
(448,579,o),
(533,664,o),
(533,769,cs),
(533,874,o),
(448,959,o),
(343,959,cs),
(238,959,o),
(153,874,o),
(153,769,cs),
(153,664,o),
(238,579,o),
(343,579,cs)
);
},
{
closed = 1;
nodes = (
(585,579,o),
(670,664,o),
(670,769,cs),
(670,874,o),
(585,959,o),
(480,959,cs),
(375,959,o),
(290,874,o),
(290,769,cs),
(290,664,o),
(375,579,o),
(480,579,cs)
);
}
);
width = 549;
},
{
layerId = m004;
shapes = (
{
closed = 1;
nodes = (
(119,136,o),
(159,176,o),
(159,226,cs),
(159,276,o),
(119,316,o),
(69,316,cs),
(19,316,o),
(-21,276,o),
(-21,226,cs),
(-21,176,o),
(19,136,o),
(69,136,cs)
);
},
{
closed = 1;
nodes = (
(257,-45,o),
(296,-5,o),
(296,45,cs),
(296,95,o),
(257,135,o),
(206,135,cs),
(156,135,o),
(116,95,o),
(116,45,cs),
(116,-5,o),
(156,-45,o),
(206,-45,cs)
);
},
{
closed = 1;
nodes = (
(393,-45,o),
(433,-6,o),
(433,45,cs),
(433,95,o),
(393,135,o),
(343,135,cs),
(293,135,o),
(253,95,o),
(253,45,cs),
(253,-6,o),
(293,-45,o),
(343,-45,cs)
);
},
{
closed = 1;
nodes = (
(530,136,o),
(570,176,o),
(570,226,cs),
(570,276,o),
(530,316,o),
(480,316,cs),
(430,316,o),
(390,276,o),
(390,226,cs),
(390,176,o),
(430,136,o),
(480,136,cs)
);
},
{
closed = 1;
nodes = (
(119,317,o),
(159,357,o),
(159,407,cs),
(159,457,o),
(119,497,o),
(69,497,cs),
(19,497,o),
(-21,457,o),
(-21,407,cs),
(-21,357,o),
(19,317,o),
(69,317,cs)
);
},
{
closed = 1;
nodes = (
(256,317,o),
(296,357,o),
(296,407,cs),
(296,457,o),
(256,497,o),
(206,497,cs),
(156,497,o),
(116,457,o),
(116,407,cs),
(116,357,o),
(156,317,o),
(206,317,cs)
);
},
{
closed = 1;
nodes = (
(393,317,o),
(433,357,o),
(433,407,cs),
(433,457,o),
(393,497,o),
(343,497,cs),
(293,497,o),
(253,457,o),
(253,407,cs),
(253,357,o),
(293,317,o),
(343,317,cs)
);
},
{
closed = 1;
nodes = (
(119,498,o),
(159,538,o),
(159,588,cs),
(159,638,o),
(119,678,o),
(69,678,cs),
(19,678,o),
(-21,638,o),
(-21,588,cs),
(-21,538,o),
(19,498,o),
(69,498,cs)
);
},
{
closed = 1;
nodes = (
(256,679,o),
(296,719,o),
(296,769,cs),
(296,819,o),
(256,859,o),
(206,859,cs),
(156,859,o),
(116,819,o),
(116,769,cs),
(116,719,o),
(156,679,o),
(206,679,cs)
);
},
{
closed = 1;
nodes = (
(393,679,o),
(433,719,o),
(433,769,cs),
(433,819,o),
(393,859,o),
(343,859,cs),
(293,859,o),
(253,819,o),
(253,769,cs),
(253,719,o),
(293,679,o),
(343,679,cs)
);
},
{
closed = 1;
nodes = (
(530,679,o),
(570,719,o),
(570,769,cs),
(570,819,o),
(530,859,o),
(480,859,cs),
(430,859,o),
(390,819,o),
(390,769,cs),
(390,719,o),
(430,679,o),
(480,679,cs)
);
}
);
width = 549;
}
);
unicode = 54;
}
{
glyphname = seven;
layers = (
{
layerId = m01;
shapes = (
{
closed = 1;
nodes = (
(368,0,o),
(388,20,o),
(388,45,cs),
(388,70,o),
(368,90,o),
(343,90,cs),
(317,90,o),
(298,70,o),
(298,45,cs),
(298,20,o),
(317,0,o),
(343,0,cs)
);
},
{
closed = 1;
nodes = (
(368,181,o),
(388,201,o),
(388,226,cs),
(388,251,o),
(368,271,o),
(343,271,cs),
(318,271,o),
(298,251,o),
(298,226,cs),
(298,201,o),
(318,181,o),
(343,181,cs)
);
},
{
closed = 1;
nodes = (
(368,362,o),
(388,382,o),
(388,407,cs),
(388,432,o),
(368,452,o),
(343,452,cs),
(318,452,o),
(298,432,o),
(298,407,cs),
(298,382,o),
(318,362,o),
(343,362,cs)
);
},
{
closed = 1;
nodes = (
(94,724,o),
(114,744,o),
(114,769,cs),
(114,794,o),
(94,814,o),
(69,814,cs),
(44,814,o),
(24,794,o),
(24,769,cs),
(24,744,o),
(44,724,o),
(69,724,cs)
);
},
{
closed = 1;
nodes = (
(505,543,o),
(525,562,o),
(525,588,cs),
(525,613,o),
(505,633,o),
(480,633,cs),
(455,633,o),
(435,613,o),
(435,588,cs),
(435,562,o),
(455,543,o),
(480,543,cs)
);
},
{
closed = 1;
nodes = (
(231,724,o),
(251,744,o),
(251,769,cs),
(251,794,o),
(231,814,o),
(206,814,cs),
(181,814,o),
(161,794,o),
(161,769,cs),
(161,744,o),
(181,724,o),
(206,724,cs)
);
},
{
closed = 1;
nodes = (
(368,724,o),
(388,744,o),
(388,769,cs),
(388,794,o),
(368,814,o),
(343,814,cs),
(318,814,o),
(298,794,o),
(298,769,cs),
(298,744,o),
(318,724,o),
(343,724,cs)
);
},
{
closed = 1;
nodes = (
(505,724,o),
(525,744,o),
(525,769,cs),
(525,794,o),
(505,814,o),
(480,814,cs),
(455,814,o),
(435,794,o),
(435,769,cs),
(435,744,o),
(455,724,o),
(480,724,cs)
);
}
);
width = 549;
},
{
layerId = m003;
shapes = (
{
closed = 1;
nodes = (
(448,-145,o),
(533,-60,o),
(533,45,cs),
(533,150,o),
(448,235,o),
(343,235,cs),
(237,235,o),
(153,150,o),
(153,45,cs),
(153,-60,o),
(237,-145,o),
(343,-145,cs)
);
},
{
closed = 1;
nodes = (
(448,36,o),
(533,121,o),
(533,226,cs),
(533,331,o),
(448,416,o),
(343,416,cs),
(238,416,o),
(153,331,o),
(153,226,cs),
(153,121,o),
(238,36,o),
(343,36,cs)
);
},
{
closed = 1;
nodes = (
(448,217,o),
(533,302,o),
(533,407,cs),
(533,512,o),
(448,597,o),
(343,597,cs),
(238,597,o),
(153,512,o),
(153,407,cs),
(153,302,o),
(238,217,o),
(343,217,cs)
);
},
{
closed = 1;
nodes = (
(174,579,o),
(259,664,o),
(259,769,cs),
(259,874,o),
(174,959,o),
(69,959,cs),
(-36,959,o),
(-121,874,o),
(-121,769,cs),
(-121,664,o),
(-36,579,o),
(69,579,cs)
);
},
{
closed = 1;
nodes = (
(585,398,o),
(670,482,o),
(670,588,cs),
(670,693,o),
(585,778,o),
(480,778,cs),
(375,778,o),
(290,693,o),
(290,588,cs),
(290,482,o),
(375,398,o),
(480,398,cs)
);
},
{
closed = 1;
nodes = (
(311,579,o),
(396,664,o),
(396,769,cs),
(396,874,o),
(311,959,o),
(206,959,cs),
(101,959,o),
(16,874,o),
(16,769,cs),
(16,664,o),
(101,579,o),
(206,579,cs)
);
},
{
closed = 1;
nodes = (
(448,579,o),
(533,664,o),
(533,769,cs),
(533,874,o),
(448,959,o),
(343,959,cs),
(238,959,o),
(153,874,o),
(153,769,cs),
(153,664,o),
(238,579,o),
(343,579,cs)
);
},
{
closed = 1;
nodes = (
(585,579,o),
(670,664,o),
(670,769,cs),
(670,874,o),
(585,959,o),
(480,959,cs),
(375,959,o),
(290,874,o),
(290,769,cs),
(290,664,o),
(375,579,o),
(480,579,cs)
);
}
);
width = 549;
},
{
layerId = m004;
shapes = (
{
closed = 1;
nodes = (
(393,-45,o),
(433,-5,o),
(433,45,cs),
(433,95,o),
(393,135,o),
(343,135,cs),
(292,135,o),
(253,95,o),
(253,45,cs),
(253,-5,o),
(292,-45,o),
(343,-45,cs)
);
},
{
closed = 1;
nodes = (
(393,136,o),
(433,176,o),
(433,226,cs),
(433,276,o),
(393,316,o),
(343,316,cs),
(293,316,o),
(253,276,o),
(253,226,cs),
(253,176,o),
(293,136,o),
(343,136,cs)
);
},
{
closed = 1;
nodes = (
(393,317,o),
(433,357,o),
(433,407,cs),
(433,457,o),
(393,497,o),
(343,497,cs),
(293,497,o),
(253,457,o),
(253,407,cs),
(253,357,o),
(293,317,o),
(343,317,cs)
);
},
{
closed = 1;
nodes = (
(119,679,o),
(159,719,o),
(159,769,cs),
(159,819,o),
(119,859,o),
(69,859,cs),
(19,859,o),
(-21,819,o),
(-21,769,cs),
(-21,719,o),
(19,679,o),
(69,679,cs)
);
},
{
closed = 1;
nodes = (
(530,498,o),
(570,537,o),
(570,588,cs),
(570,638,o),
(530,678,o),
(480,678,cs),
(430,678,o),
(390,638,o),
(390,588,cs),
(390,537,o),
(430,498,o),
(480,498,cs)
);
},
{
closed = 1;
nodes = (
(256,679,o),
(296,719,o),
(296,769,cs),
(296,819,o),
(256,859,o),
(206,859,cs),
(156,859,o),
(116,819,o),
(116,769,cs),
(116,719,o),
(156,679,o),
(206,679,cs)
);
},
{
closed = 1;
nodes = (
(393,679,o),
(433,719,o),
(433,769,cs),
(433,819,o),
(393,859,o),
(343,859,cs),
(293,859,o),
(253,819,o),
(253,769,cs),
(253,719,o),
(293,679,o),
(343,679,cs)
);
},
{
closed = 1;
nodes = (
(530,679,o),
(570,719,o),
(570,769,cs),
(570,819,o),
(530,859,o),
(480,859,cs),
(430,859,o),
(390,819,o),
(390,769,cs),
(390,719,o),
(430,679,o),
(480,679,cs)
);
}
);
width = 549;
}
);
unicode = 55;
}
{
glyphname = eight;
layers = (
{
layerId = m01;
shapes = (
{
closed = 1;
nodes = (
(94,181,o),
(114,201,o),
(114,226,cs),
(114,251,o),
(94,271,o),
(69,271,cs),
(44,271,o),
(24,251,o),
(24,226,cs),
(24,201,o),
(44,181,o),
(69,181,cs)
);
},
{
closed = 1;
nodes = (
(232,0,o),
(251,20,o),
(251,45,cs),
(251,70,o),
(232,90,o),
(206,90,cs),
(181,90,o),
(161,70,o),
(161,45,cs),
(161,20,o),
(181,0,o),
(206,0,cs)
);
},
{
closed = 1;
nodes = (
(368,0,o),
(388,20,o),
(388,45,cs),
(388,70,o),
(368,90,o),
(343,90,cs),
(317,90,o),
(298,70,o),
(298,45,cs),
(298,20,o),
(317,0,o),
(343,0,cs)
);
},
{
closed = 1;
nodes = (
(505,181,o),
(525,201,o),
(525,226,cs),
(525,251,o),
(505,271,o),
(480,271,cs),
(455,271,o),
(435,251,o),
(435,226,cs),
(435,201,o),
(455,181,o),
(480,181,cs)
);
},
{
closed = 1;
nodes = (
(231,362,o),
(251,382,o),
(251,407,cs),
(251,432,o),
(231,452,o),
(206,452,cs),
(181,452,o),
(161,432,o),
(161,407,cs),
(161,382,o),
(181,362,o),
(206,362,cs)
);
},
{
closed = 1;
nodes = (
(368,362,o),
(388,382,o),
(388,407,cs),
(388,432,o),
(368,452,o),
(343,452,cs),
(318,452,o),
(298,432,o),
(298,407,cs),
(298,382,o),
(318,362,o),
(343,362,cs)
);
},
{
closed = 1;
nodes = (
(94,543,o),
(114,563,o),
(114,588,cs),
(114,613,o),
(94,633,o),
(69,633,cs),
(44,633,o),
(24,613,o),
(24,588,cs),
(24,563,o),
(44,543,o),
(69,543,cs)
);
},
{
closed = 1;
nodes = (
(505,543,o),
(525,562,o),
(525,588,cs),
(525,613,o),
(505,633,o),
(480,633,cs),
(455,633,o),
(435,613,o),
(435,588,cs),
(435,562,o),
(455,543,o),
(480,543,cs)
);
},
{
closed = 1;
nodes = (
(231,724,o),
(251,744,o),
(251,769,cs),
(251,794,o),
(231,814,o),
(206,814,cs),
(181,814,o),
(161,794,o),
(161,769,cs),
(161,744,o),
(181,724,o),
(206,724,cs)
);
},
{
closed = 1;
nodes = (
(368,724,o),
(388,744,o),
(388,769,cs),
(388,794,o),
(368,814,o),
(343,814,cs),
(318,814,o),
(298,794,o),
(298,769,cs),
(298,744,o),
(318,724,o),
(343,724,cs)
);
}
);
width = 549;
},
{
layerId = m003;
shapes = (
{
closed = 1;
nodes = (
(174,36,o),
(259,121,o),
(259,226,cs),
(259,331,o),
(174,416,o),
(69,416,cs),
(-36,416,o),
(-121,331,o),
(-121,226,cs),
(-121,121,o),
(-36,36,o),
(69,36,cs)
);
},
{
closed = 1;
nodes = (
(312,-145,o),
(396,-60,o),
(396,45,cs),
(396,150,o),
(312,235,o),
(206,235,cs),
(101,235,o),
(16,150,o),
(16,45,cs),
(16,-60,o),
(101,-145,o),
(206,-145,cs)
);
},
{
closed = 1;
nodes = (
(448,-145,o),
(533,-60,o),
(533,45,cs),
(533,150,o),
(448,235,o),
(343,235,cs),
(237,235,o),
(153,150,o),
(153,45,cs),
(153,-60,o),
(237,-145,o),
(343,-145,cs)
);
},
{
closed = 1;
nodes = (
(585,36,o),
(670,121,o),
(670,226,cs),
(670,331,o),
(585,416,o),
(480,416,cs),
(375,416,o),
(290,331,o),
(290,226,cs),
(290,121,o),
(375,36,o),
(480,36,cs)
);
},
{
closed = 1;
nodes = (
(311,217,o),
(396,302,o),
(396,407,cs),
(396,512,o),
(311,597,o),
(206,597,cs),
(101,597,o),
(16,512,o),
(16,407,cs),
(16,302,o),
(101,217,o),
(206,217,cs)
);
},
{
closed = 1;
nodes = (
(448,217,o),
(533,302,o),
(533,407,cs),
(533,512,o),
(448,597,o),
(343,597,cs),
(238,597,o),
(153,512,o),
(153,407,cs),
(153,302,o),
(238,217,o),
(343,217,cs)
);
},
{
closed = 1;
nodes = (
(174,398,o),
(259,483,o),
(259,588,cs),
(259,693,o),
(174,778,o),
(69,778,cs),
(-36,778,o),
(-121,693,o),
(-121,588,cs),
(-121,483,o),
(-36,398,o),
(69,398,cs)
);
},
{
closed = 1;
nodes = (
(585,398,o),
(670,482,o),
(670,588,cs),
(670,693,o),
(585,778,o),
(480,778,cs),
(375,778,o),
(290,693,o),
(290,588,cs),
(290,482,o),
(375,398,o),
(480,398,cs)
);
},
{
closed = 1;
nodes = (
(311,579,o),
(396,664,o),
(396,769,cs),
(396,874,o),
(311,959,o),
(206,959,cs),
(101,959,o),
(16,874,o),
(16,769,cs),
(16,664,o),
(101,579,o),
(206,579,cs)
);
},
{
closed = 1;
nodes = (
(448,579,o),
(533,664,o),
(533,769,cs),
(533,874,o),
(448,959,o),
(343,959,cs),
(238,959,o),
(153,874,o),
(153,769,cs),
(153,664,o),
(238,579,o),
(343,579,cs)
);
}
);
width = 549;
},
{
layerId = m004;
shapes = (
{
closed = 1;
nodes = (
(119,136,o),
(159,176,o),
(159,226,cs),
(159,276,o),
(119,316,o),
(69,316,cs),
(19,316,o),
(-21,276,o),
(-21,226,cs),
(-21,176,o),
(19,136,o),
(69,136,cs)
);
},
{
closed = 1;
nodes = (
(257,-45,o),
(296,-5,o),
(296,45,cs),
(296,95,o),
(257,135,o),
(206,135,cs),
(156,135,o),
(116,95,o),
(116,45,cs),
(116,-5,o),
(156,-45,o),
(206,-45,cs)
);
},
{
closed = 1;
nodes = (
(393,-45,o),
(433,-5,o),
(433,45,cs),
(433,95,o),
(393,135,o),
(343,135,cs),
(292,135,o),
(253,95,o),
(253,45,cs),
(253,-5,o),
(292,-45,o),
(343,-45,cs)
);
},
{
closed = 1;
nodes = (
(530,136,o),
(570,176,o),
(570,226,cs),
(570,276,o),
(530,316,o),
(480,316,cs),
(430,316,o),
(390,276,o),
(390,226,cs),
(390,176,o),
(430,136,o),
(480,136,cs)
);
},
{
closed = 1;
nodes = (
(256,317,o),
(296,357,o),
(296,407,cs),
(296,457,o),
(256,497,o),
(206,497,cs),
(156,497,o),
(116,457,o),
(116,407,cs),
(116,357,o),
(156,317,o),
(206,317,cs)
);
},
{
closed = 1;
nodes = (
(393,317,o),
(433,357,o),
(433,407,cs),
(433,457,o),
(393,497,o),
(343,497,cs),
(293,497,o),
(253,457,o),
(253,407,cs),
(253,357,o),
(293,317,o),
(343,317,cs)
);
},
{
closed = 1;
nodes = (
(119,498,o),
(159,538,o),
(159,588,cs),
(159,638,o),
(119,678,o),
(69,678,cs),
(19,678,o),
(-21,638,o),
(-21,588,cs),
(-21,538,o),
(19,498,o),
(69,498,cs)
);
},
{
closed = 1;
nodes = (
(530,498,o),
(570,537,o),
(570,588,cs),
(570,638,o),
(530,678,o),
(480,678,cs),
(430,678,o),
(390,638,o),
(390,588,cs),
(390,537,o),
(430,498,o),
(480,498,cs)
);
},
{
closed = 1;
nodes = (
(256,679,o),
(296,719,o),
(296,769,cs),
(296,819,o),
(256,859,o),
(206,859,cs),
(156,859,o),
(116,819,o),
(116,769,cs),
(116,719,o),
(156,679,o),
(206,679,cs)
);
},
{
closed = 1;
nodes = (
(393,679,o),
(433,719,o),
(433,769,cs),
(433,819,o),
(393,859,o),
(343,859,cs),
(293,859,o),
(253,819,o),
(253,769,cs),
(253,719,o),
(293,679,o),
(343,679,cs)
);
}
);
width = 549;
}
);
unicode = 56;
}
{
glyphname = nine;
layers = (
{
layerId = m01;
shapes = (
{
closed = 1;
nodes = (
(455,633,o),
(435,613,o),
(435,588,cs),
(435,563,o),
(455,543,o),
(480,543,cs),
(505,543,o),
(525,563,o),
(525,588,cs),
(525,613,o),
(505,633,o),
(480,633,cs)
);
},
{
closed = 1;
nodes = (
(317,814,o),
(298,794,o),
(298,769,cs),
(298,744,o),
(317,724,o),
(343,724,cs),
(368,724,o),
(388,744,o),
(388,769,cs),
(388,794,o),
(368,814,o),
(343,814,cs)
);
},
{
closed = 1;
nodes = (
(181,814,o),
(161,795,o),
(161,769,cs),
(161,744,o),
(181,724,o),
(206,724,cs),
(231,724,o),
(251,744,o),
(251,769,cs),
(251,795,o),
(231,814,o),
(206,814,cs)
);
},
{
closed = 1;
nodes = (
(44,633,o),
(24,613,o),
(24,588,cs),
(24,563,o),
(44,543,o),
(69,543,cs),
(94,543,o),
(114,563,o),
(114,588,cs),
(114,613,o),
(94,633,o),
(69,633,cs)
);
},
{
closed = 1;
nodes = (
(455,452,o),
(435,432,o),
(435,407,cs),
(435,382,o),
(455,362,o),
(480,362,cs),
(505,362,o),
(525,382,o),
(525,407,cs),
(525,432,o),
(505,452,o),
(480,452,cs)
);
},
{
closed = 1;
nodes = (
(318,452,o),
(298,432,o),
(298,407,cs),
(298,382,o),
(318,362,o),
(343,362,cs),
(368,362,o),
(388,382,o),
(388,407,cs),
(388,432,o),
(368,452,o),
(343,452,cs)
);
},
{
closed = 1;
nodes = (
(181,452,o),
(161,432,o),
(161,407,cs),
(161,382,o),
(181,362,o),
(206,362,cs),
(231,362,o),
(251,382,o),
(251,407,cs),
(251,432,o),
(231,452,o),
(206,452,cs)
);
},
{
closed = 1;
nodes = (
(455,271,o),
(435,251,o),
(435,226,cs),
(435,201,o),
(455,181,o),
(480,181,cs),
(505,181,o),
(525,201,o),
(525,226,cs),
(525,251,o),
(505,271,o),
(480,271,cs)
);
},
{
closed = 1;
nodes = (
(318,90,o),
(298,70,o),
(298,45,cs),
(298,20,o),
(318,0,o),
(343,0,cs),
(368,0,o),
(388,20,o),
(388,45,cs),
(388,70,o),
(368,90,o),
(343,90,cs)
);
},
{
closed = 1;
nodes = (
(181,90,o),
(161,70,o),
(161,45,cs),
(161,20,o),
(181,0,o),
(206,0,cs),
(231,0,o),
(251,20,o),
(251,45,cs),
(251,70,o),
(231,90,o),
(206,90,cs)
);
},
{
closed = 1;
nodes = (
(44,90,o),
(25,70,o),
(25,45,cs),
(25,20,o),
(44,0,o),
(69,0,cs),
(94,0,o),
(114,20,o),
(114,45,cs),
(114,70,o),
(94,90,o),
(69,90,cs)
);
}
);
width = 549;
},
{
layerId = m003;
shapes = (
{
closed = 1;
nodes = (
(375,778,o),
(290,693,o),
(290,588,cs),
(290,483,o),
(375,398,o),
(480,398,cs),
(585,398,o),
(670,483,o),
(670,588,cs),
(670,693,o),
(585,778,o),
(480,778,cs)
);
},
{
closed = 1;
nodes = (
(237,959,o),
(153,874,o),
(153,769,cs),
(153,664,o),
(237,579,o),
(343,579,cs),
(448,579,o),
(533,664,o),
(533,769,cs),
(533,874,o),
(448,959,o),
(343,959,cs)
);
},
{
closed = 1;
nodes = (
(101,959,o),
(16,875,o),
(16,769,cs),
(16,664,o),
(101,579,o),
(206,579,cs),
(311,579,o),
(396,664,o),
(396,769,cs),
(396,875,o),
(311,959,o),
(206,959,cs)
);
},
{
closed = 1;
nodes = (
(-36,778,o),
(-121,693,o),
(-121,588,cs),
(-121,483,o),
(-36,398,o),
(69,398,cs),
(174,398,o),
(259,483,o),
(259,588,cs),
(259,693,o),
(174,778,o),
(69,778,cs)
);
},
{
closed = 1;
nodes = (
(375,597,o),
(290,512,o),
(290,407,cs),
(290,302,o),
(375,217,o),
(480,217,cs),
(585,217,o),
(670,302,o),
(670,407,cs),
(670,512,o),
(585,597,o),
(480,597,cs)
);
},
{
closed = 1;
nodes = (
(238,597,o),
(153,512,o),
(153,407,cs),
(153,302,o),
(238,217,o),
(343,217,cs),
(448,217,o),
(533,302,o),
(533,407,cs),
(533,512,o),
(448,597,o),
(343,597,cs)
);
},
{
closed = 1;
nodes = (
(101,597,o),
(16,512,o),
(16,407,cs),
(16,302,o),
(101,217,o),
(206,217,cs),
(311,217,o),
(396,302,o),
(396,407,cs),
(396,512,o),
(311,597,o),
(206,597,cs)
);
},
{
closed = 1;
nodes = (
(375,416,o),
(290,331,o),
(290,226,cs),
(290,121,o),
(375,36,o),
(480,36,cs),
(585,36,o),
(670,121,o),
(670,226,cs),
(670,331,o),
(585,416,o),
(480,416,cs)
);
},
{
closed = 1;
nodes = (
(238,235,o),
(153,150,o),
(153,45,cs),
(153,-60,o),
(238,-145,o),
(343,-145,cs),
(448,-145,o),
(533,-60,o),
(533,45,cs),
(533,150,o),
(448,235,o),
(343,235,cs)
);
},
{
closed = 1;
nodes = (
(101,235,o),
(16,150,o),
(16,45,cs),
(16,-60,o),
(101,-145,o),
(206,-145,cs),
(311,-145,o),
(396,-60,o),
(396,45,cs),
(396,150,o),
(311,235,o),
(206,235,cs)
);
},
{
closed = 1;
nodes = (
(-36,235,o),
(-120,150,o),
(-120,45,cs),
(-120,-60,o),
(-36,-145,o),
(69,-145,cs),
(174,-145,o),
(259,-60,o),
(259,45,cs),
(259,150,o),
(174,235,o),
(69,235,cs)
);
}
);
width = 549;
},
{
layerId = m004;
shapes = (
{
closed = 1;
nodes = (
(430,678,o),
(390,638,o),
(390,588,cs),
(390,538,o),
(430,498,o),
(480,498,cs),
(530,498,o),
(570,538,o),
(570,588,cs),
(570,638,o),
(530,678,o),
(480,678,cs)
);
},
{
closed = 1;
nodes = (
(292,859,o),
(253,819,o),
(253,769,cs),
(253,719,o),
(292,679,o),
(343,679,cs),
(393,679,o),
(433,719,o),
(433,769,cs),
(433,819,o),
(393,859,o),
(343,859,cs)
);
},
{
closed = 1;
nodes = (
(156,859,o),
(116,820,o),
(116,769,cs),
(116,719,o),
(156,679,o),
(206,679,cs),
(256,679,o),
(296,719,o),
(296,769,cs),
(296,820,o),
(256,859,o),
(206,859,cs)
);
},
{
closed = 1;
nodes = (
(19,678,o),
(-21,638,o),
(-21,588,cs),
(-21,538,o),
(19,498,o),
(69,498,cs),
(119,498,o),
(159,538,o),
(159,588,cs),
(159,638,o),
(119,678,o),
(69,678,cs)
);
},
{
closed = 1;
nodes = (
(430,497,o),
(390,457,o),
(390,407,cs),
(390,357,o),
(430,317,o),
(480,317,cs),
(530,317,o),
(570,357,o),
(570,407,cs),
(570,457,o),
(530,497,o),
(480,497,cs)
);
},
{
closed = 1;
nodes = (
(293,497,o),
(253,457,o),
(253,407,cs),
(253,357,o),
(293,317,o),
(343,317,cs),
(393,317,o),
(433,357,o),
(433,407,cs),
(433,457,o),
(393,497,o),
(343,497,cs)
);
},
{
closed = 1;
nodes = (
(156,497,o),
(116,457,o),
(116,407,cs),
(116,357,o),
(156,317,o),
(206,317,cs),
(256,317,o),
(296,357,o),
(296,407,cs),
(296,457,o),
(256,497,o),
(206,497,cs)
);
},
{
closed = 1;
nodes = (
(430,316,o),
(390,276,o),
(390,226,cs),
(390,176,o),
(430,136,o),
(480,136,cs),
(530,136,o),
(570,176,o),
(570,226,cs),
(570,276,o),
(530,316,o),
(480,316,cs)
);
},
{
closed = 1;
nodes = (
(293,135,o),
(253,95,o),
(253,45,cs),
(253,-5,o),
(293,-45,o),
(343,-45,cs),
(393,-45,o),
(433,-5,o),
(433,45,cs),
(433,95,o),
(393,135,o),
(343,135,cs)
);
},
{
closed = 1;
nodes = (
(156,135,o),
(116,95,o),
(116,45,cs),
(116,-5,o),
(156,-45,o),
(206,-45,cs),
(256,-45,o),
(296,-5,o),
(296,45,cs),
(296,95,o),
(256,135,o),
(206,135,cs)
);
},
{
closed = 1;
nodes = (
(19,135,o),
(-20,95,o),
(-20,45,cs),
(-20,-5,o),
(19,-45,o),
(69,-45,cs),
(119,-45,o),
(159,-5,o),
(159,45,cs),
(159,95,o),
(119,135,o),
(69,135,cs)
);
}
);
width = 549;
}
);
unicode = 57;
}
{
glyphname = B;
layers = (
{
layerId = m01;
shapes = (
{
closed = 1;
nodes = (
(145,181,o),
(165,201,o),
(165,226,cs),
(165,251,o),
(145,271,o),
(120,271,cs),
(95,271,o),
(75,251,o),
(75,226,cs),
(75,201,o),
(95,181,o),
(120,181,cs)
);
},
{
closed = 1;
nodes = (
(145,0,o),
(165,20,o),
(165,45,cs),
(165,70,o),
(145,90,o),
(120,90,cs),
(95,90,o),
(75,70,o),
(75,45,cs),
(75,20,o),
(95,0,o),
(120,0,cs)
);
},
{
closed = 1;
nodes = (
(283,0,o),
(302,20,o),
(302,45,cs),
(302,70,o),
(283,90,o),
(257,90,cs),
(232,90,o),
(212,70,o),
(212,45,cs),
(212,20,o),
(232,0,o),
(257,0,cs)
);
},
{
closed = 1;
nodes = (
(419,0,o),
(439,19,o),
(439,45,cs),
(439,70,o),
(419,90,o),
(394,90,cs),
(369,90,o),
(349,70,o),
(349,45,cs),
(349,19,o),
(369,0,o),
(394,0,cs)
);
},
{
closed = 1;
nodes = (
(556,181,o),
(576,201,o),
(576,226,cs),
(576,251,o),
(556,271,o),
(531,271,cs),
(506,271,o),
(486,251,o),
(486,226,cs),
(486,201,o),
(506,181,o),
(531,181,cs)
);
},
{
closed = 1;
nodes = (
(145,362,o),
(165,382,o),
(165,407,cs),
(165,432,o),
(145,452,o),
(120,452,cs),
(95,452,o),
(75,432,o),
(75,407,cs),
(75,382,o),
(95,362,o),
(120,362,cs)
);
},
{
closed = 1;
nodes = (
(282,362,o),
(302,382,o),
(302,407,cs),
(302,432,o),
(282,452,o),
(257,452,cs),
(232,452,o),
(212,432,o),
(212,407,cs),
(212,382,o),
(232,362,o),
(257,362,cs)
);
},
{
closed = 1;
nodes = (
(419,362,o),
(439,382,o),
(439,407,cs),
(439,432,o),
(419,452,o),
(394,452,cs),
(369,452,o),
(349,432,o),
(349,407,cs),
(349,382,o),
(369,362,o),
(394,362,cs)
);
},
{
closed = 1;
nodes = (
(145,724,o),
(165,744,o),
(165,769,cs),
(165,794,o),
(145,814,o),
(120,814,cs),
(95,814,o),
(75,794,o),
(75,769,cs),
(75,744,o),
(95,724,o),
(120,724,cs)
);
},
{
closed = 1;
nodes = (
(145,543,o),
(165,563,o),
(165,588,cs),
(165,613,o),
(145,633,o),
(120,633,cs),
(95,633,o),
(75,613,o),
(75,588,cs),
(75,563,o),
(95,543,o),
(120,543,cs)
);
},
{
closed = 1;
nodes = (
(556,543,o),
(576,562,o),
(576,588,cs),
(576,613,o),
(556,633,o),
(531,633,cs),
(506,633,o),
(486,613,o),
(486,588,cs),
(486,562,o),
(506,543,o),
(531,543,cs)
);
},
{
closed = 1;
nodes = (
(282,724,o),
(302,744,o),
(302,769,cs),
(302,794,o),
(282,814,o),
(257,814,cs),
(232,814,o),
(212,794,o),
(212,769,cs),
(212,744,o),
(232,724,o),
(257,724,cs)
);
},
{
closed = 1;
nodes = (
(419,724,o),
(439,744,o),
(439,769,cs),
(439,794,o),
(419,814,o),
(394,814,cs),
(369,814,o),
(349,794,o),
(349,769,cs),
(349,744,o),
(369,724,o),
(394,724,cs)
);
}
);
width = 651;
},
{
layerId = m003;
shapes = (
{
closed = 1;
nodes = (
(225,36,o),
(310,121,o),
(310,226,cs),
(310,331,o),
(225,416,o),
(120,416,cs),
(15,416,o),
(-70,331,o),
(-70,226,cs),
(-70,121,o),
(15,36,o),
(120,36,cs)
);
},
{
closed = 1;
nodes = (
(225,-145,o),
(310,-60,o),
(310,45,cs),
(310,150,o),
(225,235,o),
(120,235,cs),
(15,235,o),
(-70,150,o),
(-70,45,cs),
(-70,-60,o),
(15,-145,o),
(120,-145,cs)
);
},
{
closed = 1;
nodes = (
(363,-145,o),
(447,-60,o),
(447,45,cs),
(447,150,o),
(363,235,o),
(257,235,cs),
(152,235,o),
(67,150,o),
(67,45,cs),
(67,-60,o),
(152,-145,o),
(257,-145,cs)
);
},
{
closed = 1;
nodes = (
(499,-145,o),
(584,-61,o),
(584,45,cs),
(584,150,o),
(499,235,o),
(394,235,cs),
(289,235,o),
(204,150,o),
(204,45,cs),
(204,-61,o),
(289,-145,o),
(394,-145,cs)
);
},
{
closed = 1;
nodes = (
(636,36,o),
(721,121,o),
(721,226,cs),
(721,331,o),
(636,416,o),
(531,416,cs),
(426,416,o),
(341,331,o),
(341,226,cs),
(341,121,o),
(426,36,o),
(531,36,cs)
);
},
{
closed = 1;
nodes = (
(225,217,o),
(310,302,o),
(310,407,cs),
(310,512,o),
(225,597,o),
(120,597,cs),
(15,597,o),
(-70,512,o),
(-70,407,cs),
(-70,302,o),
(15,217,o),
(120,217,cs)
);
},
{
closed = 1;
nodes = (
(362,217,o),
(447,302,o),
(447,407,cs),
(447,512,o),
(362,597,o),
(257,597,cs),
(152,597,o),
(67,512,o),
(67,407,cs),
(67,302,o),
(152,217,o),
(257,217,cs)
);
},
{
closed = 1;
nodes = (
(499,217,o),
(584,302,o),
(584,407,cs),
(584,512,o),
(499,597,o),
(394,597,cs),
(289,597,o),
(204,512,o),
(204,407,cs),
(204,302,o),
(289,217,o),
(394,217,cs)
);
},
{
closed = 1;
nodes = (
(225,579,o),
(310,664,o),
(310,769,cs),
(310,874,o),
(225,959,o),
(120,959,cs),
(15,959,o),
(-70,874,o),
(-70,769,cs),
(-70,664,o),
(15,579,o),
(120,579,cs)
);
},
{
closed = 1;
nodes = (
(225,398,o),
(310,483,o),
(310,588,cs),
(310,693,o),
(225,778,o),
(120,778,cs),
(15,778,o),
(-70,693,o),
(-70,588,cs),
(-70,483,o),
(15,398,o),
(120,398,cs)
);
},
{
closed = 1;
nodes = (
(636,398,o),
(721,482,o),
(721,588,cs),
(721,693,o),
(636,778,o),
(531,778,cs),
(426,778,o),
(341,693,o),
(341,588,cs),
(341,482,o),
(426,398,o),
(531,398,cs)
);
},
{
closed = 1;
nodes = (
(362,579,o),
(447,664,o),
(447,769,cs),
(447,874,o),
(362,959,o),
(257,959,cs),
(152,959,o),
(67,874,o),
(67,769,cs),
(67,664,o),
(152,579,o),
(257,579,cs)
);
},
{
closed = 1;
nodes = (
(499,579,o),
(584,664,o),
(584,769,cs),
(584,874,o),
(499,959,o),
(394,959,cs),
(289,959,o),
(204,874,o),
(204,769,cs),
(204,664,o),
(289,579,o),
(394,579,cs)
);
}
);
width = 651;
},
{
layerId = m004;
shapes = (
{
closed = 1;
nodes = (
(170,136,o),
(210,176,o),
(210,226,cs),
(210,276,o),
(170,316,o),
(120,316,cs),
(70,316,o),
(30,276,o),
(30,226,cs),
(30,176,o),
(70,136,o),
(120,136,cs)
);
},
{
closed = 1;
nodes = (
(170,-45,o),
(210,-5,o),
(210,45,cs),
(210,95,o),
(170,135,o),
(120,135,cs),
(70,135,o),
(30,95,o),
(30,45,cs),
(30,-5,o),
(70,-45,o),
(120,-45,cs)
);
},
{
closed = 1;
nodes = (
(308,-45,o),
(347,-5,o),
(347,45,cs),
(347,95,o),
(308,135,o),
(257,135,cs),
(207,135,o),
(167,95,o),
(167,45,cs),
(167,-5,o),
(207,-45,o),
(257,-45,cs)
);
},
{
closed = 1;
nodes = (
(444,-45,o),
(484,-6,o),
(484,45,cs),
(484,95,o),
(444,135,o),
(394,135,cs),
(344,135,o),
(304,95,o),
(304,45,cs),
(304,-6,o),
(344,-45,o),
(394,-45,cs)
);
},
{
closed = 1;
nodes = (
(581,136,o),
(621,176,o),
(621,226,cs),
(621,276,o),
(581,316,o),
(531,316,cs),
(481,316,o),
(441,276,o),
(441,226,cs),
(441,176,o),
(481,136,o),
(531,136,cs)
);
},
{
closed = 1;
nodes = (
(170,317,o),
(210,357,o),
(210,407,cs),
(210,457,o),
(170,497,o),
(120,497,cs),
(70,497,o),
(30,457,o),
(30,407,cs),
(30,357,o),
(70,317,o),
(120,317,cs)
);
},
{
closed = 1;
nodes = (
(307,317,o),
(347,357,o),
(347,407,cs),
(347,457,o),
(307,497,o),
(257,497,cs),
(207,497,o),
(167,457,o),
(167,407,cs),
(167,357,o),
(207,317,o),
(257,317,cs)
);
},
{
closed = 1;
nodes = (
(444,317,o),
(484,357,o),
(484,407,cs),
(484,457,o),
(444,497,o),
(394,497,cs),
(344,497,o),
(304,457,o),
(304,407,cs),
(304,357,o),
(344,317,o),
(394,317,cs)
);
},
{
closed = 1;
nodes = (
(170,679,o),
(210,719,o),
(210,769,cs),
(210,819,o),
(170,859,o),
(120,859,cs),
(70,859,o),
(30,819,o),
(30,769,cs),
(30,719,o),
(70,679,o),
(120,679,cs)
);
},
{
closed = 1;
nodes = (
(170,498,o),
(210,538,o),
(210,588,cs),
(210,638,o),
(170,678,o),
(120,678,cs),
(70,678,o),
(30,638,o),
(30,588,cs),
(30,538,o),
(70,498,o),
(120,498,cs)
);
},
{
closed = 1;
nodes = (
(581,498,o),
(621,537,o),
(621,588,cs),
(621,638,o),
(581,678,o),
(531,678,cs),
(481,678,o),
(441,638,o),
(441,588,cs),
(441,537,o),
(481,498,o),
(531,498,cs)
);
},
{
closed = 1;
nodes = (
(307,679,o),
(347,719,o),
(347,769,cs),
(347,819,o),
(307,859,o),
(257,859,cs),
(207,859,o),
(167,819,o),
(167,769,cs),
(167,719,o),
(207,679,o),
(257,679,cs)
);
},
{
closed = 1;
nodes = (
(444,679,o),
(484,719,o),
(484,769,cs),
(484,819,o),
(444,859,o),
(394,859,cs),
(344,859,o),
(304,819,o),
(304,769,cs),
(304,719,o),
(344,679,o),
(394,679,cs)
);
}
);
width = 651;
}
);
unicode = 66;
}
{
glyphname = G;
layers = (
{
layerId = m01;
shapes = (
{
closed = 1;
nodes = (
(556,362,o),
(576,381,o),
(576,407,cs),
(576,432,o),
(556,452,o),
(531,452,cs),
(506,452,o),
(486,432,o),
(486,407,cs),
(486,381,o),
(506,362,o),
(531,362,cs)
);
},
{
closed = 1;
nodes = (
(145,181,o),
(165,201,o),
(165,226,cs),
(165,251,o),
(145,271,o),
(120,271,cs),
(95,271,o),
(75,251,o),
(75,226,cs),
(75,201,o),
(95,181,o),
(120,181,cs)
);
},
{
closed = 1;
nodes = (
(283,0,o),
(302,20,o),
(302,45,cs),
(302,70,o),
(283,90,o),
(257,90,cs),
(232,90,o),
(212,70,o),
(212,45,cs),
(212,20,o),
(232,0,o),
(257,0,cs)
);
},
{
closed = 1;
nodes = (
(419,0,o),
(439,19,o),
(439,45,cs),
(439,70,o),
(419,90,o),
(394,90,cs),
(369,90,o),
(349,70,o),
(349,45,cs),
(349,19,o),
(369,0,o),
(394,0,cs)
);
},
{
closed = 1;
nodes = (
(556,181,o),
(576,201,o),
(576,226,cs),
(576,251,o),
(556,271,o),
(531,271,cs),
(506,271,o),
(486,251,o),
(486,226,cs),
(486,201,o),
(506,181,o),
(531,181,cs)
);
},
{
closed = 1;
nodes = (
(145,362,o),
(165,382,o),
(165,407,cs),
(165,432,o),
(145,452,o),
(120,452,cs),
(95,452,o),
(75,432,o),
(75,407,cs),
(75,382,o),
(95,362,o),
(120,362,cs)
);
},
{
closed = 1;
nodes = (
(419,362,o),
(439,382,o),
(439,407,cs),
(439,432,o),
(419,452,o),
(394,452,cs),
(369,452,o),
(349,432,o),
(349,407,cs),
(349,382,o),
(369,362,o),
(394,362,cs)
);
},
{
closed = 1;
nodes = (
(145,543,o),
(165,563,o),
(165,588,cs),
(165,613,o),
(145,633,o),
(120,633,cs),
(95,633,o),
(75,613,o),
(75,588,cs),
(75,563,o),
(95,543,o),
(120,543,cs)
);
},
{
closed = 1;
nodes = (
(282,724,o),
(302,744,o),
(302,769,cs),
(302,794,o),
(282,814,o),
(257,814,cs),
(232,814,o),
(212,794,o),
(212,769,cs),
(212,744,o),
(232,724,o),
(257,724,cs)
);
},
{
closed = 1;
nodes = (
(419,724,o),
(439,744,o),
(439,769,cs),
(439,794,o),
(419,814,o),
(394,814,cs),
(369,814,o),
(349,794,o),
(349,769,cs),
(349,744,o),
(369,724,o),
(394,724,cs)
);
},
{
closed = 1;
nodes = (
(556,0,o),
(576,19,o),
(576,45,cs),
(576,70,o),
(556,90,o),
(531,90,cs),
(506,90,o),
(486,70,o),
(486,45,cs),
(486,19,o),
(506,0,o),
(531,0,cs)
);
}
);
width = 651;
},
{
layerId = m003;
shapes = (
{
closed = 1;
nodes = (
(636,217,o),
(721,301,o),
(721,407,cs),
(721,512,o),
(636,597,o),
(531,597,cs),
(426,597,o),
(341,512,o),
(341,407,cs),
(341,301,o),
(426,217,o),
(531,217,cs)
);
},
{
closed = 1;
nodes = (
(225,36,o),
(310,121,o),
(310,226,cs),
(310,331,o),
(225,416,o),
(120,416,cs),
(15,416,o),
(-70,331,o),
(-70,226,cs),
(-70,121,o),
(15,36,o),
(120,36,cs)
);
},
{
closed = 1;
nodes = (
(363,-145,o),
(447,-60,o),
(447,45,cs),
(447,150,o),
(363,235,o),
(257,235,cs),
(152,235,o),
(67,150,o),
(67,45,cs),
(67,-60,o),
(152,-145,o),
(257,-145,cs)
);
},
{
closed = 1;
nodes = (
(499,-145,o),
(584,-61,o),
(584,45,cs),
(584,150,o),
(499,235,o),
(394,235,cs),
(289,235,o),
(204,150,o),
(204,45,cs),
(204,-61,o),
(289,-145,o),
(394,-145,cs)
);
},
{
closed = 1;
nodes = (
(636,36,o),
(721,121,o),
(721,226,cs),
(721,331,o),
(636,416,o),
(531,416,cs),
(426,416,o),
(341,331,o),
(341,226,cs),
(341,121,o),
(426,36,o),
(531,36,cs)
);
},
{
closed = 1;
nodes = (
(225,217,o),
(310,302,o),
(310,407,cs),
(310,512,o),
(225,597,o),
(120,597,cs),
(15,597,o),
(-70,512,o),
(-70,407,cs),
(-70,302,o),
(15,217,o),
(120,217,cs)
);
},
{
closed = 1;
nodes = (
(499,217,o),
(584,302,o),
(584,407,cs),
(584,512,o),
(499,597,o),
(394,597,cs),
(289,597,o),
(204,512,o),
(204,407,cs),
(204,302,o),
(289,217,o),
(394,217,cs)
);
},
{
closed = 1;
nodes = (
(225,398,o),
(310,483,o),
(310,588,cs),
(310,693,o),
(225,778,o),
(120,778,cs),
(15,778,o),
(-70,693,o),
(-70,588,cs),
(-70,483,o),
(15,398,o),
(120,398,cs)
);
},
{
closed = 1;
nodes = (
(362,579,o),
(447,664,o),
(447,769,cs),
(447,874,o),
(362,959,o),
(257,959,cs),
(152,959,o),
(67,874,o),
(67,769,cs),
(67,664,o),
(152,579,o),
(257,579,cs)
);
},
{
closed = 1;
nodes = (
(499,579,o),
(584,664,o),
(584,769,cs),
(584,874,o),
(499,959,o),
(394,959,cs),
(289,959,o),
(204,874,o),
(204,769,cs),
(204,664,o),
(289,579,o),
(394,579,cs)
);
},
{
closed = 1;
nodes = (
(636,-145,o),
(721,-61,o),
(721,45,cs),
(721,150,o),
(636,235,o),
(531,235,cs),
(426,235,o),
(341,150,o),
(341,45,cs),
(341,-61,o),
(426,-145,o),
(531,-145,cs)
);
}
);
width = 651;
},
{
layerId = m004;
shapes = (
{
closed = 1;
nodes = (
(581,317,o),
(621,356,o),
(621,407,cs),
(621,457,o),
(581,497,o),
(531,497,cs),
(481,497,o),
(441,457,o),
(441,407,cs),
(441,356,o),
(481,317,o),
(531,317,cs)
);
},
{
closed = 1;
nodes = (
(170,136,o),
(210,176,o),
(210,226,cs),
(210,276,o),
(170,316,o),
(120,316,cs),
(70,316,o),
(30,276,o),
(30,226,cs),
(30,176,o),
(70,136,o),
(120,136,cs)
);
},
{
closed = 1;
nodes = (
(308,-45,o),
(347,-5,o),
(347,45,cs),
(347,95,o),
(308,135,o),
(257,135,cs),
(207,135,o),
(167,95,o),
(167,45,cs),
(167,-5,o),
(207,-45,o),
(257,-45,cs)
);
},
{
closed = 1;
nodes = (
(444,-45,o),
(484,-6,o),
(484,45,cs),
(484,95,o),
(444,135,o),
(394,135,cs),
(344,135,o),
(304,95,o),
(304,45,cs),
(304,-6,o),
(344,-45,o),
(394,-45,cs)
);
},
{
closed = 1;
nodes = (
(581,136,o),
(621,176,o),
(621,226,cs),
(621,276,o),
(581,316,o),
(531,316,cs),
(481,316,o),
(441,276,o),
(441,226,cs),
(441,176,o),
(481,136,o),
(531,136,cs)
);
},
{
closed = 1;
nodes = (
(170,317,o),
(210,357,o),
(210,407,cs),
(210,457,o),
(170,497,o),
(120,497,cs),
(70,497,o),
(30,457,o),
(30,407,cs),
(30,357,o),
(70,317,o),
(120,317,cs)
);
},
{
closed = 1;
nodes = (
(444,317,o),
(484,357,o),
(484,407,cs),
(484,457,o),
(444,497,o),
(394,497,cs),
(344,497,o),
(304,457,o),
(304,407,cs),
(304,357,o),
(344,317,o),
(394,317,cs)
);
},
{
closed = 1;
nodes = (
(170,498,o),
(210,538,o),
(210,588,cs),
(210,638,o),
(170,678,o),
(120,678,cs),
(70,678,o),
(30,638,o),
(30,588,cs),
(30,538,o),
(70,498,o),
(120,498,cs)
);
},
{
closed = 1;
nodes = (
(307,679,o),
(347,719,o),
(347,769,cs),
(347,819,o),
(307,859,o),
(257,859,cs),
(207,859,o),
(167,819,o),
(167,769,cs),
(167,719,o),
(207,679,o),
(257,679,cs)
);
},
{
closed = 1;
nodes = (
(444,679,o),
(484,719,o),
(484,769,cs),
(484,819,o),
(444,859,o),
(394,859,cs),
(344,859,o),
(304,819,o),
(304,769,cs),
(304,719,o),
(344,679,o),
(394,679,cs)
);
},
{
closed = 1;
nodes = (
(581,-45,o),
(621,-6,o),
(621,45,cs),
(621,95,o),
(581,135,o),
(531,135,cs),
(481,135,o),
(441,95,o),
(441,45,cs),
(441,-6,o),
(481,-45,o),
(531,-45,cs)
);
}
);
width = 651;
}
);
unicode = 71;
}
{
glyphname = I;
layers = (
{
layerId = m01;
shapes = (
{
closed = 1;
nodes = (
(145,0,o),
(165,20,o),
(165,45,cs),
(165,70,o),
(145,90,o),
(120,90,cs),
(95,90,o),
(75,70,o),
(75,45,cs),
(75,20,o),
(95,0,o),
(120,0,cs)
);
},
{
closed = 1;
nodes = (
(283,0,o),
(302,20,o),
(302,45,cs),
(302,70,o),
(283,90,o),
(257,90,cs),
(232,90,o),
(212,70,o),
(212,45,cs),
(212,20,o),
(232,0,o),
(257,0,cs)
);
},
{
closed = 1;
nodes = (
(419,0,o),
(439,20,o),
(439,45,cs),
(439,70,o),
(419,90,o),
(394,90,cs),
(368,90,o),
(349,70,o),
(349,45,cs),
(349,20,o),
(368,0,o),
(394,0,cs)
);
},
{
closed = 1;
nodes = (
(282,181,o),
(302,201,o),
(302,226,cs),
(302,251,o),
(282,271,o),
(257,271,cs),
(232,271,o),
(212,251,o),
(212,226,cs),
(212,201,o),
(232,181,o),
(257,181,cs)
);
},
{
closed = 1;
nodes = (
(282,362,o),
(302,382,o),
(302,407,cs),
(302,432,o),
(282,452,o),
(257,452,cs),
(232,452,o),
(212,432,o),
(212,407,cs),
(212,382,o),
(232,362,o),
(257,362,cs)
);
},
{
closed = 1;
nodes = (
(145,724,o),
(165,744,o),
(165,769,cs),
(165,794,o),
(145,814,o),
(120,814,cs),
(95,814,o),
(75,794,o),
(75,769,cs),
(75,744,o),
(95,724,o),
(120,724,cs)
);
},
{
closed = 1;
nodes = (
(283,543,o),
(302,563,o),
(302,588,cs),
(302,613,o),
(283,633,o),
(257,633,cs),
(232,633,o),
(212,613,o),
(212,588,cs),
(212,563,o),
(232,543,o),
(257,543,cs)
);
},
{
closed = 1;
nodes = (
(282,724,o),
(302,744,o),
(302,769,cs),
(302,794,o),
(282,814,o),
(257,814,cs),
(232,814,o),
(212,794,o),
(212,769,cs),
(212,744,o),
(232,724,o),
(257,724,cs)
);
},
{
closed = 1;
nodes = (
(419,724,o),
(439,744,o),
(439,769,cs),
(439,794,o),
(419,814,o),
(394,814,cs),
(369,814,o),
(349,794,o),
(349,769,cs),
(349,744,o),
(369,724,o),
(394,724,cs)
);
}
);
width = 514;
},
{
layerId = m003;
shapes = (
{
closed = 1;
nodes = (
(225,-145,o),
(310,-60,o),
(310,45,cs),
(310,150,o),
(225,235,o),
(120,235,cs),
(15,235,o),
(-70,150,o),
(-70,45,cs),
(-70,-60,o),
(15,-145,o),
(120,-145,cs)
);
},
{
closed = 1;
nodes = (
(363,-145,o),
(447,-60,o),
(447,45,cs),
(447,150,o),
(363,235,o),
(257,235,cs),
(152,235,o),
(67,150,o),
(67,45,cs),
(67,-60,o),
(152,-145,o),
(257,-145,cs)
);
},
{
closed = 1;
nodes = (
(499,-145,o),
(584,-60,o),
(584,45,cs),
(584,150,o),
(499,235,o),
(394,235,cs),
(288,235,o),
(204,150,o),
(204,45,cs),
(204,-60,o),
(288,-145,o),
(394,-145,cs)
);
},
{
closed = 1;
nodes = (
(362,36,o),
(447,121,o),
(447,226,cs),
(447,331,o),
(362,416,o),
(257,416,cs),
(152,416,o),
(67,331,o),
(67,226,cs),
(67,121,o),
(152,36,o),
(257,36,cs)
);
},
{
closed = 1;
nodes = (
(362,217,o),
(447,302,o),
(447,407,cs),
(447,512,o),
(362,597,o),
(257,597,cs),
(152,597,o),
(67,512,o),
(67,407,cs),
(67,302,o),
(152,217,o),
(257,217,cs)
);
},
{
closed = 1;
nodes = (
(225,579,o),
(310,664,o),
(310,769,cs),
(310,874,o),
(225,959,o),
(120,959,cs),
(15,959,o),
(-70,874,o),
(-70,769,cs),
(-70,664,o),
(15,579,o),
(120,579,cs)
);
},
{
closed = 1;
nodes = (
(363,398,o),
(447,483,o),
(447,588,cs),
(447,693,o),
(363,778,o),
(257,778,cs),
(152,778,o),
(67,693,o),
(67,588,cs),
(67,483,o),
(152,398,o),
(257,398,cs)
);
},
{
closed = 1;
nodes = (
(362,579,o),
(447,664,o),
(447,769,cs),
(447,874,o),
(362,959,o),
(257,959,cs),
(152,959,o),
(67,874,o),
(67,769,cs),
(67,664,o),
(152,579,o),
(257,579,cs)
);
},
{
closed = 1;
nodes = (
(499,579,o),
(584,664,o),
(584,769,cs),
(584,874,o),
(499,959,o),
(394,959,cs),
(289,959,o),
(204,874,o),
(204,769,cs),
(204,664,o),
(289,579,o),
(394,579,cs)
);
}
);
width = 514;
},
{
layerId = m004;
shapes = (
{
closed = 1;
nodes = (
(170,-45,o),
(210,-5,o),
(210,45,cs),
(210,95,o),
(170,135,o),
(120,135,cs),
(70,135,o),
(30,95,o),
(30,45,cs),
(30,-5,o),
(70,-45,o),
(120,-45,cs)
);
},
{
closed = 1;
nodes = (
(308,-45,o),
(347,-5,o),
(347,45,cs),
(347,95,o),
(308,135,o),
(257,135,cs),
(207,135,o),
(167,95,o),
(167,45,cs),
(167,-5,o),
(207,-45,o),
(257,-45,cs)
);
},
{
closed = 1;
nodes = (
(444,-45,o),
(484,-5,o),
(484,45,cs),
(484,95,o),
(444,135,o),
(394,135,cs),
(343,135,o),
(304,95,o),
(304,45,cs),
(304,-5,o),
(343,-45,o),
(394,-45,cs)
);
},
{
closed = 1;
nodes = (
(307,136,o),
(347,176,o),
(347,226,cs),
(347,276,o),
(307,316,o),
(257,316,cs),
(207,316,o),
(167,276,o),
(167,226,cs),
(167,176,o),
(207,136,o),
(257,136,cs)
);
},
{
closed = 1;
nodes = (
(307,317,o),
(347,357,o),
(347,407,cs),
(347,457,o),
(307,497,o),
(257,497,cs),
(207,497,o),
(167,457,o),
(167,407,cs),
(167,357,o),
(207,317,o),
(257,317,cs)
);
},
{
closed = 1;
nodes = (
(170,679,o),
(210,719,o),
(210,769,cs),
(210,819,o),
(170,859,o),
(120,859,cs),
(70,859,o),
(30,819,o),
(30,769,cs),
(30,719,o),
(70,679,o),
(120,679,cs)
);
},
{
closed = 1;
nodes = (
(308,498,o),
(347,538,o),
(347,588,cs),
(347,638,o),
(308,678,o),
(257,678,cs),
(207,678,o),
(167,638,o),
(167,588,cs),
(167,538,o),
(207,498,o),
(257,498,cs)
);
},
{
closed = 1;
nodes = (
(307,679,o),
(347,719,o),
(347,769,cs),
(347,819,o),
(307,859,o),
(257,859,cs),
(207,859,o),
(167,819,o),
(167,769,cs),
(167,719,o),
(207,679,o),
(257,679,cs)
);
},
{
closed = 1;
nodes = (
(444,679,o),
(484,719,o),
(484,769,cs),
(484,819,o),
(444,859,o),
(394,859,cs),
(344,859,o),
(304,819,o),
(304,769,cs),
(304,719,o),
(344,679,o),
(394,679,cs)
);
}
);
width = 514;
}
);
unicode = 73;
}
{
glyphname = K;
layers = (
{
layerId = m01;
shapes = (
{
closed = 1;
nodes = (
(145,181,o),
(165,201,o),
(165,226,cs),
(165,251,o),
(145,271,o),
(120,271,cs),
(95,271,o),
(75,251,o),
(75,226,cs),
(75,201,o),
(95,181,o),
(120,181,cs)
);
},
{
closed = 1;
nodes = (
(145,0,o),
(165,20,o),
(165,45,cs),
(165,70,o),
(145,90,o),
(120,90,cs),
(95,90,o),
(75,70,o),
(75,45,cs),
(75,20,o),
(95,0,o),
(120,0,cs)
);
},
{
closed = 1;
nodes = (
(693,0,o),
(713,19,o),
(713,45,cs),
(713,70,o),
(693,90,o),
(668,90,cs),
(643,90,o),
(623,70,o),
(623,45,cs),
(623,19,o),
(643,0,o),
(668,0,cs)
);
},
{
closed = 1;
nodes = (
(556,181,o),
(576,201,o),
(576,226,cs),
(576,251,o),
(556,271,o),
(531,271,cs),
(506,271,o),
(486,251,o),
(486,226,cs),
(486,201,o),
(506,181,o),
(531,181,cs)
);
},
{
closed = 1;
nodes = (
(145,362,o),
(165,382,o),
(165,407,cs),
(165,432,o),
(145,452,o),
(120,452,cs),
(95,452,o),
(75,432,o),
(75,407,cs),
(75,382,o),
(95,362,o),
(120,362,cs)
);
},
{
closed = 1;
nodes = (
(282,362,o),
(302,382,o),
(302,407,cs),
(302,432,o),
(282,452,o),
(257,452,cs),
(232,452,o),
(212,432,o),
(212,407,cs),
(212,382,o),
(232,362,o),
(257,362,cs)
);
},
{
closed = 1;
nodes = (
(419,362,o),
(439,382,o),
(439,407,cs),
(439,432,o),
(419,452,o),
(394,452,cs),
(369,452,o),
(349,432,o),
(349,407,cs),
(349,382,o),
(369,362,o),
(394,362,cs)
);
},
{
closed = 1;
nodes = (
(145,724,o),
(165,744,o),
(165,769,cs),
(165,794,o),
(145,814,o),
(120,814,cs),
(95,814,o),
(75,794,o),
(75,769,cs),
(75,744,o),
(95,724,o),
(120,724,cs)
);
},
{
closed = 1;
nodes = (
(145,543,o),
(165,563,o),
(165,588,cs),
(165,613,o),
(145,633,o),
(120,633,cs),
(95,633,o),
(75,613,o),
(75,588,cs),
(75,563,o),
(95,543,o),
(120,543,cs)
);
},
{
closed = 1;
nodes = (
(556,543,o),
(576,562,o),
(576,588,cs),
(576,613,o),
(556,633,o),
(531,633,cs),
(506,633,o),
(486,613,o),
(486,588,cs),
(486,562,o),
(506,543,o),
(531,543,cs)
);
},
{
closed = 1;
nodes = (
(693,724,o),
(713,744,o),
(713,769,cs),
(713,794,o),
(693,814,o),
(668,814,cs),
(643,814,o),
(623,794,o),
(623,769,cs),
(623,744,o),
(643,724,o),
(668,724,cs)
);
}
);
width = 788;
},
{
layerId = m003;
shapes = (
{
closed = 1;
nodes = (
(225,36,o),
(310,121,o),
(310,226,cs),
(310,331,o),
(225,416,o),
(120,416,cs),
(15,416,o),
(-70,331,o),
(-70,226,cs),
(-70,121,o),
(15,36,o),
(120,36,cs)
);
},
{
closed = 1;
nodes = (
(225,-145,o),
(310,-60,o),
(310,45,cs),
(310,150,o),
(225,235,o),
(120,235,cs),
(15,235,o),
(-70,150,o),
(-70,45,cs),
(-70,-60,o),
(15,-145,o),
(120,-145,cs)
);
},
{
closed = 1;
nodes = (
(773,-145,o),
(858,-61,o),
(858,45,cs),
(858,150,o),
(773,235,o),
(668,235,cs),
(563,235,o),
(478,150,o),
(478,45,cs),
(478,-61,o),
(563,-145,o),
(668,-145,cs)
);
},
{
closed = 1;
nodes = (
(636,36,o),
(721,121,o),
(721,226,cs),
(721,331,o),
(636,416,o),
(531,416,cs),
(426,416,o),
(341,331,o),
(341,226,cs),
(341,121,o),
(426,36,o),
(531,36,cs)
);
},
{
closed = 1;
nodes = (
(225,217,o),
(310,302,o),
(310,407,cs),
(310,512,o),
(225,597,o),
(120,597,cs),
(15,597,o),
(-70,512,o),
(-70,407,cs),
(-70,302,o),
(15,217,o),
(120,217,cs)
);
},
{
closed = 1;
nodes = (
(362,217,o),
(447,302,o),
(447,407,cs),
(447,512,o),
(362,597,o),
(257,597,cs),
(152,597,o),
(67,512,o),
(67,407,cs),
(67,302,o),
(152,217,o),
(257,217,cs)
);
},
{
closed = 1;
nodes = (
(499,217,o),
(584,302,o),
(584,407,cs),
(584,512,o),
(499,597,o),
(394,597,cs),
(289,597,o),
(204,512,o),
(204,407,cs),
(204,302,o),
(289,217,o),
(394,217,cs)
);
},
{
closed = 1;
nodes = (
(225,579,o),
(310,664,o),
(310,769,cs),
(310,874,o),
(225,959,o),
(120,959,cs),
(15,959,o),
(-70,874,o),
(-70,769,cs),
(-70,664,o),
(15,579,o),
(120,579,cs)
);
},
{
closed = 1;
nodes = (
(225,398,o),
(310,483,o),
(310,588,cs),
(310,693,o),
(225,778,o),
(120,778,cs),
(15,778,o),
(-70,693,o),
(-70,588,cs),
(-70,483,o),
(15,398,o),
(120,398,cs)
);
},
{
closed = 1;
nodes = (
(636,398,o),
(721,482,o),
(721,588,cs),
(721,693,o),
(636,778,o),
(531,778,cs),
(426,778,o),
(341,693,o),
(341,588,cs),
(341,482,o),
(426,398,o),
(531,398,cs)
);
},
{
closed = 1;
nodes = (
(773,579,o),
(858,664,o),
(858,769,cs),
(858,874,o),
(773,959,o),
(668,959,cs),
(563,959,o),
(478,874,o),
(478,769,cs),
(478,664,o),
(563,579,o),
(668,579,cs)
);
}
);
width = 788;
},
{
layerId = m004;
shapes = (
{
closed = 1;
nodes = (
(170,136,o),
(210,176,o),
(210,226,cs),
(210,276,o),
(170,316,o),
(120,316,cs),
(70,316,o),
(30,276,o),
(30,226,cs),
(30,176,o),
(70,136,o),
(120,136,cs)
);
},
{
closed = 1;
nodes = (
(170,-45,o),
(210,-5,o),
(210,45,cs),
(210,95,o),
(170,135,o),
(120,135,cs),
(70,135,o),
(30,95,o),
(30,45,cs),
(30,-5,o),
(70,-45,o),
(120,-45,cs)
);
},
{
closed = 1;
nodes = (
(718,-45,o),
(758,-6,o),
(758,45,cs),
(758,95,o),
(718,135,o),
(668,135,cs),
(618,135,o),
(578,95,o),
(578,45,cs),
(578,-6,o),
(618,-45,o),
(668,-45,cs)
);
},
{
closed = 1;
nodes = (
(581,136,o),
(621,176,o),
(621,226,cs),
(621,276,o),
(581,316,o),
(531,316,cs),
(481,316,o),
(441,276,o),
(441,226,cs),
(441,176,o),
(481,136,o),
(531,136,cs)
);
},
{
closed = 1;
nodes = (
(170,317,o),
(210,357,o),
(210,407,cs),
(210,457,o),
(170,497,o),
(120,497,cs),
(70,497,o),
(30,457,o),
(30,407,cs),
(30,357,o),
(70,317,o),
(120,317,cs)
);
},
{
closed = 1;
nodes = (
(307,317,o),
(347,357,o),
(347,407,cs),
(347,457,o),
(307,497,o),
(257,497,cs),
(207,497,o),
(167,457,o),
(167,407,cs),
(167,357,o),
(207,317,o),
(257,317,cs)
);
},
{
closed = 1;
nodes = (
(444,317,o),
(484,357,o),
(484,407,cs),
(484,457,o),
(444,497,o),
(394,497,cs),
(344,497,o),
(304,457,o),
(304,407,cs),
(304,357,o),
(344,317,o),
(394,317,cs)
);
},
{
closed = 1;
nodes = (
(170,679,o),
(210,719,o),
(210,769,cs),
(210,819,o),
(170,859,o),
(120,859,cs),
(70,859,o),
(30,819,o),
(30,769,cs),
(30,719,o),
(70,679,o),
(120,679,cs)
);
},
{
closed = 1;
nodes = (
(170,498,o),
(210,538,o),
(210,588,cs),
(210,638,o),
(170,678,o),
(120,678,cs),
(70,678,o),
(30,638,o),
(30,588,cs),
(30,538,o),
(70,498,o),
(120,498,cs)
);
},
{
closed = 1;
nodes = (
(581,498,o),
(621,537,o),
(621,588,cs),
(621,638,o),
(581,678,o),
(531,678,cs),
(481,678,o),
(441,638,o),
(441,588,cs),
(441,537,o),
(481,498,o),
(531,498,cs)
);
},
{
closed = 1;
nodes = (
(718,679,o),
(758,719,o),
(758,769,cs),
(758,819,o),
(718,859,o),
(668,859,cs),
(618,859,o),
(578,819,o),
(578,769,cs),
(578,719,o),
(618,679,o),
(668,679,cs)
);
}
);
width = 788;
}
);
unicode = 75;
}
{
glyphname = M;
layers = (
{
layerId = m01;
shapes = (
{
closed = 1;
nodes = (
(693,362,o),
(713,381,o),
(713,407,cs),
(713,432,o),
(693,452,o),
(668,452,cs),
(643,452,o),
(623,432,o),
(623,407,cs),
(623,381,o),
(643,362,o),
(668,362,cs)
);
},
{
closed = 1;
nodes = (
(145,181,o),
(165,201,o),
(165,226,cs),
(165,251,o),
(145,271,o),
(120,271,cs),
(95,271,o),
(75,251,o),
(75,226,cs),
(75,201,o),
(95,181,o),
(120,181,cs)
);
},
{
closed = 1;
nodes = (
(145,0,o),
(165,20,o),
(165,45,cs),
(165,70,o),
(145,90,o),
(120,90,cs),
(95,90,o),
(75,70,o),
(75,45,cs),
(75,20,o),
(95,0,o),
(120,0,cs)
);
},
{
closed = 1;
nodes = (
(419,0,o),
(439,20,o),
(439,45,cs),
(439,70,o),
(419,90,o),
(394,90,cs),
(368,90,o),
(349,70,o),
(349,45,cs),
(349,20,o),
(368,0,o),
(394,0,cs)
);
},
{
closed = 1;
nodes = (
(693,0,o),
(713,19,o),
(713,45,cs),
(713,70,o),
(693,90,o),
(668,90,cs),
(643,90,o),
(623,70,o),
(623,45,cs),
(623,19,o),
(643,0,o),
(668,0,cs)
);
},
{
closed = 1;
nodes = (
(419,181,o),
(439,201,o),
(439,226,cs),
(439,251,o),
(419,271,o),
(394,271,cs),
(369,271,o),
(349,251,o),
(349,226,cs),
(349,201,o),
(369,181,o),
(394,181,cs)
);
},
{
closed = 1;
nodes = (
(693,181,o),
(713,201,o),
(713,226,cs),
(713,251,o),
(693,271,o),
(668,271,cs),
(643,271,o),
(623,251,o),
(623,226,cs),
(623,201,o),
(643,181,o),
(668,181,cs)
);
},
{
closed = 1;
nodes = (
(145,362,o),
(165,382,o),
(165,407,cs),
(165,432,o),
(145,452,o),
(120,452,cs),
(95,452,o),
(75,432,o),
(75,407,cs),
(75,382,o),
(95,362,o),
(120,362,cs)
);
},
{
closed = 1;
nodes = (
(419,362,o),
(439,382,o),
(439,407,cs),
(439,432,o),
(419,452,o),
(394,452,cs),
(369,452,o),
(349,432,o),
(349,407,cs),
(349,382,o),
(369,362,o),
(394,362,cs)
);
},
{
closed = 1;
nodes = (
(145,543,o),
(165,563,o),
(165,588,cs),
(165,613,o),
(145,633,o),
(120,633,cs),
(95,633,o),
(75,613,o),
(75,588,cs),
(75,563,o),
(95,543,o),
(120,543,cs)
);
},
{
closed = 1;
nodes = (
(419,543,o),
(439,563,o),
(439,588,cs),
(439,613,o),
(419,633,o),
(394,633,cs),
(368,633,o),
(349,613,o),
(349,588,cs),
(349,563,o),
(368,543,o),
(394,543,cs)
);
},
{
closed = 1;
nodes = (
(693,543,o),
(713,562,o),
(713,588,cs),
(713,613,o),
(693,633,o),
(668,633,cs),
(643,633,o),
(623,613,o),
(623,588,cs),
(623,562,o),
(643,543,o),
(668,543,cs)
);
},
{
closed = 1;
nodes = (
(282,724,o),
(302,744,o),
(302,769,cs),
(302,794,o),
(282,814,o),
(257,814,cs),
(232,814,o),
(212,794,o),
(212,769,cs),
(212,744,o),
(232,724,o),
(257,724,cs)
);
},
{
closed = 1;
nodes = (
(556,724,o),
(576,744,o),
(576,769,cs),
(576,794,o),
(556,814,o),
(531,814,cs),
(506,814,o),
(486,794,o),
(486,769,cs),
(486,744,o),
(506,724,o),
(531,724,cs)
);
}
);
width = 788;
},
{
layerId = m003;
shapes = (
{
closed = 1;
nodes = (
(773,217,o),
(858,301,o),
(858,407,cs),
(858,512,o),
(773,597,o),
(668,597,cs),
(563,597,o),
(478,512,o),
(478,407,cs),
(478,301,o),
(563,217,o),
(668,217,cs)
);
},
{
closed = 1;
nodes = (
(225,36,o),
(310,121,o),
(310,226,cs),
(310,331,o),
(225,416,o),
(120,416,cs),
(15,416,o),
(-70,331,o),
(-70,226,cs),
(-70,121,o),
(15,36,o),
(120,36,cs)
);
},
{
closed = 1;
nodes = (
(225,-145,o),
(310,-60,o),
(310,45,cs),
(310,150,o),
(225,235,o),
(120,235,cs),
(15,235,o),
(-70,150,o),
(-70,45,cs),
(-70,-60,o),
(15,-145,o),
(120,-145,cs)
);
},
{
closed = 1;
nodes = (
(499,-145,o),
(584,-60,o),
(584,45,cs),
(584,150,o),
(499,235,o),
(394,235,cs),
(288,235,o),
(204,150,o),
(204,45,cs),
(204,-60,o),
(288,-145,o),
(394,-145,cs)
);
},
{
closed = 1;
nodes = (
(773,-145,o),
(858,-61,o),
(858,45,cs),
(858,150,o),
(773,235,o),
(668,235,cs),
(563,235,o),
(478,150,o),
(478,45,cs),
(478,-61,o),
(563,-145,o),
(668,-145,cs)
);
},
{
closed = 1;
nodes = (
(499,36,o),
(584,121,o),
(584,226,cs),
(584,331,o),
(499,416,o),
(394,416,cs),
(289,416,o),
(204,331,o),
(204,226,cs),
(204,121,o),
(289,36,o),
(394,36,cs)
);
},
{
closed = 1;
nodes = (
(773,36,o),
(858,121,o),
(858,226,cs),
(858,331,o),
(773,416,o),
(668,416,cs),
(563,416,o),
(478,331,o),
(478,226,cs),
(478,121,o),
(563,36,o),
(668,36,cs)
);
},
{
closed = 1;
nodes = (
(225,217,o),
(310,302,o),
(310,407,cs),
(310,512,o),
(225,597,o),
(120,597,cs),
(15,597,o),
(-70,512,o),
(-70,407,cs),
(-70,302,o),
(15,217,o),
(120,217,cs)
);
},
{
closed = 1;
nodes = (
(499,217,o),
(584,302,o),
(584,407,cs),
(584,512,o),
(499,597,o),
(394,597,cs),
(289,597,o),
(204,512,o),
(204,407,cs),
(204,302,o),
(289,217,o),
(394,217,cs)
);
},
{
closed = 1;
nodes = (
(225,398,o),
(310,483,o),
(310,588,cs),
(310,693,o),
(225,778,o),
(120,778,cs),
(15,778,o),
(-70,693,o),
(-70,588,cs),
(-70,483,o),
(15,398,o),
(120,398,cs)
);
},
{
closed = 1;
nodes = (
(499,398,o),
(584,483,o),
(584,588,cs),
(584,693,o),
(499,778,o),
(394,778,cs),
(288,778,o),
(204,693,o),
(204,588,cs),
(204,483,o),
(288,398,o),
(394,398,cs)
);
},
{
closed = 1;
nodes = (
(773,398,o),
(858,482,o),
(858,588,cs),
(858,693,o),
(773,778,o),
(668,778,cs),
(563,778,o),
(478,693,o),
(478,588,cs),
(478,482,o),
(563,398,o),
(668,398,cs)
);
},
{
closed = 1;
nodes = (
(362,579,o),
(447,664,o),
(447,769,cs),
(447,874,o),
(362,959,o),
(257,959,cs),
(152,959,o),
(67,874,o),
(67,769,cs),
(67,664,o),
(152,579,o),
(257,579,cs)
);
},
{
closed = 1;
nodes = (
(636,579,o),
(721,664,o),
(721,769,cs),
(721,874,o),
(636,959,o),
(531,959,cs),
(426,959,o),
(341,874,o),
(341,769,cs),
(341,664,o),
(426,579,o),
(531,579,cs)
);
}
);
width = 788;
},
{
layerId = m004;
shapes = (
{
closed = 1;
nodes = (
(718,317,o),
(758,356,o),
(758,407,cs),
(758,457,o),
(718,497,o),
(668,497,cs),
(618,497,o),
(578,457,o),
(578,407,cs),
(578,356,o),
(618,317,o),
(668,317,cs)
);
},
{
closed = 1;
nodes = (
(170,136,o),
(210,176,o),
(210,226,cs),
(210,276,o),
(170,316,o),
(120,316,cs),
(70,316,o),
(30,276,o),
(30,226,cs),
(30,176,o),
(70,136,o),
(120,136,cs)
);
},
{
closed = 1;
nodes = (
(170,-45,o),
(210,-5,o),
(210,45,cs),
(210,95,o),
(170,135,o),
(120,135,cs),
(70,135,o),
(30,95,o),
(30,45,cs),
(30,-5,o),
(70,-45,o),
(120,-45,cs)
);
},
{
closed = 1;
nodes = (
(444,-45,o),
(484,-5,o),
(484,45,cs),
(484,95,o),
(444,135,o),
(394,135,cs),
(343,135,o),
(304,95,o),
(304,45,cs),
(304,-5,o),
(343,-45,o),
(394,-45,cs)
);
},
{
closed = 1;
nodes = (
(718,-45,o),
(758,-6,o),
(758,45,cs),
(758,95,o),
(718,135,o),
(668,135,cs),
(618,135,o),
(578,95,o),
(578,45,cs),
(578,-6,o),
(618,-45,o),
(668,-45,cs)
);
},
{
closed = 1;
nodes = (
(444,136,o),
(484,176,o),
(484,226,cs),
(484,276,o),
(444,316,o),
(394,316,cs),
(344,316,o),
(304,276,o),
(304,226,cs),
(304,176,o),
(344,136,o),
(394,136,cs)
);
},
{
closed = 1;
nodes = (
(718,136,o),
(758,176,o),
(758,226,cs),
(758,276,o),
(718,316,o),
(668,316,cs),
(618,316,o),
(578,276,o),
(578,226,cs),
(578,176,o),
(618,136,o),
(668,136,cs)
);
},
{
closed = 1;
nodes = (
(170,317,o),
(210,357,o),
(210,407,cs),
(210,457,o),
(170,497,o),
(120,497,cs),
(70,497,o),
(30,457,o),
(30,407,cs),
(30,357,o),
(70,317,o),
(120,317,cs)
);
},
{
closed = 1;
nodes = (
(444,317,o),
(484,357,o),
(484,407,cs),
(484,457,o),
(444,497,o),
(394,497,cs),
(344,497,o),
(304,457,o),
(304,407,cs),
(304,357,o),
(344,317,o),
(394,317,cs)
);
},
{
closed = 1;
nodes = (
(170,498,o),
(210,538,o),
(210,588,cs),
(210,638,o),
(170,678,o),
(120,678,cs),
(70,678,o),
(30,638,o),
(30,588,cs),
(30,538,o),
(70,498,o),
(120,498,cs)
);
},
{
closed = 1;
nodes = (
(444,498,o),
(484,538,o),
(484,588,cs),
(484,638,o),
(444,678,o),
(394,678,cs),
(343,678,o),
(304,638,o),
(304,588,cs),
(304,538,o),
(343,498,o),
(394,498,cs)
);
},
{
closed = 1;
nodes = (
(718,498,o),
(758,537,o),
(758,588,cs),
(758,638,o),
(718,678,o),
(668,678,cs),
(618,678,o),
(578,638,o),
(578,588,cs),
(578,537,o),
(618,498,o),
(668,498,cs)
);
},
{
closed = 1;
nodes = (
(307,679,o),
(347,719,o),
(347,769,cs),
(347,819,o),
(307,859,o),
(257,859,cs),
(207,859,o),
(167,819,o),
(167,769,cs),
(167,719,o),
(207,679,o),
(257,679,cs)
);
},
{
closed = 1;
nodes = (
(581,679,o),
(621,719,o),
(621,769,cs),
(621,819,o),
(581,859,o),
(531,859,cs),
(481,859,o),
(441,819,o),
(441,769,cs),
(441,719,o),
(481,679,o),
(531,679,cs)
);
}
);
width = 788;
}
);
unicode = 77;
}
{
glyphname = N;
layers = (
{
layerId = m01;
shapes = (
{
closed = 1;
nodes = (
(693,362,o),
(713,381,o),
(713,407,cs),
(713,432,o),
(693,452,o),
(668,452,cs),
(643,452,o),
(623,432,o),
(623,407,cs),
(623,381,o),
(643,362,o),
(668,362,cs)
);
},
{
closed = 1;
nodes = (
(145,181,o),
(165,201,o),
(165,226,cs),
(165,251,o),
(145,271,o),
(120,271,cs),
(95,271,o),
(75,251,o),
(75,226,cs),
(75,201,o),
(95,181,o),
(120,181,cs)
);
},
{
closed = 1;
nodes = (
(145,0,o),
(165,20,o),
(165,45,cs),
(165,70,o),
(145,90,o),
(120,90,cs),
(95,90,o),
(75,70,o),
(75,45,cs),
(75,20,o),
(95,0,o),
(120,0,cs)
);
},
{
closed = 1;
nodes = (
(693,0,o),
(713,19,o),
(713,45,cs),
(713,70,o),
(693,90,o),
(668,90,cs),
(643,90,o),
(623,70,o),
(623,45,cs),
(623,19,o),
(643,0,o),
(668,0,cs)
);
},
{
closed = 1;
nodes = (
(556,181,o),
(576,201,o),
(576,226,cs),
(576,251,o),
(556,271,o),
(531,271,cs),
(506,271,o),
(486,251,o),
(486,226,cs),
(486,201,o),
(506,181,o),
(531,181,cs)
);
},
{
closed = 1;
nodes = (
(693,181,o),
(713,201,o),
(713,226,cs),
(713,251,o),
(693,271,o),
(668,271,cs),
(643,271,o),
(623,251,o),
(623,226,cs),
(623,201,o),
(643,181,o),
(668,181,cs)
);
},
{
closed = 1;
nodes = (
(145,362,o),
(165,382,o),
(165,407,cs),
(165,432,o),
(145,452,o),
(120,452,cs),
(95,452,o),
(75,432,o),
(75,407,cs),
(75,382,o),
(95,362,o),
(120,362,cs)
);
},
{
closed = 1;
nodes = (
(419,362,o),
(439,382,o),
(439,407,cs),
(439,432,o),
(419,452,o),
(394,452,cs),
(369,452,o),
(349,432,o),
(349,407,cs),
(349,382,o),
(369,362,o),
(394,362,cs)
);
},
{
closed = 1;
nodes = (
(145,724,o),
(165,744,o),
(165,769,cs),
(165,794,o),
(145,814,o),
(120,814,cs),
(95,814,o),
(75,794,o),
(75,769,cs),
(75,744,o),
(95,724,o),
(120,724,cs)
);
},
{
closed = 1;
nodes = (
(145,543,o),
(165,563,o),
(165,588,cs),
(165,613,o),
(145,633,o),
(120,633,cs),
(95,633,o),
(75,613,o),
(75,588,cs),
(75,563,o),
(95,543,o),
(120,543,cs)
);
},
{
closed = 1;
nodes = (
(283,543,o),
(302,563,o),
(302,588,cs),
(302,613,o),
(283,633,o),
(257,633,cs),
(232,633,o),
(212,613,o),
(212,588,cs),
(212,563,o),
(232,543,o),
(257,543,cs)
);
},
{
closed = 1;
nodes = (
(693,543,o),
(713,562,o),
(713,588,cs),
(713,613,o),
(693,633,o),
(668,633,cs),
(643,633,o),
(623,613,o),
(623,588,cs),
(623,562,o),
(643,543,o),
(668,543,cs)
);
},
{
closed = 1;
nodes = (
(693,724,o),
(713,744,o),
(713,769,cs),
(713,794,o),
(693,814,o),
(668,814,cs),
(643,814,o),
(623,794,o),
(623,769,cs),
(623,744,o),
(643,724,o),
(668,724,cs)
);
}
);
width = 788;
},
{
layerId = m003;
shapes = (
{
closed = 1;
nodes = (
(773,217,o),
(858,301,o),
(858,407,cs),
(858,512,o),
(773,597,o),
(668,597,cs),
(563,597,o),
(478,512,o),
(478,407,cs),
(478,301,o),
(563,217,o),
(668,217,cs)
);
},
{
closed = 1;
nodes = (
(225,36,o),
(310,121,o),
(310,226,cs),
(310,331,o),
(225,416,o),
(120,416,cs),
(15,416,o),
(-70,331,o),
(-70,226,cs),
(-70,121,o),
(15,36,o),
(120,36,cs)
);
},
{
closed = 1;
nodes = (
(225,-145,o),
(310,-60,o),
(310,45,cs),
(310,150,o),
(225,235,o),
(120,235,cs),
(15,235,o),
(-70,150,o),
(-70,45,cs),
(-70,-60,o),
(15,-145,o),
(120,-145,cs)
);
},
{
closed = 1;
nodes = (
(773,-145,o),
(858,-61,o),
(858,45,cs),
(858,150,o),
(773,235,o),
(668,235,cs),
(563,235,o),
(478,150,o),
(478,45,cs),
(478,-61,o),
(563,-145,o),
(668,-145,cs)
);
},
{
closed = 1;
nodes = (
(636,36,o),
(721,121,o),
(721,226,cs),
(721,331,o),
(636,416,o),
(531,416,cs),
(426,416,o),
(341,331,o),
(341,226,cs),
(341,121,o),
(426,36,o),
(531,36,cs)
);
},
{
closed = 1;
nodes = (
(773,36,o),
(858,121,o),
(858,226,cs),
(858,331,o),
(773,416,o),
(668,416,cs),
(563,416,o),
(478,331,o),
(478,226,cs),
(478,121,o),
(563,36,o),
(668,36,cs)
);
},
{
closed = 1;
nodes = (
(225,217,o),
(310,302,o),
(310,407,cs),
(310,512,o),
(225,597,o),
(120,597,cs),
(15,597,o),
(-70,512,o),
(-70,407,cs),
(-70,302,o),
(15,217,o),
(120,217,cs)
);
},
{
closed = 1;
nodes = (
(499,217,o),
(584,302,o),
(584,407,cs),
(584,512,o),
(499,597,o),
(394,597,cs),
(289,597,o),
(204,512,o),
(204,407,cs),
(204,302,o),
(289,217,o),
(394,217,cs)
);
},
{
closed = 1;
nodes = (
(225,579,o),
(310,664,o),
(310,769,cs),
(310,874,o),
(225,959,o),
(120,959,cs),
(15,959,o),
(-70,874,o),
(-70,769,cs),
(-70,664,o),
(15,579,o),
(120,579,cs)
);
},
{
closed = 1;
nodes = (
(225,398,o),
(310,483,o),
(310,588,cs),
(310,693,o),
(225,778,o),
(120,778,cs),
(15,778,o),
(-70,693,o),
(-70,588,cs),
(-70,483,o),
(15,398,o),
(120,398,cs)
);
},
{
closed = 1;
nodes = (
(363,398,o),
(447,483,o),
(447,588,cs),
(447,693,o),
(363,778,o),
(257,778,cs),
(152,778,o),
(67,693,o),
(67,588,cs),
(67,483,o),
(152,398,o),
(257,398,cs)
);
},
{
closed = 1;
nodes = (
(773,398,o),
(858,482,o),
(858,588,cs),
(858,693,o),
(773,778,o),
(668,778,cs),
(563,778,o),
(478,693,o),
(478,588,cs),
(478,482,o),
(563,398,o),
(668,398,cs)
);
},
{
closed = 1;
nodes = (
(773,579,o),
(858,664,o),
(858,769,cs),
(858,874,o),
(773,959,o),
(668,959,cs),
(563,959,o),
(478,874,o),
(478,769,cs),
(478,664,o),
(563,579,o),
(668,579,cs)
);
}
);
width = 788;
},
{
layerId = m004;
shapes = (
{
closed = 1;
nodes = (
(718,317,o),
(758,356,o),
(758,407,cs),
(758,457,o),
(718,497,o),
(668,497,cs),
(618,497,o),
(578,457,o),
(578,407,cs),
(578,356,o),
(618,317,o),
(668,317,cs)
);
},
{
closed = 1;
nodes = (
(170,136,o),
(210,176,o),
(210,226,cs),
(210,276,o),
(170,316,o),
(120,316,cs),
(70,316,o),
(30,276,o),
(30,226,cs),
(30,176,o),
(70,136,o),
(120,136,cs)
);
},
{
closed = 1;
nodes = (
(170,-45,o),
(210,-5,o),
(210,45,cs),
(210,95,o),
(170,135,o),
(120,135,cs),
(70,135,o),
(30,95,o),
(30,45,cs),
(30,-5,o),
(70,-45,o),
(120,-45,cs)
);
},
{
closed = 1;
nodes = (
(718,-45,o),
(758,-6,o),
(758,45,cs),
(758,95,o),
(718,135,o),
(668,135,cs),
(618,135,o),
(578,95,o),
(578,45,cs),
(578,-6,o),
(618,-45,o),
(668,-45,cs)
);
},
{
closed = 1;
nodes = (
(581,136,o),
(621,176,o),
(621,226,cs),
(621,276,o),
(581,316,o),
(531,316,cs),
(481,316,o),
(441,276,o),
(441,226,cs),
(441,176,o),
(481,136,o),
(531,136,cs)
);
},
{
closed = 1;
nodes = (
(718,136,o),
(758,176,o),
(758,226,cs),
(758,276,o),
(718,316,o),
(668,316,cs),
(618,316,o),
(578,276,o),
(578,226,cs),
(578,176,o),
(618,136,o),
(668,136,cs)
);
},
{
closed = 1;
nodes = (
(170,317,o),
(210,357,o),
(210,407,cs),
(210,457,o),
(170,497,o),
(120,497,cs),
(70,497,o),
(30,457,o),
(30,407,cs),
(30,357,o),
(70,317,o),
(120,317,cs)
);
},
{
closed = 1;
nodes = (
(444,317,o),
(484,357,o),
(484,407,cs),
(484,457,o),
(444,497,o),
(394,497,cs),
(344,497,o),
(304,457,o),
(304,407,cs),
(304,357,o),
(344,317,o),
(394,317,cs)
);
},
{
closed = 1;
nodes = (
(170,679,o),
(210,719,o),
(210,769,cs),
(210,819,o),
(170,859,o),
(120,859,cs),
(70,859,o),
(30,819,o),
(30,769,cs),
(30,719,o),
(70,679,o),
(120,679,cs)
);
},
{
closed = 1;
nodes = (
(170,498,o),
(210,538,o),
(210,588,cs),
(210,638,o),
(170,678,o),
(120,678,cs),
(70,678,o),
(30,638,o),
(30,588,cs),
(30,538,o),
(70,498,o),
(120,498,cs)
);
},
{
closed = 1;
nodes = (
(308,498,o),
(347,538,o),
(347,588,cs),
(347,638,o),
(308,678,o),
(257,678,cs),
(207,678,o),
(167,638,o),
(167,588,cs),
(167,538,o),
(207,498,o),
(257,498,cs)
);
},
{
closed = 1;
nodes = (
(718,498,o),
(758,537,o),
(758,588,cs),
(758,638,o),
(718,678,o),
(668,678,cs),
(618,678,o),
(578,638,o),
(578,588,cs),
(578,537,o),
(618,498,o),
(668,498,cs)
);
},
{
closed = 1;
nodes = (
(718,679,o),
(758,719,o),
(758,769,cs),
(758,819,o),
(718,859,o),
(668,859,cs),
(618,859,o),
(578,819,o),
(578,769,cs),
(578,719,o),
(618,679,o),
(668,679,cs)
);
}
);
width = 788;
}
);
unicode = 78;
}
{
glyphname = Q;
layers = (
{
layerId = m01;
shapes = (
{
closed = 1;
nodes = (
(145,181,o),
(165,201,o),
(165,226,cs),
(165,251,o),
(145,271,o),
(120,271,cs),
(95,271,o),
(75,251,o),
(75,226,cs),
(75,201,o),
(95,181,o),
(120,181,cs)
);
},
{
closed = 1;
nodes = (
(283,0,o),
(302,20,o),
(302,45,cs),
(302,70,o),
(283,90,o),
(257,90,cs),
(232,90,o),
(212,70,o),
(212,45,cs),
(212,20,o),
(232,0,o),
(257,0,cs)
);
},
{
closed = 1;
nodes = (
(419,0,o),
(439,20,o),
(439,45,cs),
(439,70,o),
(419,90,o),
(394,90,cs),
(368,90,o),
(349,70,o),
(349,45,cs),
(349,20,o),
(368,0,o),
(394,0,cs)
);
},
{
closed = 1;
nodes = (
(556,181,o),
(576,201,o),
(576,226,cs),
(576,251,o),
(556,271,o),
(531,271,cs),
(506,271,o),
(486,251,o),
(486,226,cs),
(486,201,o),
(506,181,o),
(531,181,cs)
);
},
{
closed = 1;
nodes = (
(145,362,o),
(165,382,o),
(165,407,cs),
(165,432,o),
(145,452,o),
(120,452,cs),
(95,452,o),
(75,432,o),
(75,407,cs),
(75,382,o),
(95,362,o),
(120,362,cs)
);
},
{
closed = 1;
nodes = (
(556,362,o),
(576,382,o),
(576,407,cs),
(576,432,o),
(556,452,o),
(531,452,cs),
(506,452,o),
(486,432,o),
(486,407,cs),
(486,382,o),
(506,362,o),
(531,362,cs)
);
},
{
closed = 1;
nodes = (
(145,543,o),
(165,563,o),
(165,588,cs),
(165,613,o),
(145,633,o),
(120,633,cs),
(95,633,o),
(75,613,o),
(75,588,cs),
(75,563,o),
(95,543,o),
(120,543,cs)
);
},
{
closed = 1;
nodes = (
(556,543,o),
(576,562,o),
(576,588,cs),
(576,613,o),
(556,633,o),
(531,633,cs),
(506,633,o),
(486,613,o),
(486,588,cs),
(486,562,o),
(506,543,o),
(531,543,cs)
);
},
{
closed = 1;
nodes = (
(282,724,o),
(302,744,o),
(302,769,cs),
(302,794,o),
(282,814,o),
(257,814,cs),
(232,814,o),
(212,794,o),
(212,769,cs),
(212,744,o),
(232,724,o),
(257,724,cs)
);
},
{
closed = 1;
nodes = (
(419,724,o),
(439,744,o),
(439,769,cs),
(439,794,o),
(419,814,o),
(394,814,cs),
(369,814,o),
(349,794,o),
(349,769,cs),
(349,744,o),
(369,724,o),
(394,724,cs)
);
},
{
closed = 1;
nodes = (
(693,0,o),
(713,20,o),
(713,45,cs),
(713,70,o),
(693,90,o),
(668,90,cs),
(642,90,o),
(623,70,o),
(623,45,cs),
(623,20,o),
(642,0,o),
(668,0,cs)
);
}
);
width = 788;
},
{
layerId = m003;
shapes = (
{
closed = 1;
nodes = (
(225,36,o),
(310,121,o),
(310,226,cs),
(310,331,o),
(225,416,o),
(120,416,cs),
(15,416,o),
(-70,331,o),
(-70,226,cs),
(-70,121,o),
(15,36,o),
(120,36,cs)
);
},
{
closed = 1;
nodes = (
(363,-145,o),
(447,-60,o),
(447,45,cs),
(447,150,o),
(363,235,o),
(257,235,cs),
(152,235,o),
(67,150,o),
(67,45,cs),
(67,-60,o),
(152,-145,o),
(257,-145,cs)
);
},
{
closed = 1;
nodes = (
(499,-145,o),
(584,-60,o),
(584,45,cs),
(584,150,o),
(499,235,o),
(394,235,cs),
(288,235,o),
(204,150,o),
(204,45,cs),
(204,-60,o),
(288,-145,o),
(394,-145,cs)
);
},
{
closed = 1;
nodes = (
(636,36,o),
(721,121,o),
(721,226,cs),
(721,331,o),
(636,416,o),
(531,416,cs),
(426,416,o),
(341,331,o),
(341,226,cs),
(341,121,o),
(426,36,o),
(531,36,cs)
);
},
{
closed = 1;
nodes = (
(225,217,o),
(310,302,o),
(310,407,cs),
(310,512,o),
(225,597,o),
(120,597,cs),
(15,597,o),
(-70,512,o),
(-70,407,cs),
(-70,302,o),
(15,217,o),
(120,217,cs)
);
},
{
closed = 1;
nodes = (
(636,217,o),
(721,302,o),
(721,407,cs),
(721,512,o),
(636,597,o),
(531,597,cs),
(426,597,o),
(341,512,o),
(341,407,cs),
(341,302,o),
(426,217,o),
(531,217,cs)
);
},
{
closed = 1;
nodes = (
(225,398,o),
(310,483,o),
(310,588,cs),
(310,693,o),
(225,778,o),
(120,778,cs),
(15,778,o),
(-70,693,o),
(-70,588,cs),
(-70,483,o),
(15,398,o),
(120,398,cs)
);
},
{
closed = 1;
nodes = (
(636,398,o),
(721,482,o),
(721,588,cs),
(721,693,o),
(636,778,o),
(531,778,cs),
(426,778,o),
(341,693,o),
(341,588,cs),
(341,482,o),
(426,398,o),
(531,398,cs)
);
},
{
closed = 1;
nodes = (
(362,579,o),
(447,664,o),
(447,769,cs),
(447,874,o),
(362,959,o),
(257,959,cs),
(152,959,o),
(67,874,o),
(67,769,cs),
(67,664,o),
(152,579,o),
(257,579,cs)
);
},
{
closed = 1;
nodes = (
(499,579,o),
(584,664,o),
(584,769,cs),
(584,874,o),
(499,959,o),
(394,959,cs),
(289,959,o),
(204,874,o),
(204,769,cs),
(204,664,o),
(289,579,o),
(394,579,cs)
);
},
{
closed = 1;
nodes = (
(773,-145,o),
(858,-60,o),
(858,45,cs),
(858,150,o),
(773,235,o),
(668,235,cs),
(562,235,o),
(478,150,o),
(478,45,cs),
(478,-60,o),
(562,-145,o),
(668,-145,cs)
);
}
);
width = 788;
},
{
layerId = m004;
shapes = (
{
closed = 1;
nodes = (
(170,136,o),
(210,176,o),
(210,226,cs),
(210,276,o),
(170,316,o),
(120,316,cs),
(70,316,o),
(30,276,o),
(30,226,cs),
(30,176,o),
(70,136,o),
(120,136,cs)
);
},
{
closed = 1;
nodes = (
(308,-45,o),
(347,-5,o),
(347,45,cs),
(347,95,o),
(308,135,o),
(257,135,cs),
(207,135,o),
(167,95,o),
(167,45,cs),
(167,-5,o),
(207,-45,o),
(257,-45,cs)
);
},
{
closed = 1;
nodes = (
(444,-45,o),
(484,-5,o),
(484,45,cs),
(484,95,o),
(444,135,o),
(394,135,cs),
(343,135,o),
(304,95,o),
(304,45,cs),
(304,-5,o),
(343,-45,o),
(394,-45,cs)
);
},
{
closed = 1;
nodes = (
(581,136,o),
(621,176,o),
(621,226,cs),
(621,276,o),
(581,316,o),
(531,316,cs),
(481,316,o),
(441,276,o),
(441,226,cs),
(441,176,o),
(481,136,o),
(531,136,cs)
);
},
{
closed = 1;
nodes = (
(170,317,o),
(210,357,o),
(210,407,cs),
(210,457,o),
(170,497,o),
(120,497,cs),
(70,497,o),
(30,457,o),
(30,407,cs),
(30,357,o),
(70,317,o),
(120,317,cs)
);
},
{
closed = 1;
nodes = (
(581,317,o),
(621,357,o),
(621,407,cs),
(621,457,o),
(581,497,o),
(531,497,cs),
(481,497,o),
(441,457,o),
(441,407,cs),
(441,357,o),
(481,317,o),
(531,317,cs)
);
},
{
closed = 1;
nodes = (
(170,498,o),
(210,538,o),
(210,588,cs),
(210,638,o),
(170,678,o),
(120,678,cs),
(70,678,o),
(30,638,o),
(30,588,cs),
(30,538,o),
(70,498,o),
(120,498,cs)
);
},
{
closed = 1;
nodes = (
(581,498,o),
(621,537,o),
(621,588,cs),
(621,638,o),
(581,678,o),
(531,678,cs),
(481,678,o),
(441,638,o),
(441,588,cs),
(441,537,o),
(481,498,o),
(531,498,cs)
);
},
{
closed = 1;
nodes = (
(307,679,o),
(347,719,o),
(347,769,cs),
(347,819,o),
(307,859,o),
(257,859,cs),
(207,859,o),
(167,819,o),
(167,769,cs),
(167,719,o),
(207,679,o),
(257,679,cs)
);
},
{
closed = 1;
nodes = (
(444,679,o),
(484,719,o),
(484,769,cs),
(484,819,o),
(444,859,o),
(394,859,cs),
(344,859,o),
(304,819,o),
(304,769,cs),
(304,719,o),
(344,679,o),
(394,679,cs)
);
},
{
closed = 1;
nodes = (
(718,-45,o),
(758,-5,o),
(758,45,cs),
(758,95,o),
(718,135,o),
(668,135,cs),
(617,135,o),
(578,95,o),
(578,45,cs),
(578,-5,o),
(617,-45,o),
(668,-45,cs)
);
}
);
width = 788;
}
);
unicode = 81;
}
{
glyphname = T;
layers = (
{
layerId = m01;
shapes = (
{
closed = 1;
nodes = (
(282,0,o),
(302,20,o),
(302,45,cs),
(302,70,o),
(282,90,o),
(257,90,cs),
(231,90,o),
(212,70,o),
(212,45,cs),
(212,20,o),
(231,0,o),
(257,0,cs)
);
},
{
closed = 1;
nodes = (
(282,181,o),
(302,201,o),
(302,226,cs),
(302,251,o),
(282,271,o),
(257,271,cs),
(232,271,o),
(212,251,o),
(212,226,cs),
(212,201,o),
(232,181,o),
(257,181,cs)
);
},
{
closed = 1;
nodes = (
(282,362,o),
(302,382,o),
(302,407,cs),
(302,432,o),
(282,452,o),
(257,452,cs),
(232,452,o),
(212,432,o),
(212,407,cs),
(212,382,o),
(232,362,o),
(257,362,cs)
);
},
{
closed = 1;
nodes = (
(282,543,o),
(302,563,o),
(302,588,cs),
(302,613,o),
(282,633,o),
(257,633,cs),
(231,633,o),
(212,613,o),
(212,588,cs),
(212,563,o),
(231,543,o),
(257,543,cs)
);
},
{
closed = 1;
nodes = (
(145,724,o),
(165,744,o),
(165,769,cs),
(165,794,o),
(145,814,o),
(120,814,cs),
(95,814,o),
(75,794,o),
(75,769,cs),
(75,744,o),
(95,724,o),
(120,724,cs)
);
},
{
closed = 1;
nodes = (
(282,724,o),
(302,744,o),
(302,769,cs),
(302,794,o),
(282,814,o),
(257,814,cs),
(232,814,o),
(212,794,o),
(212,769,cs),
(212,744,o),
(232,724,o),
(257,724,cs)
);
},
{
closed = 1;
nodes = (
(419,724,o),
(439,744,o),
(439,769,cs),
(439,794,o),
(419,814,o),
(394,814,cs),
(369,814,o),
(349,794,o),
(349,769,cs),
(349,744,o),
(369,724,o),
(394,724,cs)
);
}
);
width = 514;
},
{
layerId = m003;
shapes = (
{
closed = 1;
nodes = (
(362,-145,o),
(447,-60,o),
(447,45,cs),
(447,150,o),
(362,235,o),
(257,235,cs),
(151,235,o),
(67,150,o),
(67,45,cs),
(67,-60,o),
(151,-145,o),
(257,-145,cs)
);
},
{
closed = 1;
nodes = (
(362,36,o),
(447,121,o),
(447,226,cs),
(447,331,o),
(362,416,o),
(257,416,cs),
(152,416,o),
(67,331,o),
(67,226,cs),
(67,121,o),
(152,36,o),
(257,36,cs)
);
},
{
closed = 1;
nodes = (
(362,217,o),
(447,302,o),
(447,407,cs),
(447,512,o),
(362,597,o),
(257,597,cs),
(152,597,o),
(67,512,o),
(67,407,cs),
(67,302,o),
(152,217,o),
(257,217,cs)
);
},
{
closed = 1;
nodes = (
(362,398,o),
(447,483,o),
(447,588,cs),
(447,693,o),
(362,778,o),
(257,778,cs),
(151,778,o),
(67,693,o),
(67,588,cs),
(67,483,o),
(151,398,o),
(257,398,cs)
);
},
{
closed = 1;
nodes = (
(225,579,o),
(310,664,o),
(310,769,cs),
(310,874,o),
(225,959,o),
(120,959,cs),
(15,959,o),
(-70,874,o),
(-70,769,cs),
(-70,664,o),
(15,579,o),
(120,579,cs)
);
},
{
closed = 1;
nodes = (
(362,579,o),
(447,664,o),
(447,769,cs),
(447,874,o),
(362,959,o),
(257,959,cs),
(152,959,o),
(67,874,o),
(67,769,cs),
(67,664,o),
(152,579,o),
(257,579,cs)
);
},
{
closed = 1;
nodes = (
(499,579,o),
(584,664,o),
(584,769,cs),
(584,874,o),
(499,959,o),
(394,959,cs),
(289,959,o),
(204,874,o),
(204,769,cs),
(204,664,o),
(289,579,o),
(394,579,cs)
);
}
);
width = 514;
},
{
layerId = m004;
shapes = (
{
closed = 1;
nodes = (
(307,-45,o),
(347,-5,o),
(347,45,cs),
(347,95,o),
(307,135,o),
(257,135,cs),
(206,135,o),
(167,95,o),
(167,45,cs),
(167,-5,o),
(206,-45,o),
(257,-45,cs)
);
},
{
closed = 1;
nodes = (
(307,136,o),
(347,176,o),
(347,226,cs),
(347,276,o),
(307,316,o),
(257,316,cs),
(207,316,o),
(167,276,o),
(167,226,cs),
(167,176,o),
(207,136,o),
(257,136,cs)
);
},
{
closed = 1;
nodes = (
(307,317,o),
(347,357,o),
(347,407,cs),
(347,457,o),
(307,497,o),
(257,497,cs),
(207,497,o),
(167,457,o),
(167,407,cs),
(167,357,o),
(207,317,o),
(257,317,cs)
);
},
{
closed = 1;
nodes = (
(307,498,o),
(347,538,o),
(347,588,cs),
(347,638,o),
(307,678,o),
(257,678,cs),
(206,678,o),
(167,638,o),
(167,588,cs),
(167,538,o),
(206,498,o),
(257,498,cs)
);
},
{
closed = 1;
nodes = (
(170,679,o),
(210,719,o),
(210,769,cs),
(210,819,o),
(170,859,o),
(120,859,cs),
(70,859,o),
(30,819,o),
(30,769,cs),
(30,719,o),
(70,679,o),
(120,679,cs)
);
},
{
closed = 1;
nodes = (
(307,679,o),
(347,719,o),
(347,769,cs),
(347,819,o),
(307,859,o),
(257,859,cs),
(207,859,o),
(167,819,o),
(167,769,cs),
(167,719,o),
(207,679,o),
(257,679,cs)
);
},
{
closed = 1;
nodes = (
(444,679,o),
(484,719,o),
(484,769,cs),
(484,819,o),
(444,859,o),
(394,859,cs),
(344,859,o),
(304,819,o),
(304,769,cs),
(304,719,o),
(344,679,o),
(394,679,cs)
);
}
);
width = 514;
}
);
unicode = 84;
}
{
glyphname = V;
layers = (
{
layerId = m01;
shapes = (
{
closed = 1;
nodes = (
(693,362,o),
(713,381,o),
(713,407,cs),
(713,432,o),
(693,452,o),
(668,452,cs),
(643,452,o),
(623,432,o),
(623,407,cs),
(623,381,o),
(643,362,o),
(668,362,cs)
);
},
{
closed = 1;
nodes = (
(419,0,o),
(439,20,o),
(439,45,cs),
(439,70,o),
(419,90,o),
(394,90,cs),
(368,90,o),
(349,70,o),
(349,45,cs),
(349,20,o),
(368,0,o),
(394,0,cs)
);
},
{
closed = 1;
nodes = (
(282,181,o),
(302,201,o),
(302,226,cs),
(302,251,o),
(282,271,o),
(257,271,cs),
(232,271,o),
(212,251,o),
(212,226,cs),
(212,201,o),
(232,181,o),
(257,181,cs)
);
},
{
closed = 1;
nodes = (
(556,181,o),
(576,201,o),
(576,226,cs),
(576,251,o),
(556,271,o),
(531,271,cs),
(506,271,o),
(486,251,o),
(486,226,cs),
(486,201,o),
(506,181,o),
(531,181,cs)
);
},
{
closed = 1;
nodes = (
(145,362,o),
(165,382,o),
(165,407,cs),
(165,432,o),
(145,452,o),
(120,452,cs),
(95,452,o),
(75,432,o),
(75,407,cs),
(75,382,o),
(95,362,o),
(120,362,cs)
);
},
{
closed = 1;
nodes = (
(145,724,o),
(165,744,o),
(165,769,cs),
(165,794,o),
(145,814,o),
(120,814,cs),
(95,814,o),
(75,794,o),
(75,769,cs),
(75,744,o),
(95,724,o),
(120,724,cs)
);
},
{
closed = 1;
nodes = (
(145,543,o),
(165,563,o),
(165,588,cs),
(165,613,o),
(145,633,o),
(120,633,cs),
(95,633,o),
(75,613,o),
(75,588,cs),
(75,563,o),
(95,543,o),
(120,543,cs)
);
},
{
closed = 1;
nodes = (
(693,543,o),
(713,562,o),
(713,588,cs),
(713,613,o),
(693,633,o),
(668,633,cs),
(643,633,o),
(623,613,o),
(623,588,cs),
(623,562,o),
(643,543,o),
(668,543,cs)
);
},
{
closed = 1;
nodes = (
(693,724,o),
(713,744,o),
(713,769,cs),
(713,794,o),
(693,814,o),
(668,814,cs),
(643,814,o),
(623,794,o),
(623,769,cs),
(623,744,o),
(643,724,o),
(668,724,cs)
);
}
);
width = 788;
},
{
layerId = m003;
shapes = (
{
closed = 1;
nodes = (
(773,217,o),
(858,301,o),
(858,407,cs),
(858,512,o),
(773,597,o),
(668,597,cs),
(563,597,o),
(478,512,o),
(478,407,cs),
(478,301,o),
(563,217,o),
(668,217,cs)
);
},
{
closed = 1;
nodes = (
(499,-145,o),
(584,-60,o),
(584,45,cs),
(584,150,o),
(499,235,o),
(394,235,cs),
(288,235,o),
(204,150,o),
(204,45,cs),
(204,-60,o),
(288,-145,o),
(394,-145,cs)
);
},
{
closed = 1;
nodes = (
(362,36,o),
(447,121,o),
(447,226,cs),
(447,331,o),
(362,416,o),
(257,416,cs),
(152,416,o),
(67,331,o),
(67,226,cs),
(67,121,o),
(152,36,o),
(257,36,cs)
);
},
{
closed = 1;
nodes = (
(636,36,o),
(721,121,o),
(721,226,cs),
(721,331,o),
(636,416,o),
(531,416,cs),
(426,416,o),
(341,331,o),
(341,226,cs),
(341,121,o),
(426,36,o),
(531,36,cs)
);
},
{
closed = 1;
nodes = (
(225,217,o),
(310,302,o),
(310,407,cs),
(310,512,o),
(225,597,o),
(120,597,cs),
(15,597,o),
(-70,512,o),
(-70,407,cs),
(-70,302,o),
(15,217,o),
(120,217,cs)
);
},
{
closed = 1;
nodes = (
(225,579,o),
(310,664,o),
(310,769,cs),
(310,874,o),
(225,959,o),
(120,959,cs),
(15,959,o),
(-70,874,o),
(-70,769,cs),
(-70,664,o),
(15,579,o),
(120,579,cs)
);
},
{
closed = 1;
nodes = (
(225,398,o),
(310,483,o),
(310,588,cs),
(310,693,o),
(225,778,o),
(120,778,cs),
(15,778,o),
(-70,693,o),
(-70,588,cs),
(-70,483,o),
(15,398,o),
(120,398,cs)
);
},
{
closed = 1;
nodes = (
(773,398,o),
(858,482,o),
(858,588,cs),
(858,693,o),
(773,778,o),
(668,778,cs),
(563,778,o),
(478,693,o),
(478,588,cs),
(478,482,o),
(563,398,o),
(668,398,cs)
);
},
{
closed = 1;
nodes = (
(773,579,o),
(858,664,o),
(858,769,cs),
(858,874,o),
(773,959,o),
(668,959,cs),
(563,959,o),
(478,874,o),
(478,769,cs),
(478,664,o),
(563,579,o),
(668,579,cs)
);
}
);
width = 788;
},
{
layerId = m004;
shapes = (
{
closed = 1;
nodes = (
(718,317,o),
(758,356,o),
(758,407,cs),
(758,457,o),
(718,497,o),
(668,497,cs),
(618,497,o),
(578,457,o),
(578,407,cs),
(578,356,o),
(618,317,o),
(668,317,cs)
);
},
{
closed = 1;
nodes = (
(444,-45,o),
(484,-5,o),
(484,45,cs),
(484,95,o),
(444,135,o),
(394,135,cs),
(343,135,o),
(304,95,o),
(304,45,cs),
(304,-5,o),
(343,-45,o),
(394,-45,cs)
);
},
{
closed = 1;
nodes = (
(307,136,o),
(347,176,o),
(347,226,cs),
(347,276,o),
(307,316,o),
(257,316,cs),
(207,316,o),
(167,276,o),
(167,226,cs),
(167,176,o),
(207,136,o),
(257,136,cs)
);
},
{
closed = 1;
nodes = (
(581,136,o),
(621,176,o),
(621,226,cs),
(621,276,o),
(581,316,o),
(531,316,cs),
(481,316,o),
(441,276,o),
(441,226,cs),
(441,176,o),
(481,136,o),
(531,136,cs)
);
},
{
closed = 1;
nodes = (
(170,317,o),
(210,357,o),
(210,407,cs),
(210,457,o),
(170,497,o),
(120,497,cs),
(70,497,o),
(30,457,o),
(30,407,cs),
(30,357,o),
(70,317,o),
(120,317,cs)
);
},
{
closed = 1;
nodes = (
(170,679,o),
(210,719,o),
(210,769,cs),
(210,819,o),
(170,859,o),
(120,859,cs),
(70,859,o),
(30,819,o),
(30,769,cs),
(30,719,o),
(70,679,o),
(120,679,cs)
);
},
{
closed = 1;
nodes = (
(170,498,o),
(210,538,o),
(210,588,cs),
(210,638,o),
(170,678,o),
(120,678,cs),
(70,678,o),
(30,638,o),
(30,588,cs),
(30,538,o),
(70,498,o),
(120,498,cs)
);
},
{
closed = 1;
nodes = (
(718,498,o),
(758,537,o),
(758,588,cs),
(758,638,o),
(718,678,o),
(668,678,cs),
(618,678,o),
(578,638,o),
(578,588,cs),
(578,537,o),
(618,498,o),
(668,498,cs)
);
},
{
closed = 1;
nodes = (
(718,679,o),
(758,719,o),
(758,769,cs),
(758,819,o),
(718,859,o),
(668,859,cs),
(618,859,o),
(578,819,o),
(578,769,cs),
(578,719,o),
(618,679,o),
(668,679,cs)
);
}
);
width = 788;
}
);
unicode = 86;
}
{
glyphname = W;
layers = (
{
layerId = m01;
shapes = (
{
closed = 1;
nodes = (
(95,452,o),
(75,433,o),
(75,407,cs),
(75,382,o),
(95,362,o),
(120,362,cs),
(145,362,o),
(165,382,o),
(165,407,cs),
(165,433,o),
(145,452,o),
(120,452,cs)
);
},
{
closed = 1;
nodes = (
(643,633,o),
(623,613,o),
(623,588,cs),
(623,563,o),
(643,543,o),
(668,543,cs),
(693,543,o),
(713,563,o),
(713,588,cs),
(713,613,o),
(693,633,o),
(668,633,cs)
);
},
{
closed = 1;
nodes = (
(643,814,o),
(623,794,o),
(623,769,cs),
(623,744,o),
(643,724,o),
(668,724,cs),
(693,724,o),
(713,744,o),
(713,769,cs),
(713,794,o),
(693,814,o),
(668,814,cs)
);
},
{
closed = 1;
nodes = (
(369,814,o),
(349,794,o),
(349,769,cs),
(349,744,o),
(369,724,o),
(394,724,cs),
(420,724,o),
(439,744,o),
(439,769,cs),
(439,794,o),
(420,814,o),
(394,814,cs)
);
},
{
closed = 1;
nodes = (
(95,814,o),
(75,795,o),
(75,769,cs),
(75,744,o),
(95,724,o),
(120,724,cs),
(145,724,o),
(165,744,o),
(165,769,cs),
(165,795,o),
(145,814,o),
(120,814,cs)
);
},
{
closed = 1;
nodes = (
(369,633,o),
(349,613,o),
(349,588,cs),
(349,563,o),
(369,543,o),
(394,543,cs),
(419,543,o),
(439,563,o),
(439,588,cs),
(439,613,o),
(419,633,o),
(394,633,cs)
);
},
{
closed = 1;
nodes = (
(95,633,o),
(75,613,o),
(75,588,cs),
(75,563,o),
(95,543,o),
(120,543,cs),
(145,543,o),
(165,563,o),
(165,588,cs),
(165,613,o),
(145,633,o),
(120,633,cs)
);
},
{
closed = 1;
nodes = (
(643,452,o),
(623,432,o),
(623,407,cs),
(623,382,o),
(643,362,o),
(668,362,cs),
(693,362,o),
(713,382,o),
(713,407,cs),
(713,432,o),
(693,452,o),
(668,452,cs)
);
},
{
closed = 1;
nodes = (
(369,452,o),
(349,432,o),
(349,407,cs),
(349,382,o),
(369,362,o),
(394,362,cs),
(419,362,o),
(439,382,o),
(439,407,cs),
(439,432,o),
(419,452,o),
(394,452,cs)
);
},
{
closed = 1;
nodes = (
(643,271,o),
(623,251,o),
(623,226,cs),
(623,201,o),
(643,181,o),
(668,181,cs),
(693,181,o),
(713,201,o),
(713,226,cs),
(713,251,o),
(693,271,o),
(668,271,cs)
);
},
{
closed = 1;
nodes = (
(369,271,o),
(349,251,o),
(349,226,cs),
(349,201,o),
(369,181,o),
(394,181,cs),
(420,181,o),
(439,201,o),
(439,226,cs),
(439,251,o),
(420,271,o),
(394,271,cs)
);
},
{
closed = 1;
nodes = (
(95,271,o),
(75,252,o),
(75,226,cs),
(75,201,o),
(95,181,o),
(120,181,cs),
(145,181,o),
(165,201,o),
(165,226,cs),
(165,252,o),
(145,271,o),
(120,271,cs)
);
},
{
closed = 1;
nodes = (
(506,90,o),
(486,70,o),
(486,45,cs),
(486,20,o),
(506,0,o),
(531,0,cs),
(556,0,o),
(576,20,o),
(576,45,cs),
(576,70,o),
(556,90,o),
(531,90,cs)
);
},
{
closed = 1;
nodes = (
(232,90,o),
(212,70,o),
(212,45,cs),
(212,20,o),
(232,0,o),
(257,0,cs),
(282,0,o),
(302,20,o),
(302,45,cs),
(302,70,o),
(282,90,o),
(257,90,cs)
);
}
);
width = 788;
},
{
layerId = m003;
shapes = (
{
closed = 1;
nodes = (
(15,597,o),
(-70,513,o),
(-70,407,cs),
(-70,302,o),
(15,217,o),
(120,217,cs),
(225,217,o),
(310,302,o),
(310,407,cs),
(310,513,o),
(225,597,o),
(120,597,cs)
);
},
{
closed = 1;
nodes = (
(563,778,o),
(478,693,o),
(478,588,cs),
(478,483,o),
(563,398,o),
(668,398,cs),
(773,398,o),
(858,483,o),
(858,588,cs),
(858,693,o),
(773,778,o),
(668,778,cs)
);
},
{
closed = 1;
nodes = (
(563,959,o),
(478,874,o),
(478,769,cs),
(478,664,o),
(563,579,o),
(668,579,cs),
(773,579,o),
(858,664,o),
(858,769,cs),
(858,874,o),
(773,959,o),
(668,959,cs)
);
},
{
closed = 1;
nodes = (
(289,959,o),
(204,874,o),
(204,769,cs),
(204,664,o),
(289,579,o),
(394,579,cs),
(500,579,o),
(584,664,o),
(584,769,cs),
(584,874,o),
(500,959,o),
(394,959,cs)
);
},
{
closed = 1;
nodes = (
(15,959,o),
(-70,875,o),
(-70,769,cs),
(-70,664,o),
(15,579,o),
(120,579,cs),
(225,579,o),
(310,664,o),
(310,769,cs),
(310,875,o),
(225,959,o),
(120,959,cs)
);
},
{
closed = 1;
nodes = (
(289,778,o),
(204,693,o),
(204,588,cs),
(204,483,o),
(289,398,o),
(394,398,cs),
(499,398,o),
(584,483,o),
(584,588,cs),
(584,693,o),
(499,778,o),
(394,778,cs)
);
},
{
closed = 1;
nodes = (
(15,778,o),
(-70,693,o),
(-70,588,cs),
(-70,483,o),
(15,398,o),
(120,398,cs),
(225,398,o),
(310,483,o),
(310,588,cs),
(310,693,o),
(225,778,o),
(120,778,cs)
);
},
{
closed = 1;
nodes = (
(563,597,o),
(478,512,o),
(478,407,cs),
(478,302,o),
(563,217,o),
(668,217,cs),
(773,217,o),
(858,302,o),
(858,407,cs),
(858,512,o),
(773,597,o),
(668,597,cs)
);
},
{
closed = 1;
nodes = (
(289,597,o),
(204,512,o),
(204,407,cs),
(204,302,o),
(289,217,o),
(394,217,cs),
(499,217,o),
(584,302,o),
(584,407,cs),
(584,512,o),
(499,597,o),
(394,597,cs)
);
},
{
closed = 1;
nodes = (
(563,416,o),
(478,331,o),
(478,226,cs),
(478,121,o),
(563,36,o),
(668,36,cs),
(773,36,o),
(858,121,o),
(858,226,cs),
(858,331,o),
(773,416,o),
(668,416,cs)
);
},
{
closed = 1;
nodes = (
(289,416,o),
(204,331,o),
(204,226,cs),
(204,121,o),
(289,36,o),
(394,36,cs),
(500,36,o),
(584,121,o),
(584,226,cs),
(584,331,o),
(500,416,o),
(394,416,cs)
);
},
{
closed = 1;
nodes = (
(15,416,o),
(-70,332,o),
(-70,226,cs),
(-70,121,o),
(15,36,o),
(120,36,cs),
(225,36,o),
(310,121,o),
(310,226,cs),
(310,332,o),
(225,416,o),
(120,416,cs)
);
},
{
closed = 1;
nodes = (
(426,235,o),
(341,150,o),
(341,45,cs),
(341,-60,o),
(426,-145,o),
(531,-145,cs),
(636,-145,o),
(721,-60,o),
(721,45,cs),
(721,150,o),
(636,235,o),
(531,235,cs)
);
},
{
closed = 1;
nodes = (
(152,235,o),
(67,150,o),
(67,45,cs),
(67,-60,o),
(152,-145,o),
(257,-145,cs),
(362,-145,o),
(447,-60,o),
(447,45,cs),
(447,150,o),
(362,235,o),
(257,235,cs)
);
}
);
width = 788;
},
{
layerId = m004;
shapes = (
{
closed = 1;
nodes = (
(70,497,o),
(30,458,o),
(30,407,cs),
(30,357,o),
(70,317,o),
(120,317,cs),
(170,317,o),
(210,357,o),
(210,407,cs),
(210,458,o),
(170,497,o),
(120,497,cs)
);
},
{
closed = 1;
nodes = (
(618,678,o),
(578,638,o),
(578,588,cs),
(578,538,o),
(618,498,o),
(668,498,cs),
(718,498,o),
(758,538,o),
(758,588,cs),
(758,638,o),
(718,678,o),
(668,678,cs)
);
},
{
closed = 1;
nodes = (
(618,859,o),
(578,819,o),
(578,769,cs),
(578,719,o),
(618,679,o),
(668,679,cs),
(718,679,o),
(758,719,o),
(758,769,cs),
(758,819,o),
(718,859,o),
(668,859,cs)
);
},
{
closed = 1;
nodes = (
(344,859,o),
(304,819,o),
(304,769,cs),
(304,719,o),
(344,679,o),
(394,679,cs),
(445,679,o),
(484,719,o),
(484,769,cs),
(484,819,o),
(445,859,o),
(394,859,cs)
);
},
{
closed = 1;
nodes = (
(70,859,o),
(30,820,o),
(30,769,cs),
(30,719,o),
(70,679,o),
(120,679,cs),
(170,679,o),
(210,719,o),
(210,769,cs),
(210,820,o),
(170,859,o),
(120,859,cs)
);
},
{
closed = 1;
nodes = (
(344,678,o),
(304,638,o),
(304,588,cs),
(304,538,o),
(344,498,o),
(394,498,cs),
(444,498,o),
(484,538,o),
(484,588,cs),
(484,638,o),
(444,678,o),
(394,678,cs)
);
},
{
closed = 1;
nodes = (
(70,678,o),
(30,638,o),
(30,588,cs),
(30,538,o),
(70,498,o),
(120,498,cs),
(170,498,o),
(210,538,o),
(210,588,cs),
(210,638,o),
(170,678,o),
(120,678,cs)
);
},
{
closed = 1;
nodes = (
(618,497,o),
(578,457,o),
(578,407,cs),
(578,357,o),
(618,317,o),
(668,317,cs),
(718,317,o),
(758,357,o),
(758,407,cs),
(758,457,o),
(718,497,o),
(668,497,cs)
);
},
{
closed = 1;
nodes = (
(344,497,o),
(304,457,o),
(304,407,cs),
(304,357,o),
(344,317,o),
(394,317,cs),
(444,317,o),
(484,357,o),
(484,407,cs),
(484,457,o),
(444,497,o),
(394,497,cs)
);
},
{
closed = 1;
nodes = (
(618,316,o),
(578,276,o),
(578,226,cs),
(578,176,o),
(618,136,o),
(668,136,cs),
(718,136,o),
(758,176,o),
(758,226,cs),
(758,276,o),
(718,316,o),
(668,316,cs)
);
},
{
closed = 1;
nodes = (
(344,316,o),
(304,276,o),
(304,226,cs),
(304,176,o),
(344,136,o),
(394,136,cs),
(445,136,o),
(484,176,o),
(484,226,cs),
(484,276,o),
(445,316,o),
(394,316,cs)
);
},
{
closed = 1;
nodes = (
(70,316,o),
(30,277,o),
(30,226,cs),
(30,176,o),
(70,136,o),
(120,136,cs),
(170,136,o),
(210,176,o),
(210,226,cs),
(210,277,o),
(170,316,o),
(120,316,cs)
);
},
{
closed = 1;
nodes = (
(481,135,o),
(441,95,o),
(441,45,cs),
(441,-5,o),
(481,-45,o),
(531,-45,cs),
(581,-45,o),
(621,-5,o),
(621,45,cs),
(621,95,o),
(581,135,o),
(531,135,cs)
);
},
{
closed = 1;
nodes = (
(207,135,o),
(167,95,o),
(167,45,cs),
(167,-5,o),
(207,-45,o),
(257,-45,cs),
(307,-45,o),
(347,-5,o),
(347,45,cs),
(347,95,o),
(307,135,o),
(257,135,cs)
);
}
);
width = 788;
}
);
unicode = 87;
}
{
glyphname = X;
layers = (
{
layerId = m01;
shapes = (
{
closed = 1;
nodes = (
(145,0,o),
(165,20,o),
(165,45,cs),
(165,70,o),
(145,90,o),
(120,90,cs),
(95,90,o),
(75,70,o),
(75,45,cs),
(75,20,o),
(95,0,o),
(120,0,cs)
);
},
{
closed = 1;
nodes = (
(693,0,o),
(713,19,o),
(713,45,cs),
(713,70,o),
(693,90,o),
(668,90,cs),
(643,90,o),
(623,70,o),
(623,45,cs),
(623,19,o),
(643,0,o),
(668,0,cs)
);
},
{
closed = 1;
nodes = (
(282,181,o),
(302,201,o),
(302,226,cs),
(302,251,o),
(282,271,o),
(257,271,cs),
(232,271,o),
(212,251,o),
(212,226,cs),
(212,201,o),
(232,181,o),
(257,181,cs)
);
},
{
closed = 1;
nodes = (
(556,181,o),
(576,201,o),
(576,226,cs),
(576,251,o),
(556,271,o),
(531,271,cs),
(506,271,o),
(486,251,o),
(486,226,cs),
(486,201,o),
(506,181,o),
(531,181,cs)
);
},
{
closed = 1;
nodes = (
(419,362,o),
(439,382,o),
(439,407,cs),
(439,432,o),
(419,452,o),
(394,452,cs),
(369,452,o),
(349,432,o),
(349,407,cs),
(349,382,o),
(369,362,o),
(394,362,cs)
);
},
{
closed = 1;
nodes = (
(145,724,o),
(165,744,o),
(165,769,cs),
(165,794,o),
(145,814,o),
(120,814,cs),
(95,814,o),
(75,794,o),
(75,769,cs),
(75,744,o),
(95,724,o),
(120,724,cs)
);
},
{
closed = 1;
nodes = (
(283,543,o),
(302,563,o),
(302,588,cs),
(302,613,o),
(283,633,o),
(257,633,cs),
(232,633,o),
(212,613,o),
(212,588,cs),
(212,563,o),
(232,543,o),
(257,543,cs)
);
},
{
closed = 1;
nodes = (
(556,543,o),
(576,562,o),
(576,588,cs),
(576,613,o),
(556,633,o),
(531,633,cs),
(506,633,o),
(486,613,o),
(486,588,cs),
(486,562,o),
(506,543,o),
(531,543,cs)
);
},
{
closed = 1;
nodes = (
(693,724,o),
(713,744,o),
(713,769,cs),
(713,794,o),
(693,814,o),
(668,814,cs),
(643,814,o),
(623,794,o),
(623,769,cs),
(623,744,o),
(643,724,o),
(668,724,cs)
);
}
);
width = 788;
},
{
layerId = m003;
shapes = (
{
closed = 1;
nodes = (
(225,-145,o),
(310,-60,o),
(310,45,cs),
(310,150,o),
(225,235,o),
(120,235,cs),
(15,235,o),
(-70,150,o),
(-70,45,cs),
(-70,-60,o),
(15,-145,o),
(120,-145,cs)
);
},
{
closed = 1;
nodes = (
(773,-145,o),
(858,-61,o),
(858,45,cs),
(858,150,o),
(773,235,o),
(668,235,cs),
(563,235,o),
(478,150,o),
(478,45,cs),
(478,-61,o),
(563,-145,o),
(668,-145,cs)
);
},
{
closed = 1;
nodes = (
(362,36,o),
(447,121,o),
(447,226,cs),
(447,331,o),
(362,416,o),
(257,416,cs),
(152,416,o),
(67,331,o),
(67,226,cs),
(67,121,o),
(152,36,o),
(257,36,cs)
);
},
{
closed = 1;
nodes = (
(636,36,o),
(721,121,o),
(721,226,cs),
(721,331,o),
(636,416,o),
(531,416,cs),
(426,416,o),
(341,331,o),
(341,226,cs),
(341,121,o),
(426,36,o),
(531,36,cs)
);
},
{
closed = 1;
nodes = (
(499,217,o),
(584,302,o),
(584,407,cs),
(584,512,o),
(499,597,o),
(394,597,cs),
(289,597,o),
(204,512,o),
(204,407,cs),
(204,302,o),
(289,217,o),
(394,217,cs)
);
},
{
closed = 1;
nodes = (
(225,579,o),
(310,664,o),
(310,769,cs),
(310,874,o),
(225,959,o),
(120,959,cs),
(15,959,o),
(-70,874,o),
(-70,769,cs),
(-70,664,o),
(15,579,o),
(120,579,cs)
);
},
{
closed = 1;
nodes = (
(363,398,o),
(447,483,o),
(447,588,cs),
(447,693,o),
(363,778,o),
(257,778,cs),
(152,778,o),
(67,693,o),
(67,588,cs),
(67,483,o),
(152,398,o),
(257,398,cs)
);
},
{
closed = 1;
nodes = (
(636,398,o),
(721,482,o),
(721,588,cs),
(721,693,o),
(636,778,o),
(531,778,cs),
(426,778,o),
(341,693,o),
(341,588,cs),
(341,482,o),
(426,398,o),
(531,398,cs)
);
},
{
closed = 1;
nodes = (
(773,579,o),
(858,664,o),
(858,769,cs),
(858,874,o),
(773,959,o),
(668,959,cs),
(563,959,o),
(478,874,o),
(478,769,cs),
(478,664,o),
(563,579,o),
(668,579,cs)
);
}
);
width = 788;
},
{
layerId = m004;
shapes = (
{
closed = 1;
nodes = (
(170,-45,o),
(210,-5,o),
(210,45,cs),
(210,95,o),
(170,135,o),
(120,135,cs),
(70,135,o),
(30,95,o),
(30,45,cs),
(30,-5,o),
(70,-45,o),
(120,-45,cs)
);
},
{
closed = 1;
nodes = (
(718,-45,o),
(758,-6,o),
(758,45,cs),
(758,95,o),
(718,135,o),
(668,135,cs),
(618,135,o),
(578,95,o),
(578,45,cs),
(578,-6,o),
(618,-45,o),
(668,-45,cs)
);
},
{
closed = 1;
nodes = (
(307,136,o),
(347,176,o),
(347,226,cs),
(347,276,o),
(307,316,o),
(257,316,cs),
(207,316,o),
(167,276,o),
(167,226,cs),
(167,176,o),
(207,136,o),
(257,136,cs)
);
},
{
closed = 1;
nodes = (
(581,136,o),
(621,176,o),
(621,226,cs),
(621,276,o),
(581,316,o),
(531,316,cs),
(481,316,o),
(441,276,o),
(441,226,cs),
(441,176,o),
(481,136,o),
(531,136,cs)
);
},
{
closed = 1;
nodes = (
(444,317,o),
(484,357,o),
(484,407,cs),
(484,457,o),
(444,497,o),
(394,497,cs),
(344,497,o),
(304,457,o),
(304,407,cs),
(304,357,o),
(344,317,o),
(394,317,cs)
);
},
{
closed = 1;
nodes = (
(170,679,o),
(210,719,o),
(210,769,cs),
(210,819,o),
(170,859,o),
(120,859,cs),
(70,859,o),
(30,819,o),
(30,769,cs),
(30,719,o),
(70,679,o),
(120,679,cs)
);
},
{
closed = 1;
nodes = (
(308,498,o),
(347,538,o),
(347,588,cs),
(347,638,o),
(308,678,o),
(257,678,cs),
(207,678,o),
(167,638,o),
(167,588,cs),
(167,538,o),
(207,498,o),
(257,498,cs)
);
},
{
closed = 1;
nodes = (
(581,498,o),
(621,537,o),
(621,588,cs),
(621,638,o),
(581,678,o),
(531,678,cs),
(481,678,o),
(441,638,o),
(441,588,cs),
(441,537,o),
(481,498,o),
(531,498,cs)
);
},
{
closed = 1;
nodes = (
(718,679,o),
(758,719,o),
(758,769,cs),
(758,819,o),
(718,859,o),
(668,859,cs),
(618,859,o),
(578,819,o),
(578,769,cs),
(578,719,o),
(618,679,o),
(668,679,cs)
);
}
);
width = 788;
}
);
unicode = 88;
}
{
glyphname = Y;
layers = (
{
layerId = m01;
shapes = (
{
closed = 1;
nodes = (
(419,0,o),
(439,20,o),
(439,45,cs),
(439,70,o),
(419,90,o),
(394,90,cs),
(368,90,o),
(349,70,o),
(349,45,cs),
(349,20,o),
(368,0,o),
(394,0,cs)
);
},
{
closed = 1;
nodes = (
(419,181,o),
(439,201,o),
(439,226,cs),
(439,251,o),
(419,271,o),
(394,271,cs),
(369,271,o),
(349,251,o),
(349,226,cs),
(349,201,o),
(369,181,o),
(394,181,cs)
);
},
{
closed = 1;
nodes = (
(419,362,o),
(439,382,o),
(439,407,cs),
(439,432,o),
(419,452,o),
(394,452,cs),
(369,452,o),
(349,432,o),
(349,407,cs),
(349,382,o),
(369,362,o),
(394,362,cs)
);
},
{
closed = 1;
nodes = (
(145,724,o),
(165,744,o),
(165,769,cs),
(165,794,o),
(145,814,o),
(120,814,cs),
(95,814,o),
(75,794,o),
(75,769,cs),
(75,744,o),
(95,724,o),
(120,724,cs)
);
},
{
closed = 1;
nodes = (
(283,543,o),
(302,563,o),
(302,588,cs),
(302,613,o),
(283,633,o),
(257,633,cs),
(232,633,o),
(212,613,o),
(212,588,cs),
(212,563,o),
(232,543,o),
(257,543,cs)
);
},
{
closed = 1;
nodes = (
(556,543,o),
(576,562,o),
(576,588,cs),
(576,613,o),
(556,633,o),
(531,633,cs),
(506,633,o),
(486,613,o),
(486,588,cs),
(486,562,o),
(506,543,o),
(531,543,cs)
);
},
{
closed = 1;
nodes = (
(693,724,o),
(713,744,o),
(713,769,cs),
(713,794,o),
(693,814,o),
(668,814,cs),
(643,814,o),
(623,794,o),
(623,769,cs),
(623,744,o),
(643,724,o),
(668,724,cs)
);
}
);
width = 788;
},
{
layerId = m003;
shapes = (
{
closed = 1;
nodes = (
(499,-145,o),
(584,-60,o),
(584,45,cs),
(584,150,o),
(499,235,o),
(394,235,cs),
(288,235,o),
(204,150,o),
(204,45,cs),
(204,-60,o),
(288,-145,o),
(394,-145,cs)
);
},
{
closed = 1;
nodes = (
(499,36,o),
(584,121,o),
(584,226,cs),
(584,331,o),
(499,416,o),
(394,416,cs),
(289,416,o),
(204,331,o),
(204,226,cs),
(204,121,o),
(289,36,o),
(394,36,cs)
);
},
{
closed = 1;
nodes = (
(499,217,o),
(584,302,o),
(584,407,cs),
(584,512,o),
(499,597,o),
(394,597,cs),
(289,597,o),
(204,512,o),
(204,407,cs),
(204,302,o),
(289,217,o),
(394,217,cs)
);
},
{
closed = 1;
nodes = (
(225,579,o),
(310,664,o),
(310,769,cs),
(310,874,o),
(225,959,o),
(120,959,cs),
(15,959,o),
(-70,874,o),
(-70,769,cs),
(-70,664,o),
(15,579,o),
(120,579,cs)
);
},
{
closed = 1;
nodes = (
(363,398,o),
(447,483,o),
(447,588,cs),
(447,693,o),
(363,778,o),
(257,778,cs),
(152,778,o),
(67,693,o),
(67,588,cs),
(67,483,o),
(152,398,o),
(257,398,cs)
);
},
{
closed = 1;
nodes = (
(636,398,o),
(721,482,o),
(721,588,cs),
(721,693,o),
(636,778,o),
(531,778,cs),
(426,778,o),
(341,693,o),
(341,588,cs),
(341,482,o),
(426,398,o),
(531,398,cs)
);
},
{
closed = 1;
nodes = (
(773,579,o),
(858,664,o),
(858,769,cs),
(858,874,o),
(773,959,o),
(668,959,cs),
(563,959,o),
(478,874,o),
(478,769,cs),
(478,664,o),
(563,579,o),
(668,579,cs)
);
}
);
width = 788;
},
{
layerId = m004;
shapes = (
{
closed = 1;
nodes = (
(444,-45,o),
(484,-5,o),
(484,45,cs),
(484,95,o),
(444,135,o),
(394,135,cs),
(343,135,o),
(304,95,o),
(304,45,cs),
(304,-5,o),
(343,-45,o),
(394,-45,cs)
);
},
{
closed = 1;
nodes = (
(444,136,o),
(484,176,o),
(484,226,cs),
(484,276,o),
(444,316,o),
(394,316,cs),
(344,316,o),
(304,276,o),
(304,226,cs),
(304,176,o),
(344,136,o),
(394,136,cs)
);
},
{
closed = 1;
nodes = (
(444,317,o),
(484,357,o),
(484,407,cs),
(484,457,o),
(444,497,o),
(394,497,cs),
(344,497,o),
(304,457,o),
(304,407,cs),
(304,357,o),
(344,317,o),
(394,317,cs)
);
},
{
closed = 1;
nodes = (
(170,679,o),
(210,719,o),
(210,769,cs),
(210,819,o),
(170,859,o),
(120,859,cs),
(70,859,o),
(30,819,o),
(30,769,cs),
(30,719,o),
(70,679,o),
(120,679,cs)
);
},
{
closed = 1;
nodes = (
(308,498,o),
(347,538,o),
(347,588,cs),
(347,638,o),
(308,678,o),
(257,678,cs),
(207,678,o),
(167,638,o),
(167,588,cs),
(167,538,o),
(207,498,o),
(257,498,cs)
);
},
{
closed = 1;
nodes = (
(581,498,o),
(621,537,o),
(621,588,cs),
(621,638,o),
(581,678,o),
(531,678,cs),
(481,678,o),
(441,638,o),
(441,588,cs),
(441,537,o),
(481,498,o),
(531,498,cs)
);
},
{
closed = 1;
nodes = (
(718,679,o),
(758,719,o),
(758,769,cs),
(758,819,o),
(718,859,o),
(668,859,cs),
(618,859,o),
(578,819,o),
(578,769,cs),
(578,719,o),
(618,679,o),
(668,679,cs)
);
}
);
width = 788;
}
);
unicode = 89;
}
{
glyphname = Z;
layers = (
{
layerId = m01;
shapes = (
{
closed = 1;
nodes = (
(145,0,o),
(165,20,o),
(165,45,cs),
(165,70,o),
(145,90,o),
(120,90,cs),
(95,90,o),
(75,70,o),
(75,45,cs),
(75,20,o),
(95,0,o),
(120,0,cs)
);
},
{
closed = 1;
nodes = (
(283,0,o),
(302,20,o),
(302,45,cs),
(302,70,o),
(283,90,o),
(257,90,cs),
(232,90,o),
(212,70,o),
(212,45,cs),
(212,20,o),
(232,0,o),
(257,0,cs)
);
},
{
closed = 1;
nodes = (
(419,0,o),
(439,20,o),
(439,45,cs),
(439,70,o),
(419,90,o),
(394,90,cs),
(368,90,o),
(349,70,o),
(349,45,cs),
(349,20,o),
(368,0,o),
(394,0,cs)
);
},
{
closed = 1;
nodes = (
(556,0,o),
(576,19,o),
(576,45,cs),
(576,70,o),
(556,90,o),
(531,90,cs),
(506,90,o),
(486,70,o),
(486,45,cs),
(486,19,o),
(506,0,o),
(531,0,cs)
);
},
{
closed = 1;
nodes = (
(693,0,o),
(713,19,o),
(713,45,cs),
(713,70,o),
(693,90,o),
(668,90,cs),
(643,90,o),
(623,70,o),
(623,45,cs),
(623,19,o),
(643,0,o),
(668,0,cs)
);
},
{
closed = 1;
nodes = (
(282,181,o),
(302,201,o),
(302,226,cs),
(302,251,o),
(282,271,o),
(257,271,cs),
(232,271,o),
(212,251,o),
(212,226,cs),
(212,201,o),
(232,181,o),
(257,181,cs)
);
},
{
closed = 1;
nodes = (
(419,362,o),
(439,382,o),
(439,407,cs),
(439,432,o),
(419,452,o),
(394,452,cs),
(369,452,o),
(349,432,o),
(349,407,cs),
(349,382,o),
(369,362,o),
(394,362,cs)
);
},
{
closed = 1;
nodes = (
(145,724,o),
(165,744,o),
(165,769,cs),
(165,794,o),
(145,814,o),
(120,814,cs),
(95,814,o),
(75,794,o),
(75,769,cs),
(75,744,o),
(95,724,o),
(120,724,cs)
);
},
{
closed = 1;
nodes = (
(556,543,o),
(576,562,o),
(576,588,cs),
(576,613,o),
(556,633,o),
(531,633,cs),
(506,633,o),
(486,613,o),
(486,588,cs),
(486,562,o),
(506,543,o),
(531,543,cs)
);
},
{
closed = 1;
nodes = (
(282,724,o),
(302,744,o),
(302,769,cs),
(302,794,o),
(282,814,o),
(257,814,cs),
(232,814,o),
(212,794,o),
(212,769,cs),
(212,744,o),
(232,724,o),
(257,724,cs)
);
},
{
closed = 1;
nodes = (
(419,724,o),
(439,744,o),
(439,769,cs),
(439,794,o),
(419,814,o),
(394,814,cs),
(369,814,o),
(349,794,o),
(349,769,cs),
(349,744,o),
(369,724,o),
(394,724,cs)
);
},
{
closed = 1;
nodes = (
(556,724,o),
(576,744,o),
(576,769,cs),
(576,794,o),
(556,814,o),
(531,814,cs),
(506,814,o),
(486,794,o),
(486,769,cs),
(486,744,o),
(506,724,o),
(531,724,cs)
);
},
{
closed = 1;
nodes = (
(693,724,o),
(713,744,o),
(713,769,cs),
(713,794,o),
(693,814,o),
(668,814,cs),
(643,814,o),
(623,794,o),
(623,769,cs),
(623,744,o),
(643,724,o),
(668,724,cs)
);
}
);
width = 788;
},
{
layerId = m003;
shapes = (
{
closed = 1;
nodes = (
(225,-145,o),
(310,-60,o),
(310,45,cs),
(310,150,o),
(225,235,o),
(120,235,cs),
(15,235,o),
(-70,150,o),
(-70,45,cs),
(-70,-60,o),
(15,-145,o),
(120,-145,cs)
);
},
{
closed = 1;
nodes = (
(363,-145,o),
(447,-60,o),
(447,45,cs),
(447,150,o),
(363,235,o),
(257,235,cs),
(152,235,o),
(67,150,o),
(67,45,cs),
(67,-60,o),
(152,-145,o),
(257,-145,cs)
);
},
{
closed = 1;
nodes = (
(499,-145,o),
(584,-60,o),
(584,45,cs),
(584,150,o),
(499,235,o),
(394,235,cs),
(288,235,o),
(204,150,o),
(204,45,cs),
(204,-60,o),
(288,-145,o),
(394,-145,cs)
);
},
{
closed = 1;
nodes = (
(636,-145,o),
(721,-61,o),
(721,45,cs),
(721,150,o),
(636,235,o),
(531,235,cs),
(426,235,o),
(341,150,o),
(341,45,cs),
(341,-61,o),
(426,-145,o),
(531,-145,cs)
);
},
{
closed = 1;
nodes = (
(773,-145,o),
(858,-61,o),
(858,45,cs),
(858,150,o),
(773,235,o),
(668,235,cs),
(563,235,o),
(478,150,o),
(478,45,cs),
(478,-61,o),
(563,-145,o),
(668,-145,cs)
);
},
{
closed = 1;
nodes = (
(362,36,o),
(447,121,o),
(447,226,cs),
(447,331,o),
(362,416,o),
(257,416,cs),
(152,416,o),
(67,331,o),
(67,226,cs),
(67,121,o),
(152,36,o),
(257,36,cs)
);
},
{
closed = 1;
nodes = (
(499,217,o),
(584,302,o),
(584,407,cs),
(584,512,o),
(499,597,o),
(394,597,cs),
(289,597,o),
(204,512,o),
(204,407,cs),
(204,302,o),
(289,217,o),
(394,217,cs)
);
},
{
closed = 1;
nodes = (
(225,579,o),
(310,664,o),
(310,769,cs),
(310,874,o),
(225,959,o),
(120,959,cs),
(15,959,o),
(-70,874,o),
(-70,769,cs),
(-70,664,o),
(15,579,o),
(120,579,cs)
);
},
{
closed = 1;
nodes = (
(636,398,o),
(721,482,o),
(721,588,cs),
(721,693,o),
(636,778,o),
(531,778,cs),
(426,778,o),
(341,693,o),
(341,588,cs),
(341,482,o),
(426,398,o),
(531,398,cs)
);
},
{
closed = 1;
nodes = (
(362,579,o),
(447,664,o),
(447,769,cs),
(447,874,o),
(362,959,o),
(257,959,cs),
(152,959,o),
(67,874,o),
(67,769,cs),
(67,664,o),
(152,579,o),
(257,579,cs)
);
},
{
closed = 1;
nodes = (
(499,579,o),
(584,664,o),
(584,769,cs),
(584,874,o),
(499,959,o),
(394,959,cs),
(289,959,o),
(204,874,o),
(204,769,cs),
(204,664,o),
(289,579,o),
(394,579,cs)
);
},
{
closed = 1;
nodes = (
(636,579,o),
(721,664,o),
(721,769,cs),
(721,874,o),
(636,959,o),
(531,959,cs),
(426,959,o),
(341,874,o),
(341,769,cs),
(341,664,o),
(426,579,o),
(531,579,cs)
);
},
{
closed = 1;
nodes = (
(773,579,o),
(858,664,o),
(858,769,cs),
(858,874,o),
(773,959,o),
(668,959,cs),
(563,959,o),
(478,874,o),
(478,769,cs),
(478,664,o),
(563,579,o),
(668,579,cs)
);
}
);
width = 788;
},
{
layerId = m004;
shapes = (
{
closed = 1;
nodes = (
(170,-45,o),
(210,-5,o),
(210,45,cs),
(210,95,o),
(170,135,o),
(120,135,cs),
(70,135,o),
(30,95,o),
(30,45,cs),
(30,-5,o),
(70,-45,o),
(120,-45,cs)
);
},
{
closed = 1;
nodes = (
(308,-45,o),
(347,-5,o),
(347,45,cs),
(347,95,o),
(308,135,o),
(257,135,cs),
(207,135,o),
(167,95,o),
(167,45,cs),
(167,-5,o),
(207,-45,o),
(257,-45,cs)
);
},
{
closed = 1;
nodes = (
(444,-45,o),
(484,-5,o),
(484,45,cs),
(484,95,o),
(444,135,o),
(394,135,cs),
(343,135,o),
(304,95,o),
(304,45,cs),
(304,-5,o),
(343,-45,o),
(394,-45,cs)
);
},
{
closed = 1;
nodes = (
(581,-45,o),
(621,-6,o),
(621,45,cs),
(621,95,o),
(581,135,o),
(531,135,cs),
(481,135,o),
(441,95,o),
(441,45,cs),
(441,-6,o),
(481,-45,o),
(531,-45,cs)
);
},
{
closed = 1;
nodes = (
(718,-45,o),
(758,-6,o),
(758,45,cs),
(758,95,o),
(718,135,o),
(668,135,cs),
(618,135,o),
(578,95,o),
(578,45,cs),
(578,-6,o),
(618,-45,o),
(668,-45,cs)
);
},
{
closed = 1;
nodes = (
(307,136,o),
(347,176,o),
(347,226,cs),
(347,276,o),
(307,316,o),
(257,316,cs),
(207,316,o),
(167,276,o),
(167,226,cs),
(167,176,o),
(207,136,o),
(257,136,cs)
);
},
{
closed = 1;
nodes = (
(444,317,o),
(484,357,o),
(484,407,cs),
(484,457,o),
(444,497,o),
(394,497,cs),
(344,497,o),
(304,457,o),
(304,407,cs),
(304,357,o),
(344,317,o),
(394,317,cs)
);
},
{
closed = 1;
nodes = (
(170,679,o),
(210,719,o),
(210,769,cs),
(210,819,o),
(170,859,o),
(120,859,cs),
(70,859,o),
(30,819,o),
(30,769,cs),
(30,719,o),
(70,679,o),
(120,679,cs)
);
},
{
closed = 1;
nodes = (
(581,498,o),
(621,537,o),
(621,588,cs),
(621,638,o),
(581,678,o),
(531,678,cs),
(481,678,o),
(441,638,o),
(441,588,cs),
(441,537,o),
(481,498,o),
(531,498,cs)
);
},
{
closed = 1;
nodes = (
(307,679,o),
(347,719,o),
(347,769,cs),
(347,819,o),
(307,859,o),
(257,859,cs),
(207,859,o),
(167,819,o),
(167,769,cs),
(167,719,o),
(207,679,o),
(257,679,cs)
);
},
{
closed = 1;
nodes = (
(444,679,o),
(484,719,o),
(484,769,cs),
(484,819,o),
(444,859,o),
(394,859,cs),
(344,859,o),
(304,819,o),
(304,769,cs),
(304,719,o),
(344,679,o),
(394,679,cs)
);
},
{
closed = 1;
nodes = (
(581,679,o),
(621,719,o),
(621,769,cs),
(621,819,o),
(581,859,o),
(531,859,cs),
(481,859,o),
(441,819,o),
(441,769,cs),
(441,719,o),
(481,679,o),
(531,679,cs)
);
},
{
closed = 1;
nodes = (
(718,679,o),
(758,719,o),
(758,769,cs),
(758,819,o),
(718,859,o),
(668,859,cs),
(618,859,o),
(578,819,o),
(578,769,cs),
(578,719,o),
(618,679,o),
(668,679,cs)
);
}
);
width = 788;
}
);
unicode = 90;
}
{
glyphname = a;
layers = (
{
layerId = m01;
shapes = (
{
closed = 1;
nodes = (
(145,181,o),
(165,201,o),
(165,226,cs),
(165,251,o),
(145,271,o),
(120,271,cs),
(95,271,o),
(75,251,o),
(75,226,cs),
(75,201,o),
(95,181,o),
(120,181,cs)
);
},
{
closed = 1;
nodes = (
(145,0,o),
(165,20,o),
(165,45,cs),
(165,70,o),
(145,90,o),
(120,90,cs),
(95,90,o),
(75,70,o),
(75,45,cs),
(75,20,o),
(95,0,o),
(120,0,cs)
);
},
{
closed = 1;
nodes = (
(283,0,o),
(302,20,o),
(302,45,cs),
(302,70,o),
(283,90,o),
(257,90,cs),
(232,90,o),
(212,70,o),
(212,45,cs),
(212,20,o),
(232,0,o),
(257,0,cs)
);
},
{
closed = 1;
nodes = (
(419,181,o),
(439,201,o),
(439,226,cs),
(439,251,o),
(419,271,o),
(394,271,cs),
(368,271,o),
(349,251,o),
(349,226,cs),
(349,201,o),
(368,181,o),
(394,181,cs)
);
},
{
closed = 1;
nodes = (
(556,0,o),
(576,19,o),
(576,45,cs),
(576,70,o),
(556,90,o),
(531,90,cs),
(506,90,o),
(486,70,o),
(486,45,cs),
(486,19,o),
(506,0,o),
(531,0,cs)
);
},
{
closed = 1;
nodes = (
(282,362,o),
(302,382,o),
(302,407,cs),
(302,432,o),
(282,452,o),
(257,452,cs),
(232,452,o),
(212,432,o),
(212,407,cs),
(212,382,o),
(232,362,o),
(257,362,cs)
);
},
{
closed = 1;
nodes = (
(419,362,o),
(439,382,o),
(439,407,cs),
(439,432,o),
(419,452,o),
(394,452,cs),
(369,452,o),
(349,432,o),
(349,407,cs),
(349,382,o),
(369,362,o),
(394,362,cs)
);
},
{
closed = 1;
nodes = (
(556,362,o),
(576,382,o),
(576,407,cs),
(576,432,o),
(556,452,o),
(531,452,cs),
(506,452,o),
(486,432,o),
(486,407,cs),
(486,382,o),
(506,362,o),
(531,362,cs)
);
},
{
closed = 1;
nodes = (
(145,724,o),
(165,744,o),
(165,769,cs),
(165,794,o),
(145,814,o),
(120,814,cs),
(95,814,o),
(75,794,o),
(75,769,cs),
(75,744,o),
(95,724,o),
(120,724,cs)
);
},
{
closed = 1;
nodes = (
(556,543,o),
(576,562,o),
(576,588,cs),
(576,613,o),
(556,633,o),
(531,633,cs),
(506,633,o),
(486,613,o),
(486,588,cs),
(486,562,o),
(506,543,o),
(531,543,cs)
);
},
{
closed = 1;
nodes = (
(282,724,o),
(302,744,o),
(302,769,cs),
(302,794,o),
(282,814,o),
(257,814,cs),
(232,814,o),
(212,794,o),
(212,769,cs),
(212,744,o),
(232,724,o),
(257,724,cs)
);
},
{
closed = 1;
nodes = (
(419,724,o),
(439,744,o),
(439,769,cs),
(439,794,o),
(419,814,o),
(394,814,cs),
(369,814,o),
(349,794,o),
(349,769,cs),
(349,744,o),
(369,724,o),
(394,724,cs)
);
},
{
closed = 1;
nodes = (
(556,181,o),
(576,201,o),
(576,226,cs),
(576,251,o),
(556,271,o),
(531,271,cs),
(506,271,o),
(486,251,o),
(486,226,cs),
(486,201,o),
(506,181,o),
(531,181,cs)
);
}
);
width = 651;
},
{
layerId = m003;
shapes = (
{
closed = 1;
nodes = (
(225,36,o),
(310,121,o),
(310,226,cs),
(310,331,o),
(225,416,o),
(120,416,cs),
(15,416,o),
(-70,331,o),
(-70,226,cs),
(-70,121,o),
(15,36,o),
(120,36,cs)
);
},
{
closed = 1;
nodes = (
(225,-145,o),
(310,-60,o),
(310,45,cs),
(310,150,o),
(225,235,o),
(120,235,cs),
(15,235,o),
(-70,150,o),
(-70,45,cs),
(-70,-60,o),
(15,-145,o),
(120,-145,cs)
);
},
{
closed = 1;
nodes = (
(363,-145,o),
(447,-60,o),
(447,45,cs),
(447,150,o),
(363,235,o),
(257,235,cs),
(152,235,o),
(67,150,o),
(67,45,cs),
(67,-60,o),
(152,-145,o),
(257,-145,cs)
);
},
{
closed = 1;
nodes = (
(499,36,o),
(584,121,o),
(584,226,cs),
(584,331,o),
(499,416,o),
(394,416,cs),
(288,416,o),
(204,331,o),
(204,226,cs),
(204,121,o),
(288,36,o),
(394,36,cs)
);
},
{
closed = 1;
nodes = (
(636,-145,o),
(721,-61,o),
(721,45,cs),
(721,150,o),
(636,235,o),
(531,235,cs),
(426,235,o),
(341,150,o),
(341,45,cs),
(341,-61,o),
(426,-145,o),
(531,-145,cs)
);
},
{
closed = 1;
nodes = (
(362,217,o),
(447,302,o),
(447,407,cs),
(447,512,o),
(362,597,o),
(257,597,cs),
(152,597,o),
(67,512,o),
(67,407,cs),
(67,302,o),
(152,217,o),
(257,217,cs)
);
},
{
closed = 1;
nodes = (
(499,217,o),
(584,302,o),
(584,407,cs),
(584,512,o),
(499,597,o),
(394,597,cs),
(289,597,o),
(204,512,o),
(204,407,cs),
(204,302,o),
(289,217,o),
(394,217,cs)
);
},
{
closed = 1;
nodes = (
(636,217,o),
(721,302,o),
(721,407,cs),
(721,512,o),
(636,597,o),
(531,597,cs),
(426,597,o),
(341,512,o),
(341,407,cs),
(341,302,o),
(426,217,o),
(531,217,cs)
);
},
{
closed = 1;
nodes = (
(225,579,o),
(310,664,o),
(310,769,cs),
(310,874,o),
(225,959,o),
(120,959,cs),
(15,959,o),
(-70,874,o),
(-70,769,cs),
(-70,664,o),
(15,579,o),
(120,579,cs)
);
},
{
closed = 1;
nodes = (
(636,398,o),
(721,482,o),
(721,588,cs),
(721,693,o),
(636,778,o),
(531,778,cs),
(426,778,o),
(341,693,o),
(341,588,cs),
(341,482,o),
(426,398,o),
(531,398,cs)
);
},
{
closed = 1;
nodes = (
(362,579,o),
(447,664,o),
(447,769,cs),
(447,874,o),
(362,959,o),
(257,959,cs),
(152,959,o),
(67,874,o),
(67,769,cs),
(67,664,o),
(152,579,o),
(257,579,cs)
);
},
{
closed = 1;
nodes = (
(499,579,o),
(584,664,o),
(584,769,cs),
(584,874,o),
(499,959,o),
(394,959,cs),
(289,959,o),
(204,874,o),
(204,769,cs),
(204,664,o),
(289,579,o),
(394,579,cs)
);
},
{
closed = 1;
nodes = (
(636,36,o),
(721,121,o),
(721,226,cs),
(721,331,o),
(636,416,o),
(531,416,cs),
(426,416,o),
(341,331,o),
(341,226,cs),
(341,121,o),
(426,36,o),
(531,36,cs)
);
}
);
width = 651;
},
{
associatedMasterId = m01;
layerId = "F22BCDF1-727D-45D2-A726-E9090E10A0F7";
width = 600;
},
{
layerId = m004;
shapes = (
{
closed = 1;
nodes = (
(170,136,o),
(210,176,o),
(210,226,cs),
(210,276,o),
(170,316,o),
(120,316,cs),
(70,316,o),
(30,276,o),
(30,226,cs),
(30,176,o),
(70,136,o),
(120,136,cs)
);
},
{
closed = 1;
nodes = (
(170,-45,o),
(210,-5,o),
(210,45,cs),
(210,95,o),
(170,135,o),
(120,135,cs),
(70,135,o),
(30,95,o),
(30,45,cs),
(30,-5,o),
(70,-45,o),
(120,-45,cs)
);
},
{
closed = 1;
nodes = (
(308,-45,o),
(347,-5,o),
(347,45,cs),
(347,95,o),
(308,135,o),
(257,135,cs),
(207,135,o),
(167,95,o),
(167,45,cs),
(167,-5,o),
(207,-45,o),
(257,-45,cs)
);
},
{
closed = 1;
nodes = (
(444,136,o),
(484,176,o),
(484,226,cs),
(484,276,o),
(444,316,o),
(394,316,cs),
(343,316,o),
(304,276,o),
(304,226,cs),
(304,176,o),
(343,136,o),
(394,136,cs)
);
},
{
closed = 1;
nodes = (
(581,-45,o),
(621,-6,o),
(621,45,cs),
(621,95,o),
(581,135,o),
(531,135,cs),
(481,135,o),
(441,95,o),
(441,45,cs),
(441,-6,o),
(481,-45,o),
(531,-45,cs)
);
},
{
closed = 1;
nodes = (
(307,317,o),
(347,357,o),
(347,407,cs),
(347,457,o),
(307,497,o),
(257,497,cs),
(207,497,o),
(167,457,o),
(167,407,cs),
(167,357,o),
(207,317,o),
(257,317,cs)
);
},
{
closed = 1;
nodes = (
(444,317,o),
(484,357,o),
(484,407,cs),
(484,457,o),
(444,497,o),
(394,497,cs),
(344,497,o),
(304,457,o),
(304,407,cs),
(304,357,o),
(344,317,o),
(394,317,cs)
);
},
{
closed = 1;
nodes = (
(581,317,o),
(621,357,o),
(621,407,cs),
(621,457,o),
(581,497,o),
(531,497,cs),
(481,497,o),
(441,457,o),
(441,407,cs),
(441,357,o),
(481,317,o),
(531,317,cs)
);
},
{
closed = 1;
nodes = (
(170,679,o),
(210,719,o),
(210,769,cs),
(210,819,o),
(170,859,o),
(120,859,cs),
(70,859,o),
(30,819,o),
(30,769,cs),
(30,719,o),
(70,679,o),
(120,679,cs)
);
},
{
closed = 1;
nodes = (
(581,498,o),
(621,537,o),
(621,588,cs),
(621,638,o),
(581,678,o),
(531,678,cs),
(481,678,o),
(441,638,o),
(441,588,cs),
(441,537,o),
(481,498,o),
(531,498,cs)
);
},
{
closed = 1;
nodes = (
(307,679,o),
(347,719,o),
(347,769,cs),
(347,819,o),
(307,859,o),
(257,859,cs),
(207,859,o),
(167,819,o),
(167,769,cs),
(167,719,o),
(207,679,o),
(257,679,cs)
);
},
{
closed = 1;
nodes = (
(444,679,o),
(484,719,o),
(484,769,cs),
(484,819,o),
(444,859,o),
(394,859,cs),
(344,859,o),
(304,819,o),
(304,769,cs),
(304,719,o),
(344,679,o),
(394,679,cs)
);
},
{
closed = 1;
nodes = (
(581,136,o),
(621,176,o),
(621,226,cs),
(621,276,o),
(581,316,o),
(531,316,cs),
(481,316,o),
(441,276,o),
(441,226,cs),
(441,176,o),
(481,136,o),
(531,136,cs)
);
}
);
width = 651;
}
);
unicode = 97;
}
{
glyphname = c;
layers = (
{
layerId = m01;
shapes = (
{
closed = 1;
nodes = (
(145,181,o),
(165,201,o),
(165,226,cs),
(165,251,o),
(145,271,o),
(120,271,cs),
(95,271,o),
(75,251,o),
(75,226,cs),
(75,201,o),
(95,181,o),
(120,181,cs)
);
},
{
closed = 1;
nodes = (
(283,0,o),
(302,20,o),
(302,45,cs),
(302,70,o),
(283,90,o),
(257,90,cs),
(232,90,o),
(212,70,o),
(212,45,cs),
(212,20,o),
(232,0,o),
(257,0,cs)
);
},
{
closed = 1;
nodes = (
(419,0,o),
(439,20,o),
(439,45,cs),
(439,70,o),
(419,90,o),
(394,90,cs),
(368,90,o),
(349,70,o),
(349,45,cs),
(349,20,o),
(368,0,o),
(394,0,cs)
);
},
{
closed = 1;
nodes = (
(145,362,o),
(165,382,o),
(165,407,cs),
(165,432,o),
(145,452,o),
(120,452,cs),
(95,452,o),
(75,432,o),
(75,407,cs),
(75,382,o),
(95,362,o),
(120,362,cs)
);
},
{
closed = 1;
nodes = (
(145,543,o),
(165,563,o),
(165,588,cs),
(165,613,o),
(145,633,o),
(120,633,cs),
(95,633,o),
(75,613,o),
(75,588,cs),
(75,563,o),
(95,543,o),
(120,543,cs)
);
},
{
closed = 1;
nodes = (
(282,724,o),
(302,744,o),
(302,769,cs),
(302,794,o),
(282,814,o),
(257,814,cs),
(232,814,o),
(212,794,o),
(212,769,cs),
(212,744,o),
(232,724,o),
(257,724,cs)
);
},
{
closed = 1;
nodes = (
(419,724,o),
(439,744,o),
(439,769,cs),
(439,794,o),
(419,814,o),
(394,814,cs),
(369,814,o),
(349,794,o),
(349,769,cs),
(349,744,o),
(369,724,o),
(394,724,cs)
);
}
);
width = 514;
},
{
layerId = m003;
shapes = (
{
closed = 1;
nodes = (
(225,36,o),
(310,121,o),
(310,226,cs),
(310,331,o),
(225,416,o),
(120,416,cs),
(15,416,o),
(-70,331,o),
(-70,226,cs),
(-70,121,o),
(15,36,o),
(120,36,cs)
);
},
{
closed = 1;
nodes = (
(363,-145,o),
(447,-60,o),
(447,45,cs),
(447,150,o),
(363,235,o),
(257,235,cs),
(152,235,o),
(67,150,o),
(67,45,cs),
(67,-60,o),
(152,-145,o),
(257,-145,cs)
);
},
{
closed = 1;
nodes = (
(499,-145,o),
(584,-60,o),
(584,45,cs),
(584,150,o),
(499,235,o),
(394,235,cs),
(288,235,o),
(204,150,o),
(204,45,cs),
(204,-60,o),
(288,-145,o),
(394,-145,cs)
);
},
{
closed = 1;
nodes = (
(225,217,o),
(310,302,o),
(310,407,cs),
(310,512,o),
(225,597,o),
(120,597,cs),
(15,597,o),
(-70,512,o),
(-70,407,cs),
(-70,302,o),
(15,217,o),
(120,217,cs)
);
},
{
closed = 1;
nodes = (
(225,398,o),
(310,483,o),
(310,588,cs),
(310,693,o),
(225,778,o),
(120,778,cs),
(15,778,o),
(-70,693,o),
(-70,588,cs),
(-70,483,o),
(15,398,o),
(120,398,cs)
);
},
{
closed = 1;
nodes = (
(362,579,o),
(447,664,o),
(447,769,cs),
(447,874,o),
(362,959,o),
(257,959,cs),
(152,959,o),
(67,874,o),
(67,769,cs),
(67,664,o),
(152,579,o),
(257,579,cs)
);
},
{
closed = 1;
nodes = (
(499,579,o),
(584,664,o),
(584,769,cs),
(584,874,o),
(499,959,o),
(394,959,cs),
(289,959,o),
(204,874,o),
(204,769,cs),
(204,664,o),
(289,579,o),
(394,579,cs)
);
}
);
width = 514;
},
{
layerId = m004;
shapes = (
{
closed = 1;
nodes = (
(170,136,o),
(210,176,o),
(210,226,cs),
(210,276,o),
(170,316,o),
(120,316,cs),
(70,316,o),
(30,276,o),
(30,226,cs),
(30,176,o),
(70,136,o),
(120,136,cs)
);
},
{
closed = 1;
nodes = (
(308,-45,o),
(347,-5,o),
(347,45,cs),
(347,95,o),
(308,135,o),
(257,135,cs),
(207,135,o),
(167,95,o),
(167,45,cs),
(167,-5,o),
(207,-45,o),
(257,-45,cs)
);
},
{
closed = 1;
nodes = (
(444,-45,o),
(484,-5,o),
(484,45,cs),
(484,95,o),
(444,135,o),
(394,135,cs),
(343,135,o),
(304,95,o),
(304,45,cs),
(304,-5,o),
(343,-45,o),
(394,-45,cs)
);
},
{
closed = 1;
nodes = (
(170,317,o),
(210,357,o),
(210,407,cs),
(210,457,o),
(170,497,o),
(120,497,cs),
(70,497,o),
(30,457,o),
(30,407,cs),
(30,357,o),
(70,317,o),
(120,317,cs)
);
},
{
closed = 1;
nodes = (
(170,498,o),
(210,538,o),
(210,588,cs),
(210,638,o),
(170,678,o),
(120,678,cs),
(70,678,o),
(30,638,o),
(30,588,cs),
(30,538,o),
(70,498,o),
(120,498,cs)
);
},
{
closed = 1;
nodes = (
(307,679,o),
(347,719,o),
(347,769,cs),
(347,819,o),
(307,859,o),
(257,859,cs),
(207,859,o),
(167,819,o),
(167,769,cs),
(167,719,o),
(207,679,o),
(257,679,cs)
);
},
{
closed = 1;
nodes = (
(444,679,o),
(484,719,o),
(484,769,cs),
(484,819,o),
(444,859,o),
(394,859,cs),
(344,859,o),
(304,819,o),
(304,769,cs),
(304,719,o),
(344,679,o),
(394,679,cs)
);
}
);
width = 514;
}
);
unicode = 99;
}
{
glyphname = d;
layers = (
{
layerId = m01;
shapes = (
{
closed = 1;
nodes = (
(556,181,o),
(576,201,o),
(576,226,cs),
(576,251,o),
(556,271,o),
(531,271,cs),
(506,271,o),
(486,251,o),
(486,226,cs),
(486,201,o),
(506,181,o),
(531,181,cs)
);
},
{
closed = 1;
nodes = (
(556,0,o),
(576,20,o),
(576,45,cs),
(576,70,o),
(556,90,o),
(531,90,cs),
(506,90,o),
(486,70,o),
(486,45,cs),
(486,20,o),
(506,0,o),
(531,0,cs)
);
},
{
closed = 1;
nodes = (
(419,0,o),
(439,20,o),
(439,45,cs),
(439,70,o),
(419,90,o),
(394,90,cs),
(368,90,o),
(349,70,o),
(349,45,cs),
(349,20,o),
(368,0,o),
(394,0,cs)
);
},
{
closed = 1;
nodes = (
(283,0,o),
(302,20,o),
(302,45,cs),
(302,70,o),
(283,90,o),
(257,90,cs),
(232,90,o),
(212,70,o),
(212,45,cs),
(212,20,o),
(232,0,o),
(257,0,cs)
);
},
{
closed = 1;
nodes = (
(145,181,o),
(165,201,o),
(165,226,cs),
(165,251,o),
(145,271,o),
(120,271,cs),
(95,271,o),
(75,251,o),
(75,226,cs),
(75,201,o),
(95,181,o),
(120,181,cs)
);
},
{
closed = 1;
nodes = (
(556,362,o),
(576,382,o),
(576,407,cs),
(576,432,o),
(556,452,o),
(531,452,cs),
(506,452,o),
(486,432,o),
(486,407,cs),
(486,382,o),
(506,362,o),
(531,362,cs)
);
},
{
closed = 1;
nodes = (
(419,362,o),
(439,382,o),
(439,407,cs),
(439,432,o),
(419,452,o),
(394,452,cs),
(369,452,o),
(349,432,o),
(349,407,cs),
(349,382,o),
(369,362,o),
(394,362,cs)
);
},
{
closed = 1;
nodes = (
(282,362,o),
(302,382,o),
(302,407,cs),
(302,432,o),
(282,452,o),
(257,452,cs),
(232,452,o),
(212,432,o),
(212,407,cs),
(212,382,o),
(232,362,o),
(257,362,cs)
);
},
{
closed = 1;
nodes = (
(556,724,o),
(576,744,o),
(576,769,cs),
(576,794,o),
(556,814,o),
(531,814,cs),
(506,814,o),
(486,794,o),
(486,769,cs),
(486,744,o),
(506,724,o),
(531,724,cs)
);
},
{
closed = 1;
nodes = (
(556,543,o),
(576,563,o),
(576,588,cs),
(576,613,o),
(556,633,o),
(531,633,cs),
(506,633,o),
(486,613,o),
(486,588,cs),
(486,563,o),
(506,543,o),
(531,543,cs)
);
}
);
width = 651;
},
{
layerId = m003;
shapes = (
{
closed = 1;
nodes = (
(636,36,o),
(721,121,o),
(721,226,cs),
(721,331,o),
(636,416,o),
(531,416,cs),
(426,416,o),
(341,331,o),
(341,226,cs),
(341,121,o),
(426,36,o),
(531,36,cs)
);
},
{
closed = 1;
nodes = (
(636,-145,o),
(721,-60,o),
(721,45,cs),
(721,150,o),
(636,235,o),
(531,235,cs),
(426,235,o),
(341,150,o),
(341,45,cs),
(341,-60,o),
(426,-145,o),
(531,-145,cs)
);
},
{
closed = 1;
nodes = (
(499,-145,o),
(584,-60,o),
(584,45,cs),
(584,150,o),
(499,235,o),
(394,235,cs),
(288,235,o),
(204,150,o),
(204,45,cs),
(204,-60,o),
(288,-145,o),
(394,-145,cs)
);
},
{
closed = 1;
nodes = (
(363,-145,o),
(447,-60,o),
(447,45,cs),
(447,150,o),
(363,235,o),
(257,235,cs),
(152,235,o),
(67,150,o),
(67,45,cs),
(67,-60,o),
(152,-145,o),
(257,-145,cs)
);
},
{
closed = 1;
nodes = (
(225,36,o),
(310,121,o),
(310,226,cs),
(310,331,o),
(225,416,o),
(120,416,cs),
(15,416,o),
(-70,331,o),
(-70,226,cs),
(-70,121,o),
(15,36,o),
(120,36,cs)
);
},
{
closed = 1;
nodes = (
(636,217,o),
(721,302,o),
(721,407,cs),
(721,512,o),
(636,597,o),
(531,597,cs),
(426,597,o),
(341,512,o),
(341,407,cs),
(341,302,o),
(426,217,o),
(531,217,cs)
);
},
{
closed = 1;
nodes = (
(499,217,o),
(584,302,o),
(584,407,cs),
(584,512,o),
(499,597,o),
(394,597,cs),
(289,597,o),
(204,512,o),
(204,407,cs),
(204,302,o),
(289,217,o),
(394,217,cs)
);
},
{
closed = 1;
nodes = (
(362,217,o),
(447,302,o),
(447,407,cs),
(447,512,o),
(362,597,o),
(257,597,cs),
(152,597,o),
(67,512,o),
(67,407,cs),
(67,302,o),
(152,217,o),
(257,217,cs)
);
},
{
closed = 1;
nodes = (
(636,579,o),
(721,664,o),
(721,769,cs),
(721,874,o),
(636,959,o),
(531,959,cs),
(426,959,o),
(341,874,o),
(341,769,cs),
(341,664,o),
(426,579,o),
(531,579,cs)
);
},
{
closed = 1;
nodes = (
(636,398,o),
(721,483,o),
(721,588,cs),
(721,693,o),
(636,778,o),
(531,778,cs),
(426,778,o),
(341,693,o),
(341,588,cs),
(341,483,o),
(426,398,o),
(531,398,cs)
);
}
);
width = 651;
},
{
layerId = m004;
shapes = (
{
closed = 1;
nodes = (
(581,136,o),
(621,176,o),
(621,226,cs),
(621,276,o),
(581,316,o),
(531,316,cs),
(481,316,o),
(441,276,o),
(441,226,cs),
(441,176,o),
(481,136,o),
(531,136,cs)
);
},
{
closed = 1;
nodes = (
(581,-45,o),
(621,-5,o),
(621,45,cs),
(621,95,o),
(581,135,o),
(531,135,cs),
(481,135,o),
(441,95,o),
(441,45,cs),
(441,-5,o),
(481,-45,o),
(531,-45,cs)
);
},
{
closed = 1;
nodes = (
(444,-45,o),
(484,-5,o),
(484,45,cs),
(484,95,o),
(444,135,o),
(394,135,cs),
(343,135,o),
(304,95,o),
(304,45,cs),
(304,-5,o),
(343,-45,o),
(394,-45,cs)
);
},
{
closed = 1;
nodes = (
(308,-45,o),
(347,-5,o),
(347,45,cs),
(347,95,o),
(308,135,o),
(257,135,cs),
(207,135,o),
(167,95,o),
(167,45,cs),
(167,-5,o),
(207,-45,o),
(257,-45,cs)
);
},
{
closed = 1;
nodes = (
(170,136,o),
(210,176,o),
(210,226,cs),
(210,276,o),
(170,316,o),
(120,316,cs),
(70,316,o),
(30,276,o),
(30,226,cs),
(30,176,o),
(70,136,o),
(120,136,cs)
);
},
{
closed = 1;
nodes = (
(581,317,o),
(621,357,o),
(621,407,cs),
(621,457,o),
(581,497,o),
(531,497,cs),
(481,497,o),
(441,457,o),
(441,407,cs),
(441,357,o),
(481,317,o),
(531,317,cs)
);
},
{
closed = 1;
nodes = (
(444,317,o),
(484,357,o),
(484,407,cs),
(484,457,o),
(444,497,o),
(394,497,cs),
(344,497,o),
(304,457,o),
(304,407,cs),
(304,357,o),
(344,317,o),
(394,317,cs)
);
},
{
closed = 1;
nodes = (
(307,317,o),
(347,357,o),
(347,407,cs),
(347,457,o),
(307,497,o),
(257,497,cs),
(207,497,o),
(167,457,o),
(167,407,cs),
(167,357,o),
(207,317,o),
(257,317,cs)
);
},
{
closed = 1;
nodes = (
(581,679,o),
(621,719,o),
(621,769,cs),
(621,819,o),
(581,859,o),
(531,859,cs),
(481,859,o),
(441,819,o),
(441,769,cs),
(441,719,o),
(481,679,o),
(531,679,cs)
);
},
{
closed = 1;
nodes = (
(581,498,o),
(621,538,o),
(621,588,cs),
(621,638,o),
(581,678,o),
(531,678,cs),
(481,678,o),
(441,638,o),
(441,588,cs),
(441,538,o),
(481,498,o),
(531,498,cs)
);
}
);
width = 651;
}
);
unicode = 100;
}
{
glyphname = f;
layers = (
{
layerId = m01;
shapes = (
{
closed = 1;
nodes = (
(145,181,o),
(165,201,o),
(165,226,cs),
(165,251,o),
(145,271,o),
(120,271,cs),
(95,271,o),
(75,251,o),
(75,226,cs),
(75,201,o),
(95,181,o),
(120,181,cs)
);
},
{
closed = 1;
nodes = (
(145,0,o),
(165,20,o),
(165,45,cs),
(165,70,o),
(145,90,o),
(120,90,cs),
(95,90,o),
(75,70,o),
(75,45,cs),
(75,20,o),
(95,0,o),
(120,0,cs)
);
},
{
closed = 1;
nodes = (
(145,362,o),
(165,382,o),
(165,407,cs),
(165,432,o),
(145,452,o),
(120,452,cs),
(95,452,o),
(75,432,o),
(75,407,cs),
(75,382,o),
(95,362,o),
(120,362,cs)
);
},
{
closed = 1;
nodes = (
(282,362,o),
(302,382,o),
(302,407,cs),
(302,432,o),
(282,452,o),
(257,452,cs),
(232,452,o),
(212,432,o),
(212,407,cs),
(212,382,o),
(232,362,o),
(257,362,cs)
);
},
{
closed = 1;
nodes = (
(145,543,o),
(165,563,o),
(165,588,cs),
(165,613,o),
(145,633,o),
(120,633,cs),
(95,633,o),
(75,613,o),
(75,588,cs),
(75,563,o),
(95,543,o),
(120,543,cs)
);
},
{
closed = 1;
nodes = (
(556,543,o),
(576,562,o),
(576,588,cs),
(576,613,o),
(556,633,o),
(531,633,cs),
(506,633,o),
(486,613,o),
(486,588,cs),
(486,562,o),
(506,543,o),
(531,543,cs)
);
},
{
closed = 1;
nodes = (
(282,724,o),
(302,744,o),
(302,769,cs),
(302,794,o),
(282,814,o),
(257,814,cs),
(232,814,o),
(212,794,o),
(212,769,cs),
(212,744,o),
(232,724,o),
(257,724,cs)
);
},
{
closed = 1;
nodes = (
(419,724,o),
(439,744,o),
(439,769,cs),
(439,794,o),
(419,814,o),
(394,814,cs),
(369,814,o),
(349,794,o),
(349,769,cs),
(349,744,o),
(369,724,o),
(394,724,cs)
);
}
);
width = 651;
},
{
layerId = m003;
shapes = (
{
closed = 1;
nodes = (
(225,36,o),
(310,121,o),
(310,226,cs),
(310,331,o),
(225,416,o),
(120,416,cs),
(15,416,o),
(-70,331,o),
(-70,226,cs),
(-70,121,o),
(15,36,o),
(120,36,cs)
);
},
{
closed = 1;
nodes = (
(225,-145,o),
(310,-60,o),
(310,45,cs),
(310,150,o),
(225,235,o),
(120,235,cs),
(15,235,o),
(-70,150,o),
(-70,45,cs),
(-70,-60,o),
(15,-145,o),
(120,-145,cs)
);
},
{
closed = 1;
nodes = (
(225,217,o),
(310,302,o),
(310,407,cs),
(310,512,o),
(225,597,o),
(120,597,cs),
(15,597,o),
(-70,512,o),
(-70,407,cs),
(-70,302,o),
(15,217,o),
(120,217,cs)
);
},
{
closed = 1;
nodes = (
(362,217,o),
(447,302,o),
(447,407,cs),
(447,512,o),
(362,597,o),
(257,597,cs),
(152,597,o),
(67,512,o),
(67,407,cs),
(67,302,o),
(152,217,o),
(257,217,cs)
);
},
{
closed = 1;
nodes = (
(225,398,o),
(310,483,o),
(310,588,cs),
(310,693,o),
(225,778,o),
(120,778,cs),
(15,778,o),
(-70,693,o),
(-70,588,cs),
(-70,483,o),
(15,398,o),
(120,398,cs)
);
},
{
closed = 1;
nodes = (
(636,398,o),
(721,482,o),
(721,588,cs),
(721,693,o),
(636,778,o),
(531,778,cs),
(426,778,o),
(341,693,o),
(341,588,cs),
(341,482,o),
(426,398,o),
(531,398,cs)
);
},
{
closed = 1;
nodes = (
(362,579,o),
(447,664,o),
(447,769,cs),
(447,874,o),
(362,959,o),
(257,959,cs),
(152,959,o),
(67,874,o),
(67,769,cs),
(67,664,o),
(152,579,o),
(257,579,cs)
);
},
{
closed = 1;
nodes = (
(499,579,o),
(584,664,o),
(584,769,cs),
(584,874,o),
(499,959,o),
(394,959,cs),
(289,959,o),
(204,874,o),
(204,769,cs),
(204,664,o),
(289,579,o),
(394,579,cs)
);
}
);
width = 651;
},
{
layerId = m004;
shapes = (
{
closed = 1;
nodes = (
(170,136,o),
(210,176,o),
(210,226,cs),
(210,276,o),
(170,316,o),
(120,316,cs),
(70,316,o),
(30,276,o),
(30,226,cs),
(30,176,o),
(70,136,o),
(120,136,cs)
);
},
{
closed = 1;
nodes = (
(170,-45,o),
(210,-5,o),
(210,45,cs),
(210,95,o),
(170,135,o),
(120,135,cs),
(70,135,o),
(30,95,o),
(30,45,cs),
(30,-5,o),
(70,-45,o),
(120,-45,cs)
);
},
{
closed = 1;
nodes = (
(170,317,o),
(210,357,o),
(210,407,cs),
(210,457,o),
(170,497,o),
(120,497,cs),
(70,497,o),
(30,457,o),
(30,407,cs),
(30,357,o),
(70,317,o),
(120,317,cs)
);
},
{
closed = 1;
nodes = (
(307,317,o),
(347,357,o),
(347,407,cs),
(347,457,o),
(307,497,o),
(257,497,cs),
(207,497,o),
(167,457,o),
(167,407,cs),
(167,357,o),
(207,317,o),
(257,317,cs)
);
},
{
closed = 1;
nodes = (
(170,498,o),
(210,538,o),
(210,588,cs),
(210,638,o),
(170,678,o),
(120,678,cs),
(70,678,o),
(30,638,o),
(30,588,cs),
(30,538,o),
(70,498,o),
(120,498,cs)
);
},
{
closed = 1;
nodes = (
(581,498,o),
(621,537,o),
(621,588,cs),
(621,638,o),
(581,678,o),
(531,678,cs),
(481,678,o),
(441,638,o),
(441,588,cs),
(441,537,o),
(481,498,o),
(531,498,cs)
);
},
{
closed = 1;
nodes = (
(307,679,o),
(347,719,o),
(347,769,cs),
(347,819,o),
(307,859,o),
(257,859,cs),
(207,859,o),
(167,819,o),
(167,769,cs),
(167,719,o),
(207,679,o),
(257,679,cs)
);
},
{
closed = 1;
nodes = (
(444,679,o),
(484,719,o),
(484,769,cs),
(484,819,o),
(444,859,o),
(394,859,cs),
(344,859,o),
(304,819,o),
(304,769,cs),
(304,719,o),
(344,679,o),
(394,679,cs)
);
}
);
width = 651;
}
);
unicode = 102;
}
{
glyphname = g;
layers = (
{
layerId = m01;
shapes = (
{
closed = 1;
nodes = (
(506,633,o),
(486,613,o),
(486,588,cs),
(486,563,o),
(506,543,o),
(531,543,cs),
(556,543,o),
(576,563,o),
(576,588,cs),
(576,613,o),
(556,633,o),
(531,633,cs)
);
},
{
closed = 1;
nodes = (
(368,814,o),
(349,794,o),
(349,769,cs),
(349,744,o),
(368,724,o),
(394,724,cs),
(419,724,o),
(439,744,o),
(439,769,cs),
(439,794,o),
(419,814,o),
(394,814,cs)
);
},
{
closed = 1;
nodes = (
(232,814,o),
(212,795,o),
(212,769,cs),
(212,744,o),
(232,724,o),
(257,724,cs),
(282,724,o),
(302,744,o),
(302,769,cs),
(302,795,o),
(282,814,o),
(257,814,cs)
);
},
{
closed = 1;
nodes = (
(95,633,o),
(75,613,o),
(75,588,cs),
(75,563,o),
(95,543,o),
(120,543,cs),
(145,543,o),
(165,563,o),
(165,588,cs),
(165,613,o),
(145,633,o),
(120,633,cs)
);
},
{
closed = 1;
nodes = (
(506,452,o),
(486,432,o),
(486,407,cs),
(486,382,o),
(506,362,o),
(531,362,cs),
(556,362,o),
(576,382,o),
(576,407,cs),
(576,432,o),
(556,452,o),
(531,452,cs)
);
},
{
closed = 1;
nodes = (
(369,452,o),
(349,432,o),
(349,407,cs),
(349,382,o),
(369,362,o),
(394,362,cs),
(419,362,o),
(439,382,o),
(439,407,cs),
(439,432,o),
(419,452,o),
(394,452,cs)
);
},
{
closed = 1;
nodes = (
(232,452,o),
(212,432,o),
(212,407,cs),
(212,382,o),
(232,362,o),
(257,362,cs),
(282,362,o),
(302,382,o),
(302,407,cs),
(302,432,o),
(282,452,o),
(257,452,cs)
);
},
{
closed = 1;
nodes = (
(506,271,o),
(486,251,o),
(486,226,cs),
(486,201,o),
(506,181,o),
(531,181,cs),
(556,181,o),
(576,201,o),
(576,226,cs),
(576,251,o),
(556,271,o),
(531,271,cs)
);
},
{
closed = 1;
nodes = (
(369,90,o),
(349,70,o),
(349,45,cs),
(349,20,o),
(369,0,o),
(394,0,cs),
(419,0,o),
(439,20,o),
(439,45,cs),
(439,70,o),
(419,90,o),
(394,90,cs)
);
},
{
closed = 1;
nodes = (
(232,90,o),
(212,70,o),
(212,45,cs),
(212,20,o),
(232,0,o),
(257,0,cs),
(282,0,o),
(302,20,o),
(302,45,cs),
(302,70,o),
(282,90,o),
(257,90,cs)
);
},
{
closed = 1;
nodes = (
(95,181,o),
(76,161,o),
(76,136,cs),
(76,111,o),
(95,90,o),
(120,90,cs),
(145,90,o),
(165,111,o),
(165,136,cs),
(165,161,o),
(145,181,o),
(120,181,cs)
);
},
{
closed = 1;
nodes = (
(506,814,o),
(486,794,o),
(486,769,cs),
(486,744,o),
(506,724,o),
(531,724,cs),
(556,724,o),
(576,744,o),
(576,769,cs),
(576,794,o),
(556,814,o),
(531,814,cs)
);
}
);
width = 651;
},
{
layerId = m003;
shapes = (
{
closed = 1;
nodes = (
(426,778,o),
(341,693,o),
(341,588,cs),
(341,483,o),
(426,398,o),
(531,398,cs),
(636,398,o),
(721,483,o),
(721,588,cs),
(721,693,o),
(636,778,o),
(531,778,cs)
);
},
{
closed = 1;
nodes = (
(288,959,o),
(204,874,o),
(204,769,cs),
(204,664,o),
(288,579,o),
(394,579,cs),
(499,579,o),
(584,664,o),
(584,769,cs),
(584,874,o),
(499,959,o),
(394,959,cs)
);
},
{
closed = 1;
nodes = (
(152,959,o),
(67,875,o),
(67,769,cs),
(67,664,o),
(152,579,o),
(257,579,cs),
(362,579,o),
(447,664,o),
(447,769,cs),
(447,875,o),
(362,959,o),
(257,959,cs)
);
},
{
closed = 1;
nodes = (
(15,778,o),
(-70,693,o),
(-70,588,cs),
(-70,483,o),
(15,398,o),
(120,398,cs),
(225,398,o),
(310,483,o),
(310,588,cs),
(310,693,o),
(225,778,o),
(120,778,cs)
);
},
{
closed = 1;
nodes = (
(426,597,o),
(341,512,o),
(341,407,cs),
(341,302,o),
(426,217,o),
(531,217,cs),
(636,217,o),
(721,302,o),
(721,407,cs),
(721,512,o),
(636,597,o),
(531,597,cs)
);
},
{
closed = 1;
nodes = (
(289,597,o),
(204,512,o),
(204,407,cs),
(204,302,o),
(289,217,o),
(394,217,cs),
(499,217,o),
(584,302,o),
(584,407,cs),
(584,512,o),
(499,597,o),
(394,597,cs)
);
},
{
closed = 1;
nodes = (
(152,597,o),
(67,512,o),
(67,407,cs),
(67,302,o),
(152,217,o),
(257,217,cs),
(362,217,o),
(447,302,o),
(447,407,cs),
(447,512,o),
(362,597,o),
(257,597,cs)
);
},
{
closed = 1;
nodes = (
(426,416,o),
(341,331,o),
(341,226,cs),
(341,121,o),
(426,36,o),
(531,36,cs),
(636,36,o),
(721,121,o),
(721,226,cs),
(721,331,o),
(636,416,o),
(531,416,cs)
);
},
{
closed = 1;
nodes = (
(289,235,o),
(204,150,o),
(204,45,cs),
(204,-60,o),
(289,-145,o),
(394,-145,cs),
(499,-145,o),
(584,-60,o),
(584,45,cs),
(584,150,o),
(499,235,o),
(394,235,cs)
);
},
{
closed = 1;
nodes = (
(152,235,o),
(67,150,o),
(67,45,cs),
(67,-60,o),
(152,-145,o),
(257,-145,cs),
(362,-145,o),
(447,-60,o),
(447,45,cs),
(447,150,o),
(362,235,o),
(257,235,cs)
);
},
{
closed = 1;
nodes = (
(15,326,o),
(-69,241,o),
(-69,136,cs),
(-69,36,o),
(10,-55,o),
(120,-55,cs),
(225,-55,o),
(310,31,o),
(310,136,cs),
(310,241,o),
(225,326,o),
(120,326,cs)
);
},
{
closed = 1;
nodes = (
(426,959,o),
(341,874,o),
(341,769,cs),
(341,664,o),
(426,579,o),
(531,579,cs),
(636,579,o),
(721,664,o),
(721,769,cs),
(721,874,o),
(636,959,o),
(531,959,cs)
);
}
);
width = 651;
},
{
layerId = m004;
shapes = (
{
closed = 1;
nodes = (
(481,678,o),
(441,638,o),
(441,588,cs),
(441,538,o),
(481,498,o),
(531,498,cs),
(581,498,o),
(621,538,o),
(621,588,cs),
(621,638,o),
(581,678,o),
(531,678,cs)
);
},
{
closed = 1;
nodes = (
(343,859,o),
(304,819,o),
(304,769,cs),
(304,719,o),
(343,679,o),
(394,679,cs),
(444,679,o),
(484,719,o),
(484,769,cs),
(484,819,o),
(444,859,o),
(394,859,cs)
);
},
{
closed = 1;
nodes = (
(207,859,o),
(167,820,o),
(167,769,cs),
(167,719,o),
(207,679,o),
(257,679,cs),
(307,679,o),
(347,719,o),
(347,769,cs),
(347,820,o),
(307,859,o),
(257,859,cs)
);
},
{
closed = 1;
nodes = (
(70,678,o),
(30,638,o),
(30,588,cs),
(30,538,o),
(70,498,o),
(120,498,cs),
(170,498,o),
(210,538,o),
(210,588,cs),
(210,638,o),
(170,678,o),
(120,678,cs)
);
},
{
closed = 1;
nodes = (
(481,497,o),
(441,457,o),
(441,407,cs),
(441,357,o),
(481,317,o),
(531,317,cs),
(581,317,o),
(621,357,o),
(621,407,cs),
(621,457,o),
(581,497,o),
(531,497,cs)
);
},
{
closed = 1;
nodes = (
(344,497,o),
(304,457,o),
(304,407,cs),
(304,357,o),
(344,317,o),
(394,317,cs),
(444,317,o),
(484,357,o),
(484,407,cs),
(484,457,o),
(444,497,o),
(394,497,cs)
);
},
{
closed = 1;
nodes = (
(207,497,o),
(167,457,o),
(167,407,cs),
(167,357,o),
(207,317,o),
(257,317,cs),
(307,317,o),
(347,357,o),
(347,407,cs),
(347,457,o),
(307,497,o),
(257,497,cs)
);
},
{
closed = 1;
nodes = (
(481,316,o),
(441,276,o),
(441,226,cs),
(441,176,o),
(481,136,o),
(531,136,cs),
(581,136,o),
(621,176,o),
(621,226,cs),
(621,276,o),
(581,316,o),
(531,316,cs)
);
},
{
closed = 1;
nodes = (
(344,135,o),
(304,95,o),
(304,45,cs),
(304,-5,o),
(344,-45,o),
(394,-45,cs),
(444,-45,o),
(484,-5,o),
(484,45,cs),
(484,95,o),
(444,135,o),
(394,135,cs)
);
},
{
closed = 1;
nodes = (
(207,135,o),
(167,95,o),
(167,45,cs),
(167,-5,o),
(207,-45,o),
(257,-45,cs),
(307,-45,o),
(347,-5,o),
(347,45,cs),
(347,95,o),
(307,135,o),
(257,135,cs)
);
},
{
closed = 1;
nodes = (
(70,226,o),
(31,186,o),
(31,136,cs),
(31,89,o),
(68,45,o),
(120,45,cs),
(170,45,o),
(210,86,o),
(210,136,cs),
(210,186,o),
(170,226,o),
(120,226,cs)
);
},
{
closed = 1;
nodes = (
(481,859,o),
(441,819,o),
(441,769,cs),
(441,719,o),
(481,679,o),
(531,679,cs),
(581,679,o),
(621,719,o),
(621,769,cs),
(621,819,o),
(581,859,o),
(531,859,cs)
);
}
);
width = 651;
}
);
unicode = 103;
}
{
glyphname = i;
layers = (
{
layerId = m01;
shapes = (
{
closed = 1;
nodes = (
(283,0,o),
(302,20,o),
(302,45,cs),
(302,70,o),
(283,90,o),
(257,90,cs),
(232,90,o),
(212,70,o),
(212,45,cs),
(212,20,o),
(232,0,o),
(257,0,cs)
);
},
{
closed = 1;
nodes = (
(282,181,o),
(302,201,o),
(302,226,cs),
(302,251,o),
(282,271,o),
(257,271,cs),
(232,271,o),
(212,251,o),
(212,226,cs),
(212,201,o),
(232,181,o),
(257,181,cs)
);
},
{
closed = 1;
nodes = (
(282,362,o),
(302,382,o),
(302,407,cs),
(302,432,o),
(282,452,o),
(257,452,cs),
(232,452,o),
(212,432,o),
(212,407,cs),
(212,382,o),
(232,362,o),
(257,362,cs)
);
},
{
closed = 1;
nodes = (
(145,362,o),
(165,382,o),
(165,407,cs),
(165,432,o),
(145,452,o),
(120,452,cs),
(95,452,o),
(75,432,o),
(75,407,cs),
(75,382,o),
(95,362,o),
(120,362,cs)
);
},
{
closed = 1;
nodes = (
(282,724,o),
(302,744,o),
(302,769,cs),
(302,794,o),
(282,814,o),
(257,814,cs),
(232,814,o),
(212,794,o),
(212,769,cs),
(212,744,o),
(232,724,o),
(257,724,cs)
);
}
);
width = 377;
},
{
layerId = m003;
shapes = (
{
closed = 1;
nodes = (
(363,-145,o),
(447,-60,o),
(447,45,cs),
(447,150,o),
(363,235,o),
(257,235,cs),
(152,235,o),
(67,150,o),
(67,45,cs),
(67,-60,o),
(152,-145,o),
(257,-145,cs)
);
},
{
closed = 1;
nodes = (
(362,36,o),
(447,121,o),
(447,226,cs),
(447,331,o),
(362,416,o),
(257,416,cs),
(152,416,o),
(67,331,o),
(67,226,cs),
(67,121,o),
(152,36,o),
(257,36,cs)
);
},
{
closed = 1;
nodes = (
(362,217,o),
(447,302,o),
(447,407,cs),
(447,512,o),
(362,597,o),
(257,597,cs),
(152,597,o),
(67,512,o),
(67,407,cs),
(67,302,o),
(152,217,o),
(257,217,cs)
);
},
{
closed = 1;
nodes = (
(225,217,o),
(310,302,o),
(310,407,cs),
(310,512,o),
(225,597,o),
(120,597,cs),
(15,597,o),
(-70,512,o),
(-70,407,cs),
(-70,302,o),
(15,217,o),
(120,217,cs)
);
},
{
closed = 1;
nodes = (
(362,579,o),
(447,664,o),
(447,769,cs),
(447,874,o),
(362,959,o),
(257,959,cs),
(152,959,o),
(67,874,o),
(67,769,cs),
(67,664,o),
(152,579,o),
(257,579,cs)
);
}
);
width = 377;
},
{
layerId = m004;
shapes = (
{
closed = 1;
nodes = (
(308,-45,o),
(347,-5,o),
(347,45,cs),
(347,95,o),
(308,135,o),
(257,135,cs),
(207,135,o),
(167,95,o),
(167,45,cs),
(167,-5,o),
(207,-45,o),
(257,-45,cs)
);
},
{
closed = 1;
nodes = (
(307,136,o),
(347,176,o),
(347,226,cs),
(347,276,o),
(307,316,o),
(257,316,cs),
(207,316,o),
(167,276,o),
(167,226,cs),
(167,176,o),
(207,136,o),
(257,136,cs)
);
},
{
closed = 1;
nodes = (
(307,317,o),
(347,357,o),
(347,407,cs),
(347,457,o),
(307,497,o),
(257,497,cs),
(207,497,o),
(167,457,o),
(167,407,cs),
(167,357,o),
(207,317,o),
(257,317,cs)
);
},
{
closed = 1;
nodes = (
(170,317,o),
(210,357,o),
(210,407,cs),
(210,457,o),
(170,497,o),
(120,497,cs),
(70,497,o),
(30,457,o),
(30,407,cs),
(30,357,o),
(70,317,o),
(120,317,cs)
);
},
{
closed = 1;
nodes = (
(307,679,o),
(347,719,o),
(347,769,cs),
(347,819,o),
(307,859,o),
(257,859,cs),
(207,859,o),
(167,819,o),
(167,769,cs),
(167,719,o),
(207,679,o),
(257,679,cs)
);
}
);
width = 377;
}
);
unicode = 105;
}
{
glyphname = j;
layers = (
{
layerId = m01;
shapes = (
{
closed = 1;
nodes = (
(369,452,o),
(349,432,o),
(349,407,cs),
(349,382,o),
(369,362,o),
(394,362,cs),
(419,362,o),
(439,382,o),
(439,407,cs),
(439,432,o),
(419,452,o),
(394,452,cs)
);
},
{
closed = 1;
nodes = (
(369,271,o),
(349,251,o),
(349,226,cs),
(349,201,o),
(369,181,o),
(394,181,cs),
(419,181,o),
(439,201,o),
(439,226,cs),
(439,251,o),
(419,271,o),
(394,271,cs)
);
},
{
closed = 1;
nodes = (
(232,90,o),
(212,70,o),
(212,45,cs),
(212,20,o),
(232,0,o),
(257,0,cs),
(282,0,o),
(302,20,o),
(302,45,cs),
(302,70,o),
(282,90,o),
(257,90,cs)
);
},
{
closed = 1;
nodes = (
(95,90,o),
(75,70,o),
(75,45,cs),
(75,20,o),
(95,0,o),
(120,0,cs),
(145,0,o),
(165,20,o),
(165,45,cs),
(165,70,o),
(145,90,o),
(120,90,cs)
);
},
{
closed = 1;
nodes = (
(369,814,o),
(349,794,o),
(349,769,cs),
(349,744,o),
(369,724,o),
(394,724,cs),
(419,724,o),
(439,744,o),
(439,769,cs),
(439,794,o),
(419,814,o),
(394,814,cs)
);
}
);
width = 514;
},
{
layerId = m003;
shapes = (
{
closed = 1;
nodes = (
(289,597,o),
(204,512,o),
(204,407,cs),
(204,302,o),
(289,217,o),
(394,217,cs),
(499,217,o),
(584,302,o),
(584,407,cs),
(584,512,o),
(499,597,o),
(394,597,cs)
);
},
{
closed = 1;
nodes = (
(289,416,o),
(204,331,o),
(204,226,cs),
(204,121,o),
(289,36,o),
(394,36,cs),
(499,36,o),
(584,121,o),
(584,226,cs),
(584,331,o),
(499,416,o),
(394,416,cs)
);
},
{
closed = 1;
nodes = (
(152,235,o),
(67,150,o),
(67,45,cs),
(67,-60,o),
(152,-145,o),
(257,-145,cs),
(362,-145,o),
(447,-60,o),
(447,45,cs),
(447,150,o),
(362,235,o),
(257,235,cs)
);
},
{
closed = 1;
nodes = (
(15,235,o),
(-70,150,o),
(-70,45,cs),
(-70,-60,o),
(15,-145,o),
(120,-145,cs),
(225,-145,o),
(310,-60,o),
(310,45,cs),
(310,150,o),
(225,235,o),
(120,235,cs)
);
},
{
closed = 1;
nodes = (
(289,959,o),
(204,874,o),
(204,769,cs),
(204,664,o),
(289,579,o),
(394,579,cs),
(499,579,o),
(584,664,o),
(584,769,cs),
(584,874,o),
(499,959,o),
(394,959,cs)
);
}
);
width = 514;
},
{
layerId = m004;
shapes = (
{
closed = 1;
nodes = (
(344,497,o),
(304,457,o),
(304,407,cs),
(304,357,o),
(344,317,o),
(394,317,cs),
(444,317,o),
(484,357,o),
(484,407,cs),
(484,457,o),
(444,497,o),
(394,497,cs)
);
},
{
closed = 1;
nodes = (
(344,316,o),
(304,276,o),
(304,226,cs),
(304,176,o),
(344,136,o),
(394,136,cs),
(444,136,o),
(484,176,o),
(484,226,cs),
(484,276,o),
(444,316,o),
(394,316,cs)
);
},
{
closed = 1;
nodes = (
(207,135,o),
(167,95,o),
(167,45,cs),
(167,-5,o),
(207,-45,o),
(257,-45,cs),
(307,-45,o),
(347,-5,o),
(347,45,cs),
(347,95,o),
(307,135,o),
(257,135,cs)
);
},
{
closed = 1;
nodes = (
(70,135,o),
(30,95,o),
(30,45,cs),
(30,-5,o),
(70,-45,o),
(120,-45,cs),
(170,-45,o),
(210,-5,o),
(210,45,cs),
(210,95,o),
(170,135,o),
(120,135,cs)
);
},
{
closed = 1;
nodes = (
(344,859,o),
(304,819,o),
(304,769,cs),
(304,719,o),
(344,679,o),
(394,679,cs),
(444,679,o),
(484,719,o),
(484,769,cs),
(484,819,o),
(444,859,o),
(394,859,cs)
);
}
);
width = 514;
}
);
unicode = 106;
}
{
glyphname = k;
layers = (
{
layerId = m01;
shapes = (
{
closed = 1;
nodes = (
(145,181,o),
(165,201,o),
(165,226,cs),
(165,251,o),
(145,271,o),
(120,271,cs),
(95,271,o),
(75,251,o),
(75,226,cs),
(75,201,o),
(95,181,o),
(120,181,cs)
);
},
{
closed = 1;
nodes = (
(145,0,o),
(165,20,o),
(165,45,cs),
(165,70,o),
(145,90,o),
(120,90,cs),
(95,90,o),
(75,70,o),
(75,45,cs),
(75,20,o),
(95,0,o),
(120,0,cs)
);
},
{
closed = 1;
nodes = (
(556,0,o),
(576,19,o),
(576,45,cs),
(576,70,o),
(556,90,o),
(531,90,cs),
(506,90,o),
(486,70,o),
(486,45,cs),
(486,19,o),
(506,0,o),
(531,0,cs)
);
},
{
closed = 1;
nodes = (
(556,181,o),
(576,201,o),
(576,226,cs),
(576,251,o),
(556,271,o),
(531,271,cs),
(506,271,o),
(486,251,o),
(486,226,cs),
(486,201,o),
(506,181,o),
(531,181,cs)
);
},
{
closed = 1;
nodes = (
(145,362,o),
(165,382,o),
(165,407,cs),
(165,432,o),
(145,452,o),
(120,452,cs),
(95,452,o),
(75,432,o),
(75,407,cs),
(75,382,o),
(95,362,o),
(120,362,cs)
);
},
{
closed = 1;
nodes = (
(282,362,o),
(302,382,o),
(302,407,cs),
(302,432,o),
(282,452,o),
(257,452,cs),
(232,452,o),
(212,432,o),
(212,407,cs),
(212,382,o),
(232,362,o),
(257,362,cs)
);
},
{
closed = 1;
nodes = (
(419,543,o),
(439,563,o),
(439,588,cs),
(439,613,o),
(419,633,o),
(394,633,cs),
(369,633,o),
(349,613,o),
(349,588,cs),
(349,563,o),
(369,543,o),
(394,543,cs)
);
},
{
closed = 1;
nodes = (
(145,724,o),
(165,744,o),
(165,769,cs),
(165,794,o),
(145,814,o),
(120,814,cs),
(95,814,o),
(75,794,o),
(75,769,cs),
(75,744,o),
(95,724,o),
(120,724,cs)
);
},
{
closed = 1;
nodes = (
(145,543,o),
(165,563,o),
(165,588,cs),
(165,613,o),
(145,633,o),
(120,633,cs),
(95,633,o),
(75,613,o),
(75,588,cs),
(75,563,o),
(95,543,o),
(120,543,cs)
);
},
{
closed = 1;
nodes = (
(556,724,o),
(576,744,o),
(576,769,cs),
(576,794,o),
(556,814,o),
(531,814,cs),
(506,814,o),
(486,794,o),
(486,769,cs),
(486,744,o),
(506,724,o),
(531,724,cs)
);
},
{
closed = 1;
nodes = (
(419,362,o),
(439,382,o),
(439,407,cs),
(439,432,o),
(419,452,o),
(394,452,cs),
(369,452,o),
(349,432,o),
(349,407,cs),
(349,382,o),
(369,362,o),
(394,362,cs)
);
}
);
width = 651;
},
{
layerId = m003;
shapes = (
{
closed = 1;
nodes = (
(225,36,o),
(310,121,o),
(310,226,cs),
(310,331,o),
(225,416,o),
(120,416,cs),
(15,416,o),
(-70,331,o),
(-70,226,cs),
(-70,121,o),
(15,36,o),
(120,36,cs)
);
},
{
closed = 1;
nodes = (
(225,-145,o),
(310,-60,o),
(310,45,cs),
(310,150,o),
(225,235,o),
(120,235,cs),
(15,235,o),
(-70,150,o),
(-70,45,cs),
(-70,-60,o),
(15,-145,o),
(120,-145,cs)
);
},
{
closed = 1;
nodes = (
(636,-145,o),
(721,-61,o),
(721,45,cs),
(721,150,o),
(636,235,o),
(531,235,cs),
(426,235,o),
(341,150,o),
(341,45,cs),
(341,-61,o),
(426,-145,o),
(531,-145,cs)
);
},
{
closed = 1;
nodes = (
(636,36,o),
(721,121,o),
(721,226,cs),
(721,331,o),
(636,416,o),
(531,416,cs),
(426,416,o),
(341,331,o),
(341,226,cs),
(341,121,o),
(426,36,o),
(531,36,cs)
);
},
{
closed = 1;
nodes = (
(225,217,o),
(310,302,o),
(310,407,cs),
(310,512,o),
(225,597,o),
(120,597,cs),
(15,597,o),
(-70,512,o),
(-70,407,cs),
(-70,302,o),
(15,217,o),
(120,217,cs)
);
},
{
closed = 1;
nodes = (
(362,217,o),
(447,302,o),
(447,407,cs),
(447,512,o),
(362,597,o),
(257,597,cs),
(152,597,o),
(67,512,o),
(67,407,cs),
(67,302,o),
(152,217,o),
(257,217,cs)
);
},
{
closed = 1;
nodes = (
(499,398,o),
(584,483,o),
(584,588,cs),
(584,693,o),
(499,778,o),
(394,778,cs),
(289,778,o),
(204,693,o),
(204,588,cs),
(204,483,o),
(289,398,o),
(394,398,cs)
);
},
{
closed = 1;
nodes = (
(225,579,o),
(310,664,o),
(310,769,cs),
(310,874,o),
(225,959,o),
(120,959,cs),
(15,959,o),
(-70,874,o),
(-70,769,cs),
(-70,664,o),
(15,579,o),
(120,579,cs)
);
},
{
closed = 1;
nodes = (
(225,398,o),
(310,483,o),
(310,588,cs),
(310,693,o),
(225,778,o),
(120,778,cs),
(15,778,o),
(-70,693,o),
(-70,588,cs),
(-70,483,o),
(15,398,o),
(120,398,cs)
);
},
{
closed = 1;
nodes = (
(636,579,o),
(721,664,o),
(721,769,cs),
(721,874,o),
(636,959,o),
(531,959,cs),
(426,959,o),
(341,874,o),
(341,769,cs),
(341,664,o),
(426,579,o),
(531,579,cs)
);
},
{
closed = 1;
nodes = (
(499,217,o),
(584,302,o),
(584,407,cs),
(584,512,o),
(499,597,o),
(394,597,cs),
(289,597,o),
(204,512,o),
(204,407,cs),
(204,302,o),
(289,217,o),
(394,217,cs)
);
}
);
width = 651;
},
{
layerId = m004;
shapes = (
{
closed = 1;
nodes = (
(170,136,o),
(210,176,o),
(210,226,cs),
(210,276,o),
(170,316,o),
(120,316,cs),
(70,316,o),
(30,276,o),
(30,226,cs),
(30,176,o),
(70,136,o),
(120,136,cs)
);
},
{
closed = 1;
nodes = (
(170,-45,o),
(210,-5,o),
(210,45,cs),
(210,95,o),
(170,135,o),
(120,135,cs),
(70,135,o),
(30,95,o),
(30,45,cs),
(30,-5,o),
(70,-45,o),
(120,-45,cs)
);
},
{
closed = 1;
nodes = (
(581,-45,o),
(621,-6,o),
(621,45,cs),
(621,95,o),
(581,135,o),
(531,135,cs),
(481,135,o),
(441,95,o),
(441,45,cs),
(441,-6,o),
(481,-45,o),
(531,-45,cs)
);
},
{
closed = 1;
nodes = (
(581,136,o),
(621,176,o),
(621,226,cs),
(621,276,o),
(581,316,o),
(531,316,cs),
(481,316,o),
(441,276,o),
(441,226,cs),
(441,176,o),
(481,136,o),
(531,136,cs)
);
},
{
closed = 1;
nodes = (
(170,317,o),
(210,357,o),
(210,407,cs),
(210,457,o),
(170,497,o),
(120,497,cs),
(70,497,o),
(30,457,o),
(30,407,cs),
(30,357,o),
(70,317,o),
(120,317,cs)
);
},
{
closed = 1;
nodes = (
(307,317,o),
(347,357,o),
(347,407,cs),
(347,457,o),
(307,497,o),
(257,497,cs),
(207,497,o),
(167,457,o),
(167,407,cs),
(167,357,o),
(207,317,o),
(257,317,cs)
);
},
{
closed = 1;
nodes = (
(444,498,o),
(484,538,o),
(484,588,cs),
(484,638,o),
(444,678,o),
(394,678,cs),
(344,678,o),
(304,638,o),
(304,588,cs),
(304,538,o),
(344,498,o),
(394,498,cs)
);
},
{
closed = 1;
nodes = (
(170,679,o),
(210,719,o),
(210,769,cs),
(210,819,o),
(170,859,o),
(120,859,cs),
(70,859,o),
(30,819,o),
(30,769,cs),
(30,719,o),
(70,679,o),
(120,679,cs)
);
},
{
closed = 1;
nodes = (
(170,498,o),
(210,538,o),
(210,588,cs),
(210,638,o),
(170,678,o),
(120,678,cs),
(70,678,o),
(30,638,o),
(30,588,cs),
(30,538,o),
(70,498,o),
(120,498,cs)
);
},
{
closed = 1;
nodes = (
(581,679,o),
(621,719,o),
(621,769,cs),
(621,819,o),
(581,859,o),
(531,859,cs),
(481,859,o),
(441,819,o),
(441,769,cs),
(441,719,o),
(481,679,o),
(531,679,cs)
);
},
{
closed = 1;
nodes = (
(444,317,o),
(484,357,o),
(484,407,cs),
(484,457,o),
(444,497,o),
(394,497,cs),
(344,497,o),
(304,457,o),
(304,407,cs),
(304,357,o),
(344,317,o),
(394,317,cs)
);
}
);
width = 651;
}
);
unicode = 107;
}
{
glyphname = l;
layers = (
{
layerId = m01;
shapes = (
{
closed = 1;
nodes = (
(145,181,o),
(165,201,o),
(165,226,cs),
(165,251,o),
(145,271,o),
(120,271,cs),
(95,271,o),
(75,251,o),
(75,226,cs),
(75,201,o),
(95,181,o),
(120,181,cs)
);
},
{
closed = 1;
nodes = (
(145,0,o),
(165,20,o),
(165,45,cs),
(165,70,o),
(145,90,o),
(120,90,cs),
(95,90,o),
(75,70,o),
(75,45,cs),
(75,20,o),
(95,0,o),
(120,0,cs)
);
},
{
closed = 1;
nodes = (
(145,362,o),
(165,382,o),
(165,407,cs),
(165,432,o),
(145,452,o),
(120,452,cs),
(95,452,o),
(75,432,o),
(75,407,cs),
(75,382,o),
(95,362,o),
(120,362,cs)
);
},
{
closed = 1;
nodes = (
(145,724,o),
(165,744,o),
(165,769,cs),
(165,794,o),
(145,814,o),
(120,814,cs),
(95,814,o),
(75,794,o),
(75,769,cs),
(75,744,o),
(95,724,o),
(120,724,cs)
);
},
{
closed = 1;
nodes = (
(145,543,o),
(165,563,o),
(165,588,cs),
(165,613,o),
(145,633,o),
(120,633,cs),
(95,633,o),
(75,613,o),
(75,588,cs),
(75,563,o),
(95,543,o),
(120,543,cs)
);
},
{
closed = 1;
nodes = (
(282,724,o),
(302,744,o),
(302,769,cs),
(302,794,o),
(282,814,o),
(257,814,cs),
(232,814,o),
(212,794,o),
(212,769,cs),
(212,744,o),
(232,724,o),
(257,724,cs)
);
}
);
width = 377;
},
{
layerId = m003;
shapes = (
{
closed = 1;
nodes = (
(225,36,o),
(310,121,o),
(310,226,cs),
(310,331,o),
(225,416,o),
(120,416,cs),
(15,416,o),
(-70,331,o),
(-70,226,cs),
(-70,121,o),
(15,36,o),
(120,36,cs)
);
},
{
closed = 1;
nodes = (
(225,-145,o),
(310,-60,o),
(310,45,cs),
(310,150,o),
(225,235,o),
(120,235,cs),
(15,235,o),
(-70,150,o),
(-70,45,cs),
(-70,-60,o),
(15,-145,o),
(120,-145,cs)
);
},
{
closed = 1;
nodes = (
(225,217,o),
(310,302,o),
(310,407,cs),
(310,512,o),
(225,597,o),
(120,597,cs),
(15,597,o),
(-70,512,o),
(-70,407,cs),
(-70,302,o),
(15,217,o),
(120,217,cs)
);
},
{
closed = 1;
nodes = (
(225,579,o),
(310,664,o),
(310,769,cs),
(310,874,o),
(225,959,o),
(120,959,cs),
(15,959,o),
(-70,874,o),
(-70,769,cs),
(-70,664,o),
(15,579,o),
(120,579,cs)
);
},
{
closed = 1;
nodes = (
(225,398,o),
(310,483,o),
(310,588,cs),
(310,693,o),
(225,778,o),
(120,778,cs),
(15,778,o),
(-70,693,o),
(-70,588,cs),
(-70,483,o),
(15,398,o),
(120,398,cs)
);
},
{
closed = 1;
nodes = (
(362,579,o),
(447,664,o),
(447,769,cs),
(447,874,o),
(362,959,o),
(257,959,cs),
(152,959,o),
(67,874,o),
(67,769,cs),
(67,664,o),
(152,579,o),
(257,579,cs)
);
}
);
width = 377;
},
{
layerId = m004;
shapes = (
{
closed = 1;
nodes = (
(170,136,o),
(210,176,o),
(210,226,cs),
(210,276,o),
(170,316,o),
(120,316,cs),
(70,316,o),
(30,276,o),
(30,226,cs),
(30,176,o),
(70,136,o),
(120,136,cs)
);
},
{
closed = 1;
nodes = (
(170,-45,o),
(210,-5,o),
(210,45,cs),
(210,95,o),
(170,135,o),
(120,135,cs),
(70,135,o),
(30,95,o),
(30,45,cs),
(30,-5,o),
(70,-45,o),
(120,-45,cs)
);
},
{
closed = 1;
nodes = (
(170,317,o),
(210,357,o),
(210,407,cs),
(210,457,o),
(170,497,o),
(120,497,cs),
(70,497,o),
(30,457,o),
(30,407,cs),
(30,357,o),
(70,317,o),
(120,317,cs)
);
},
{
closed = 1;
nodes = (
(170,679,o),
(210,719,o),
(210,769,cs),
(210,819,o),
(170,859,o),
(120,859,cs),
(70,859,o),
(30,819,o),
(30,769,cs),
(30,719,o),
(70,679,o),
(120,679,cs)
);
},
{
closed = 1;
nodes = (
(170,498,o),
(210,538,o),
(210,588,cs),
(210,638,o),
(170,678,o),
(120,678,cs),
(70,678,o),
(30,638,o),
(30,588,cs),
(30,538,o),
(70,498,o),
(120,498,cs)
);
},
{
closed = 1;
nodes = (
(307,679,o),
(347,719,o),
(347,769,cs),
(347,819,o),
(307,859,o),
(257,859,cs),
(207,859,o),
(167,819,o),
(167,769,cs),
(167,719,o),
(207,679,o),
(257,679,cs)
);
}
);
width = 377;
}
);
unicode = 108;
}
{
glyphname = r;
layers = (
{
layerId = m01;
shapes = (
{
closed = 1;
nodes = (
(506,634,o),
(486,614,o),
(486,589,cs),
(486,564,o),
(506,544,o),
(531,544,cs),
(556,544,o),
(576,564,o),
(576,589,cs),
(576,614,o),
(556,634,o),
(531,634,cs)
);
},
{
closed = 1;
nodes = (
(368,815,o),
(349,795,o),
(349,770,cs),
(349,745,o),
(368,725,o),
(394,725,cs),
(419,725,o),
(439,745,o),
(439,770,cs),
(439,795,o),
(419,815,o),
(394,815,cs)
);
},
{
closed = 1;
nodes = (
(232,815,o),
(212,795,o),
(212,770,cs),
(212,745,o),
(232,725,o),
(257,725,cs),
(283,725,o),
(302,745,o),
(302,770,cs),
(302,795,o),
(283,815,o),
(257,815,cs)
);
},
{
closed = 1;
nodes = (
(95,634,o),
(75,614,o),
(75,589,cs),
(75,564,o),
(95,544,o),
(120,544,cs),
(145,544,o),
(165,564,o),
(165,589,cs),
(165,614,o),
(145,634,o),
(120,634,cs)
);
},
{
closed = 1;
nodes = (
(95,453,o),
(75,433,o),
(75,408,cs),
(75,383,o),
(95,363,o),
(120,363,cs),
(145,363,o),
(165,383,o),
(165,408,cs),
(165,433,o),
(145,453,o),
(120,453,cs)
);
},
{
closed = 1;
nodes = (
(95,272,o),
(75,253,o),
(75,227,cs),
(75,202,o),
(95,182,o),
(120,182,cs),
(145,182,o),
(165,202,o),
(165,227,cs),
(165,253,o),
(145,272,o),
(120,272,cs)
);
},
{
closed = 1;
nodes = (
(95,91,o),
(75,71,o),
(75,46,cs),
(75,21,o),
(95,1,o),
(120,1,cs),
(145,1,o),
(165,21,o),
(165,46,cs),
(165,71,o),
(145,91,o),
(120,91,cs)
);
},
{
closed = 1;
nodes = (
(95,814,o),
(75,794,o),
(75,769,cs),
(75,744,o),
(95,724,o),
(120,724,cs),
(146,724,o),
(165,744,o),
(165,769,cs),
(165,794,o),
(146,814,o),
(120,814,cs)
);
}
);
width = 651;
},
{
layerId = m003;
shapes = (
{
closed = 1;
nodes = (
(426,779,o),
(341,694,o),
(341,589,cs),
(341,484,o),
(426,399,o),
(531,399,cs),
(636,399,o),
(721,484,o),
(721,589,cs),
(721,694,o),
(636,779,o),
(531,779,cs)
);
},
{
closed = 1;
nodes = (
(288,960,o),
(204,875,o),
(204,770,cs),
(204,665,o),
(288,580,o),
(394,580,cs),
(499,580,o),
(584,665,o),
(584,770,cs),
(584,875,o),
(499,960,o),
(394,960,cs)
);
},
{
closed = 1;
nodes = (
(152,960,o),
(67,875,o),
(67,770,cs),
(67,665,o),
(152,580,o),
(257,580,cs),
(363,580,o),
(447,665,o),
(447,770,cs),
(447,875,o),
(363,960,o),
(257,960,cs)
);
},
{
closed = 1;
nodes = (
(15,779,o),
(-70,694,o),
(-70,589,cs),
(-70,484,o),
(15,399,o),
(120,399,cs),
(225,399,o),
(310,484,o),
(310,589,cs),
(310,694,o),
(225,779,o),
(120,779,cs)
);
},
{
closed = 1;
nodes = (
(15,598,o),
(-70,513,o),
(-70,408,cs),
(-70,303,o),
(15,218,o),
(120,218,cs),
(225,218,o),
(310,303,o),
(310,408,cs),
(310,513,o),
(225,598,o),
(120,598,cs)
);
},
{
closed = 1;
nodes = (
(15,417,o),
(-70,333,o),
(-70,227,cs),
(-70,122,o),
(15,37,o),
(120,37,cs),
(225,37,o),
(310,122,o),
(310,227,cs),
(310,333,o),
(225,417,o),
(120,417,cs)
);
},
{
closed = 1;
nodes = (
(15,236,o),
(-70,151,o),
(-70,46,cs),
(-70,-59,o),
(15,-144,o),
(120,-144,cs),
(225,-144,o),
(310,-59,o),
(310,46,cs),
(310,151,o),
(225,236,o),
(120,236,cs)
);
},
{
closed = 1;
nodes = (
(15,959,o),
(-70,874,o),
(-70,769,cs),
(-70,664,o),
(15,579,o),
(120,579,cs),
(226,579,o),
(310,664,o),
(310,769,cs),
(310,874,o),
(226,959,o),
(120,959,cs)
);
}
);
width = 651;
},
{
layerId = m004;
shapes = (
{
closed = 1;
nodes = (
(481,679,o),
(441,639,o),
(441,589,cs),
(441,539,o),
(481,499,o),
(531,499,cs),
(581,499,o),
(621,539,o),
(621,589,cs),
(621,639,o),
(581,679,o),
(531,679,cs)
);
},
{
closed = 1;
nodes = (
(343,860,o),
(304,820,o),
(304,770,cs),
(304,720,o),
(343,680,o),
(394,680,cs),
(444,680,o),
(484,720,o),
(484,770,cs),
(484,820,o),
(444,860,o),
(394,860,cs)
);
},
{
closed = 1;
nodes = (
(207,860,o),
(167,820,o),
(167,770,cs),
(167,720,o),
(207,680,o),
(257,680,cs),
(308,680,o),
(347,720,o),
(347,770,cs),
(347,820,o),
(308,860,o),
(257,860,cs)
);
},
{
closed = 1;
nodes = (
(70,679,o),
(30,639,o),
(30,589,cs),
(30,539,o),
(70,499,o),
(120,499,cs),
(170,499,o),
(210,539,o),
(210,589,cs),
(210,639,o),
(170,679,o),
(120,679,cs)
);
},
{
closed = 1;
nodes = (
(70,498,o),
(30,458,o),
(30,408,cs),
(30,358,o),
(70,318,o),
(120,318,cs),
(170,318,o),
(210,358,o),
(210,408,cs),
(210,458,o),
(170,498,o),
(120,498,cs)
);
},
{
closed = 1;
nodes = (
(70,317,o),
(30,278,o),
(30,227,cs),
(30,177,o),
(70,137,o),
(120,137,cs),
(170,137,o),
(210,177,o),
(210,227,cs),
(210,278,o),
(170,317,o),
(120,317,cs)
);
},
{
closed = 1;
nodes = (
(70,136,o),
(30,96,o),
(30,46,cs),
(30,-4,o),
(70,-44,o),
(120,-44,cs),
(170,-44,o),
(210,-4,o),
(210,46,cs),
(210,96,o),
(170,136,o),
(120,136,cs)
);
},
{
closed = 1;
nodes = (
(70,859,o),
(30,819,o),
(30,769,cs),
(30,719,o),
(70,679,o),
(120,679,cs),
(171,679,o),
(210,719,o),
(210,769,cs),
(210,819,o),
(171,859,o),
(120,859,cs)
);
}
);
width = 651;
}
);
unicode = 114;
}
{
glyphname = s;
layers = (
{
layerId = m01;
shapes = (
{
closed = 1;
nodes = (
(145,0,o),
(165,20,o),
(165,45,cs),
(165,70,o),
(145,90,o),
(120,90,cs),
(95,90,o),
(75,70,o),
(75,45,cs),
(75,20,o),
(95,0,o),
(120,0,cs)
);
},
{
closed = 1;
nodes = (
(283,0,o),
(302,20,o),
(302,45,cs),
(302,70,o),
(283,90,o),
(257,90,cs),
(232,90,o),
(212,70,o),
(212,45,cs),
(212,20,o),
(232,0,o),
(257,0,cs)
);
},
{
closed = 1;
nodes = (
(419,0,o),
(439,20,o),
(439,45,cs),
(439,70,o),
(419,90,o),
(394,90,cs),
(368,90,o),
(349,70,o),
(349,45,cs),
(349,20,o),
(368,0,o),
(394,0,cs)
);
},
{
closed = 1;
nodes = (
(556,0,o),
(576,19,o),
(576,45,cs),
(576,70,o),
(556,90,o),
(531,90,cs),
(506,90,o),
(486,70,o),
(486,45,cs),
(486,19,o),
(506,0,o),
(531,0,cs)
);
},
{
closed = 1;
nodes = (
(693,181,o),
(713,201,o),
(713,226,cs),
(713,251,o),
(693,271,o),
(668,271,cs),
(643,271,o),
(623,251,o),
(623,226,cs),
(623,201,o),
(643,181,o),
(668,181,cs)
);
},
{
closed = 1;
nodes = (
(282,362,o),
(302,382,o),
(302,407,cs),
(302,432,o),
(282,452,o),
(257,452,cs),
(232,452,o),
(212,432,o),
(212,407,cs),
(212,382,o),
(232,362,o),
(257,362,cs)
);
},
{
closed = 1;
nodes = (
(419,362,o),
(439,382,o),
(439,407,cs),
(439,432,o),
(419,452,o),
(394,452,cs),
(369,452,o),
(349,432,o),
(349,407,cs),
(349,382,o),
(369,362,o),
(394,362,cs)
);
},
{
closed = 1;
nodes = (
(556,362,o),
(576,382,o),
(576,407,cs),
(576,432,o),
(556,452,o),
(531,452,cs),
(506,452,o),
(486,432,o),
(486,407,cs),
(486,382,o),
(506,362,o),
(531,362,cs)
);
},
{
closed = 1;
nodes = (
(145,543,o),
(165,563,o),
(165,588,cs),
(165,613,o),
(145,633,o),
(120,633,cs),
(95,633,o),
(75,613,o),
(75,588,cs),
(75,563,o),
(95,543,o),
(120,543,cs)
);
},
{
closed = 1;
nodes = (
(282,724,o),
(302,744,o),
(302,769,cs),
(302,794,o),
(282,814,o),
(257,814,cs),
(232,814,o),
(212,794,o),
(212,769,cs),
(212,744,o),
(232,724,o),
(257,724,cs)
);
},
{
closed = 1;
nodes = (
(419,724,o),
(439,744,o),
(439,769,cs),
(439,794,o),
(419,814,o),
(394,814,cs),
(369,814,o),
(349,794,o),
(349,769,cs),
(349,744,o),
(369,724,o),
(394,724,cs)
);
},
{
closed = 1;
nodes = (
(556,724,o),
(576,744,o),
(576,769,cs),
(576,794,o),
(556,814,o),
(531,814,cs),
(506,814,o),
(486,794,o),
(486,769,cs),
(486,744,o),
(506,724,o),
(531,724,cs)
);
},
{
closed = 1;
nodes = (
(693,724,o),
(713,744,o),
(713,769,cs),
(713,794,o),
(693,814,o),
(668,814,cs),
(643,814,o),
(623,794,o),
(623,769,cs),
(623,744,o),
(643,724,o),
(668,724,cs)
);
}
);
width = 788;
},
{
layerId = m003;
shapes = (
{
closed = 1;
nodes = (
(225,-145,o),
(310,-60,o),
(310,45,cs),
(310,150,o),
(225,235,o),
(120,235,cs),
(15,235,o),
(-70,150,o),
(-70,45,cs),
(-70,-60,o),
(15,-145,o),
(120,-145,cs)
);
},
{
closed = 1;
nodes = (
(363,-145,o),
(447,-60,o),
(447,45,cs),
(447,150,o),
(363,235,o),
(257,235,cs),
(152,235,o),
(67,150,o),
(67,45,cs),
(67,-60,o),
(152,-145,o),
(257,-145,cs)
);
},
{
closed = 1;
nodes = (
(499,-145,o),
(584,-60,o),
(584,45,cs),
(584,150,o),
(499,235,o),
(394,235,cs),
(288,235,o),
(204,150,o),
(204,45,cs),
(204,-60,o),
(288,-145,o),
(394,-145,cs)
);
},
{
closed = 1;
nodes = (
(636,-145,o),
(721,-61,o),
(721,45,cs),
(721,150,o),
(636,235,o),
(531,235,cs),
(426,235,o),
(341,150,o),
(341,45,cs),
(341,-61,o),
(426,-145,o),
(531,-145,cs)
);
},
{
closed = 1;
nodes = (
(773,36,o),
(858,121,o),
(858,226,cs),
(858,331,o),
(773,416,o),
(668,416,cs),
(563,416,o),
(478,331,o),
(478,226,cs),
(478,121,o),
(563,36,o),
(668,36,cs)
);
},
{
closed = 1;
nodes = (
(362,217,o),
(447,302,o),
(447,407,cs),
(447,512,o),
(362,597,o),
(257,597,cs),
(152,597,o),
(67,512,o),
(67,407,cs),
(67,302,o),
(152,217,o),
(257,217,cs)
);
},
{
closed = 1;
nodes = (
(499,217,o),
(584,302,o),
(584,407,cs),
(584,512,o),
(499,597,o),
(394,597,cs),
(289,597,o),
(204,512,o),
(204,407,cs),
(204,302,o),
(289,217,o),
(394,217,cs)
);
},
{
closed = 1;
nodes = (
(636,217,o),
(721,302,o),
(721,407,cs),
(721,512,o),
(636,597,o),
(531,597,cs),
(426,597,o),
(341,512,o),
(341,407,cs),
(341,302,o),
(426,217,o),
(531,217,cs)
);
},
{
closed = 1;
nodes = (
(225,398,o),
(310,483,o),
(310,588,cs),
(310,693,o),
(225,778,o),
(120,778,cs),
(15,778,o),
(-70,693,o),
(-70,588,cs),
(-70,483,o),
(15,398,o),
(120,398,cs)
);
},
{
closed = 1;
nodes = (
(362,579,o),
(447,664,o),
(447,769,cs),
(447,874,o),
(362,959,o),
(257,959,cs),
(152,959,o),
(67,874,o),
(67,769,cs),
(67,664,o),
(152,579,o),
(257,579,cs)
);
},
{
closed = 1;
nodes = (
(499,579,o),
(584,664,o),
(584,769,cs),
(584,874,o),
(499,959,o),
(394,959,cs),
(289,959,o),
(204,874,o),
(204,769,cs),
(204,664,o),
(289,579,o),
(394,579,cs)
);
},
{
closed = 1;
nodes = (
(636,579,o),
(721,664,o),
(721,769,cs),
(721,874,o),
(636,959,o),
(531,959,cs),
(426,959,o),
(341,874,o),
(341,769,cs),
(341,664,o),
(426,579,o),
(531,579,cs)
);
},
{
closed = 1;
nodes = (
(773,579,o),
(858,664,o),
(858,769,cs),
(858,874,o),
(773,959,o),
(668,959,cs),
(563,959,o),
(478,874,o),
(478,769,cs),
(478,664,o),
(563,579,o),
(668,579,cs)
);
}
);
width = 788;
},
{
layerId = m004;
shapes = (
{
closed = 1;
nodes = (
(170,-45,o),
(210,-5,o),
(210,45,cs),
(210,95,o),
(170,135,o),
(120,135,cs),
(70,135,o),
(30,95,o),
(30,45,cs),
(30,-5,o),
(70,-45,o),
(120,-45,cs)
);
},
{
closed = 1;
nodes = (
(308,-45,o),
(347,-5,o),
(347,45,cs),
(347,95,o),
(308,135,o),
(257,135,cs),
(207,135,o),
(167,95,o),
(167,45,cs),
(167,-5,o),
(207,-45,o),
(257,-45,cs)
);
},
{
closed = 1;
nodes = (
(444,-45,o),
(484,-5,o),
(484,45,cs),
(484,95,o),
(444,135,o),
(394,135,cs),
(343,135,o),
(304,95,o),
(304,45,cs),
(304,-5,o),
(343,-45,o),
(394,-45,cs)
);
},
{
closed = 1;
nodes = (
(581,-45,o),
(621,-6,o),
(621,45,cs),
(621,95,o),
(581,135,o),
(531,135,cs),
(481,135,o),
(441,95,o),
(441,45,cs),
(441,-6,o),
(481,-45,o),
(531,-45,cs)
);
},
{
closed = 1;
nodes = (
(718,136,o),
(758,176,o),
(758,226,cs),
(758,276,o),
(718,316,o),
(668,316,cs),
(618,316,o),
(578,276,o),
(578,226,cs),
(578,176,o),
(618,136,o),
(668,136,cs)
);
},
{
closed = 1;
nodes = (
(307,317,o),
(347,357,o),
(347,407,cs),
(347,457,o),
(307,497,o),
(257,497,cs),
(207,497,o),
(167,457,o),
(167,407,cs),
(167,357,o),
(207,317,o),
(257,317,cs)
);
},
{
closed = 1;
nodes = (
(444,317,o),
(484,357,o),
(484,407,cs),
(484,457,o),
(444,497,o),
(394,497,cs),
(344,497,o),
(304,457,o),
(304,407,cs),
(304,357,o),
(344,317,o),
(394,317,cs)
);
},
{
closed = 1;
nodes = (
(581,317,o),
(621,357,o),
(621,407,cs),
(621,457,o),
(581,497,o),
(531,497,cs),
(481,497,o),
(441,457,o),
(441,407,cs),
(441,357,o),
(481,317,o),
(531,317,cs)
);
},
{
closed = 1;
nodes = (
(170,498,o),
(210,538,o),
(210,588,cs),
(210,638,o),
(170,678,o),
(120,678,cs),
(70,678,o),
(30,638,o),
(30,588,cs),
(30,538,o),
(70,498,o),
(120,498,cs)
);
},
{
closed = 1;
nodes = (
(307,679,o),
(347,719,o),
(347,769,cs),
(347,819,o),
(307,859,o),
(257,859,cs),
(207,859,o),
(167,819,o),
(167,769,cs),
(167,719,o),
(207,679,o),
(257,679,cs)
);
},
{
closed = 1;
nodes = (
(444,679,o),
(484,719,o),
(484,769,cs),
(484,819,o),
(444,859,o),
(394,859,cs),
(344,859,o),
(304,819,o),
(304,769,cs),
(304,719,o),
(344,679,o),
(394,679,cs)
);
},
{
closed = 1;
nodes = (
(581,679,o),
(621,719,o),
(621,769,cs),
(621,819,o),
(581,859,o),
(531,859,cs),
(481,859,o),
(441,819,o),
(441,769,cs),
(441,719,o),
(481,679,o),
(531,679,cs)
);
},
{
closed = 1;
nodes = (
(718,679,o),
(758,719,o),
(758,769,cs),
(758,819,o),
(718,859,o),
(668,859,cs),
(618,859,o),
(578,819,o),
(578,769,cs),
(578,719,o),
(618,679,o),
(668,679,cs)
);
}
);
width = 788;
}
);
unicode = 115;
}
{
glyphname = t;
layers = (
{
layerId = m01;
shapes = (
{
closed = 1;
nodes = (
(420,0,o),
(439,20,o),
(439,45,cs),
(439,70,o),
(420,90,o),
(394,90,cs),
(369,90,o),
(349,70,o),
(349,45,cs),
(349,20,o),
(369,0,o),
(394,0,cs)
);
},
{
closed = 1;
nodes = (
(282,181,o),
(302,201,o),
(302,226,cs),
(302,251,o),
(282,271,o),
(257,271,cs),
(232,271,o),
(212,251,o),
(212,226,cs),
(212,201,o),
(232,181,o),
(257,181,cs)
);
},
{
closed = 1;
nodes = (
(282,362,o),
(302,382,o),
(302,407,cs),
(302,432,o),
(282,452,o),
(257,452,cs),
(232,452,o),
(212,432,o),
(212,407,cs),
(212,382,o),
(232,362,o),
(257,362,cs)
);
},
{
closed = 1;
nodes = (
(282,543,o),
(302,562,o),
(302,588,cs),
(302,613,o),
(282,633,o),
(257,633,cs),
(232,633,o),
(212,613,o),
(212,588,cs),
(212,562,o),
(232,543,o),
(257,543,cs)
);
},
{
closed = 1;
nodes = (
(145,543,o),
(165,563,o),
(165,588,cs),
(165,613,o),
(145,633,o),
(120,633,cs),
(95,633,o),
(75,613,o),
(75,588,cs),
(75,563,o),
(95,543,o),
(120,543,cs)
);
},
{
closed = 1;
nodes = (
(419,543,o),
(439,563,o),
(439,588,cs),
(439,613,o),
(419,633,o),
(394,633,cs),
(369,633,o),
(349,613,o),
(349,588,cs),
(349,563,o),
(369,543,o),
(394,543,cs)
);
},
{
closed = 1;
nodes = (
(282,724,o),
(302,744,o),
(302,769,cs),
(302,794,o),
(282,814,o),
(257,814,cs),
(232,814,o),
(212,794,o),
(212,769,cs),
(212,744,o),
(232,724,o),
(257,724,cs)
);
}
);
width = 514;
},
{
layerId = m003;
shapes = (
{
closed = 1;
nodes = (
(500,-145,o),
(584,-60,o),
(584,45,cs),
(584,150,o),
(500,235,o),
(394,235,cs),
(289,235,o),
(204,150,o),
(204,45,cs),
(204,-60,o),
(289,-145,o),
(394,-145,cs)
);
},
{
closed = 1;
nodes = (
(362,36,o),
(447,121,o),
(447,226,cs),
(447,331,o),
(362,416,o),
(257,416,cs),
(152,416,o),
(67,331,o),
(67,226,cs),
(67,121,o),
(152,36,o),
(257,36,cs)
);
},
{
closed = 1;
nodes = (
(362,217,o),
(447,302,o),
(447,407,cs),
(447,512,o),
(362,597,o),
(257,597,cs),
(152,597,o),
(67,512,o),
(67,407,cs),
(67,302,o),
(152,217,o),
(257,217,cs)
);
},
{
closed = 1;
nodes = (
(362,398,o),
(447,482,o),
(447,588,cs),
(447,693,o),
(362,778,o),
(257,778,cs),
(152,778,o),
(67,693,o),
(67,588,cs),
(67,482,o),
(152,398,o),
(257,398,cs)
);
},
{
closed = 1;
nodes = (
(225,398,o),
(310,483,o),
(310,588,cs),
(310,693,o),
(225,778,o),
(120,778,cs),
(15,778,o),
(-70,693,o),
(-70,588,cs),
(-70,483,o),
(15,398,o),
(120,398,cs)
);
},
{
closed = 1;
nodes = (
(499,398,o),
(584,483,o),
(584,588,cs),
(584,693,o),
(499,778,o),
(394,778,cs),
(289,778,o),
(204,693,o),
(204,588,cs),
(204,483,o),
(289,398,o),
(394,398,cs)
);
},
{
closed = 1;
nodes = (
(362,579,o),
(447,664,o),
(447,769,cs),
(447,874,o),
(362,959,o),
(257,959,cs),
(152,959,o),
(67,874,o),
(67,769,cs),
(67,664,o),
(152,579,o),
(257,579,cs)
);
}
);
width = 514;
},
{
layerId = m004;
shapes = (
{
closed = 1;
nodes = (
(445,-45,o),
(484,-5,o),
(484,45,cs),
(484,95,o),
(445,135,o),
(394,135,cs),
(344,135,o),
(304,95,o),
(304,45,cs),
(304,-5,o),
(344,-45,o),
(394,-45,cs)
);
},
{
closed = 1;
nodes = (
(307,136,o),
(347,176,o),
(347,226,cs),
(347,276,o),
(307,316,o),
(257,316,cs),
(207,316,o),
(167,276,o),
(167,226,cs),
(167,176,o),
(207,136,o),
(257,136,cs)
);
},
{
closed = 1;
nodes = (
(307,317,o),
(347,357,o),
(347,407,cs),
(347,457,o),
(307,497,o),
(257,497,cs),
(207,497,o),
(167,457,o),
(167,407,cs),
(167,357,o),
(207,317,o),
(257,317,cs)
);
},
{
closed = 1;
nodes = (
(307,498,o),
(347,537,o),
(347,588,cs),
(347,638,o),
(307,678,o),
(257,678,cs),
(207,678,o),
(167,638,o),
(167,588,cs),
(167,537,o),
(207,498,o),
(257,498,cs)
);
},
{
closed = 1;
nodes = (
(170,498,o),
(210,538,o),
(210,588,cs),
(210,638,o),
(170,678,o),
(120,678,cs),
(70,678,o),
(30,638,o),
(30,588,cs),
(30,538,o),
(70,498,o),
(120,498,cs)
);
},
{
closed = 1;
nodes = (
(444,498,o),
(484,538,o),
(484,588,cs),
(484,638,o),
(444,678,o),
(394,678,cs),
(344,678,o),
(304,638,o),
(304,588,cs),
(304,538,o),
(344,498,o),
(394,498,cs)
);
},
{
closed = 1;
nodes = (
(307,679,o),
(347,719,o),
(347,769,cs),
(347,819,o),
(307,859,o),
(257,859,cs),
(207,859,o),
(167,819,o),
(167,769,cs),
(167,719,o),
(207,679,o),
(257,679,cs)
);
}
);
width = 514;
}
);
unicode = 116;
}
{
glyphname = u;
layers = (
{
layerId = m01;
shapes = (
{
closed = 1;
nodes = (
(145,183,o),
(165,203,o),
(165,228,cs),
(165,253,o),
(145,273,o),
(120,273,cs),
(95,273,o),
(75,253,o),
(75,228,cs),
(75,203,o),
(95,183,o),
(120,183,cs)
);
},
{
closed = 1;
nodes = (
(283,2,o),
(302,22,o),
(302,47,cs),
(302,72,o),
(283,92,o),
(257,92,cs),
(232,92,o),
(212,72,o),
(212,47,cs),
(212,22,o),
(232,2,o),
(257,2,cs)
);
},
{
closed = 1;
nodes = (
(419,2,o),
(439,22,o),
(439,47,cs),
(439,72,o),
(419,92,o),
(394,92,cs),
(368,92,o),
(349,72,o),
(349,47,cs),
(349,22,o),
(368,2,o),
(394,2,cs)
);
},
{
closed = 1;
nodes = (
(556,183,o),
(576,203,o),
(576,228,cs),
(576,253,o),
(556,273,o),
(531,273,cs),
(506,273,o),
(486,253,o),
(486,228,cs),
(486,203,o),
(506,183,o),
(531,183,cs)
);
},
{
closed = 1;
nodes = (
(145,364,o),
(165,384,o),
(165,409,cs),
(165,434,o),
(145,454,o),
(120,454,cs),
(95,453,o),
(75,433,o),
(75,408,cs),
(75,383,o),
(95,363,o),
(120,364,cs)
);
},
{
closed = 1;
nodes = (
(556,364,o),
(576,384,o),
(576,409,cs),
(576,434,o),
(556,454,o),
(531,454,cs),
(506,454,o),
(486,434,o),
(486,409,cs),
(486,384,o),
(506,364,o),
(531,364,cs)
);
},
{
closed = 1;
nodes = (
(145,726,o),
(165,746,o),
(165,771,cs),
(165,796,o),
(145,816,o),
(120,816,cs),
(95,816,o),
(75,796,o),
(75,771,cs),
(75,746,o),
(95,726,o),
(120,726,cs)
);
},
{
closed = 1;
nodes = (
(145,545,o),
(165,565,o),
(165,590,cs),
(165,615,o),
(145,635,o),
(120,635,cs),
(95,635,o),
(75,615,o),
(75,590,cs),
(75,565,o),
(95,545,o),
(120,545,cs)
);
},
{
closed = 1;
nodes = (
(556,545,o),
(576,564,o),
(576,590,cs),
(576,615,o),
(556,635,o),
(531,635,cs),
(506,635,o),
(486,615,o),
(486,590,cs),
(486,564,o),
(506,545,o),
(531,545,cs)
);
},
{
closed = 1;
nodes = (
(556,726,o),
(576,746,o),
(576,771,cs),
(576,796,o),
(556,816,o),
(531,816,cs),
(506,816,o),
(486,796,o),
(486,771,cs),
(486,746,o),
(506,726,o),
(531,726,cs)
);
},
{
closed = 1;
nodes = (
(556,3,o),
(576,23,o),
(576,48,cs),
(576,73,o),
(556,93,o),
(531,93,cs),
(505,93,o),
(486,73,o),
(486,48,cs),
(486,23,o),
(505,3,o),
(531,3,cs)
);
}
);
width = 651;
},
{
layerId = m003;
shapes = (
{
closed = 1;
nodes = (
(225,38,o),
(310,123,o),
(310,228,cs),
(310,333,o),
(225,418,o),
(120,418,cs),
(15,418,o),
(-70,333,o),
(-70,228,cs),
(-70,123,o),
(15,38,o),
(120,38,cs)
);
},
{
closed = 1;
nodes = (
(363,-143,o),
(447,-58,o),
(447,47,cs),
(447,152,o),
(363,237,o),
(257,237,cs),
(152,237,o),
(67,152,o),
(67,47,cs),
(67,-58,o),
(152,-143,o),
(257,-143,cs)
);
},
{
closed = 1;
nodes = (
(499,-143,o),
(584,-58,o),
(584,47,cs),
(584,152,o),
(499,237,o),
(394,237,cs),
(288,237,o),
(204,152,o),
(204,47,cs),
(204,-58,o),
(288,-143,o),
(394,-143,cs)
);
},
{
closed = 1;
nodes = (
(636,38,o),
(721,123,o),
(721,228,cs),
(721,333,o),
(636,418,o),
(531,418,cs),
(426,418,o),
(341,333,o),
(341,228,cs),
(341,123,o),
(426,38,o),
(531,38,cs)
);
},
{
closed = 1;
nodes = (
(226,220,o),
(310,305,o),
(310,409,cs),
(310,515,o),
(223,600,o),
(117,599,cs),
(13,596,o),
(-70,511,o),
(-70,408,cs),
(-70,302,o),
(17,216,o),
(123,219,cs)
);
},
{
closed = 1;
nodes = (
(636,219,o),
(721,304,o),
(721,409,cs),
(721,514,o),
(636,599,o),
(531,599,cs),
(426,599,o),
(341,514,o),
(341,409,cs),
(341,304,o),
(426,219,o),
(531,219,cs)
);
},
{
closed = 1;
nodes = (
(225,581,o),
(310,666,o),
(310,771,cs),
(310,876,o),
(225,961,o),
(120,961,cs),
(15,961,o),
(-70,876,o),
(-70,771,cs),
(-70,666,o),
(15,581,o),
(120,581,cs)
);
},
{
closed = 1;
nodes = (
(225,400,o),
(310,485,o),
(310,590,cs),
(310,695,o),
(225,780,o),
(120,780,cs),
(15,780,o),
(-70,695,o),
(-70,590,cs),
(-70,485,o),
(15,400,o),
(120,400,cs)
);
},
{
closed = 1;
nodes = (
(636,400,o),
(721,484,o),
(721,590,cs),
(721,695,o),
(636,780,o),
(531,780,cs),
(426,780,o),
(341,695,o),
(341,590,cs),
(341,484,o),
(426,400,o),
(531,400,cs)
);
},
{
closed = 1;
nodes = (
(636,581,o),
(721,666,o),
(721,771,cs),
(721,876,o),
(636,961,o),
(531,961,cs),
(426,961,o),
(341,876,o),
(341,771,cs),
(341,666,o),
(426,581,o),
(531,581,cs)
);
},
{
closed = 1;
nodes = (
(636,-142,o),
(721,-57,o),
(721,48,cs),
(721,153,o),
(636,238,o),
(531,238,cs),
(425,238,o),
(341,153,o),
(341,48,cs),
(341,-57,o),
(425,-142,o),
(531,-142,cs)
);
}
);
width = 651;
},
{
layerId = m004;
shapes = (
{
closed = 1;
nodes = (
(170,138,o),
(210,178,o),
(210,228,cs),
(210,278,o),
(170,318,o),
(120,318,cs),
(70,318,o),
(30,278,o),
(30,228,cs),
(30,178,o),
(70,138,o),
(120,138,cs)
);
},
{
closed = 1;
nodes = (
(308,-43,o),
(347,-3,o),
(347,47,cs),
(347,97,o),
(308,137,o),
(257,137,cs),
(207,137,o),
(167,97,o),
(167,47,cs),
(167,-3,o),
(207,-43,o),
(257,-43,cs)
);
},
{
closed = 1;
nodes = (
(444,-43,o),
(484,-3,o),
(484,47,cs),
(484,97,o),
(444,137,o),
(394,137,cs),
(343,137,o),
(304,97,o),
(304,47,cs),
(304,-3,o),
(343,-43,o),
(394,-43,cs)
);
},
{
closed = 1;
nodes = (
(581,138,o),
(621,178,o),
(621,228,cs),
(621,278,o),
(581,318,o),
(531,318,cs),
(481,318,o),
(441,278,o),
(441,228,cs),
(441,178,o),
(481,138,o),
(531,138,cs)
);
},
{
closed = 1;
nodes = (
(170,319,o),
(210,359,o),
(210,409,cs),
(210,459,o),
(169,499,o),
(119,499,cs),
(70,497,o),
(30,457,o),
(30,408,cs),
(30,358,o),
(71,317,o),
(121,319,cs)
);
},
{
closed = 1;
nodes = (
(581,319,o),
(621,359,o),
(621,409,cs),
(621,459,o),
(581,499,o),
(531,499,cs),
(481,499,o),
(441,459,o),
(441,409,cs),
(441,359,o),
(481,319,o),
(531,319,cs)
);
},
{
closed = 1;
nodes = (
(170,681,o),
(210,721,o),
(210,771,cs),
(210,821,o),
(170,861,o),
(120,861,cs),
(70,861,o),
(30,821,o),
(30,771,cs),
(30,721,o),
(70,681,o),
(120,681,cs)
);
},
{
closed = 1;
nodes = (
(170,500,o),
(210,540,o),
(210,590,cs),
(210,640,o),
(170,680,o),
(120,680,cs),
(70,680,o),
(30,640,o),
(30,590,cs),
(30,540,o),
(70,500,o),
(120,500,cs)
);
},
{
closed = 1;
nodes = (
(581,500,o),
(621,539,o),
(621,590,cs),
(621,640,o),
(581,680,o),
(531,680,cs),
(481,680,o),
(441,640,o),
(441,590,cs),
(441,539,o),
(481,500,o),
(531,500,cs)
);
},
{
closed = 1;
nodes = (
(581,681,o),
(621,721,o),
(621,771,cs),
(621,821,o),
(581,861,o),
(531,861,cs),
(481,861,o),
(441,821,o),
(441,771,cs),
(441,721,o),
(481,681,o),
(531,681,cs)
);
},
{
closed = 1;
nodes = (
(581,-42,o),
(621,-2,o),
(621,48,cs),
(621,98,o),
(581,138,o),
(531,138,cs),
(480,138,o),
(441,98,o),
(441,48,cs),
(441,-2,o),
(480,-42,o),
(531,-42,cs)
);
}
);
width = 651;
}
);
unicode = 117;
}
{
glyphname = y;
layers = (
{
layerId = m01;
shapes = (
{
closed = 1;
nodes = (
(369,452,o),
(349,432,o),
(349,407,cs),
(349,382,o),
(369,362,o),
(394,362,cs),
(419,362,o),
(439,382,o),
(439,407,cs),
(439,432,o),
(419,452,o),
(394,452,cs)
);
},
{
closed = 1;
nodes = (
(369,271,o),
(349,251,o),
(349,226,cs),
(349,201,o),
(369,181,o),
(394,181,cs),
(419,181,o),
(439,201,o),
(439,226,cs),
(439,251,o),
(419,271,o),
(394,271,cs)
);
},
{
closed = 1;
nodes = (
(232,90,o),
(212,70,o),
(212,45,cs),
(212,20,o),
(232,0,o),
(257,0,cs),
(282,0,o),
(302,20,o),
(302,45,cs),
(302,70,o),
(282,90,o),
(257,90,cs)
);
},
{
closed = 1;
nodes = (
(145,724,o),
(165,744,o),
(165,769,cs),
(165,794,o),
(145,814,o),
(120,814,cs),
(95,814,o),
(75,794,o),
(75,769,cs),
(75,744,o),
(95,724,o),
(120,724,cs)
);
},
{
closed = 1;
nodes = (
(283,543,o),
(302,563,o),
(302,588,cs),
(302,613,o),
(283,633,o),
(257,633,cs),
(232,633,o),
(212,613,o),
(212,588,cs),
(212,563,o),
(232,543,o),
(257,543,cs)
);
},
{
closed = 1;
nodes = (
(556,543,o),
(576,562,o),
(576,588,cs),
(576,613,o),
(556,633,o),
(531,633,cs),
(506,633,o),
(486,613,o),
(486,588,cs),
(486,562,o),
(506,543,o),
(531,543,cs)
);
},
{
closed = 1;
nodes = (
(693,724,o),
(713,744,o),
(713,769,cs),
(713,794,o),
(693,814,o),
(668,814,cs),
(643,814,o),
(623,794,o),
(623,769,cs),
(623,744,o),
(643,724,o),
(668,724,cs)
);
}
);
width = 788;
},
{
layerId = m003;
shapes = (
{
closed = 1;
nodes = (
(289,597,o),
(204,512,o),
(204,407,cs),
(204,302,o),
(289,217,o),
(394,217,cs),
(499,217,o),
(584,302,o),
(584,407,cs),
(584,512,o),
(499,597,o),
(394,597,cs)
);
},
{
closed = 1;
nodes = (
(289,416,o),
(204,331,o),
(204,226,cs),
(204,121,o),
(289,36,o),
(394,36,cs),
(499,36,o),
(584,121,o),
(584,226,cs),
(584,331,o),
(499,416,o),
(394,416,cs)
);
},
{
closed = 1;
nodes = (
(152,235,o),
(67,150,o),
(67,45,cs),
(67,-60,o),
(152,-145,o),
(257,-145,cs),
(362,-145,o),
(447,-60,o),
(447,45,cs),
(447,150,o),
(362,235,o),
(257,235,cs)
);
},
{
closed = 1;
nodes = (
(225,579,o),
(310,664,o),
(310,769,cs),
(310,874,o),
(225,959,o),
(120,959,cs),
(15,959,o),
(-70,874,o),
(-70,769,cs),
(-70,664,o),
(15,579,o),
(120,579,cs)
);
},
{
closed = 1;
nodes = (
(363,398,o),
(447,483,o),
(447,588,cs),
(447,693,o),
(363,778,o),
(257,778,cs),
(152,778,o),
(67,693,o),
(67,588,cs),
(67,483,o),
(152,398,o),
(257,398,cs)
);
},
{
closed = 1;
nodes = (
(636,398,o),
(721,482,o),
(721,588,cs),
(721,693,o),
(636,778,o),
(531,778,cs),
(426,778,o),
(341,693,o),
(341,588,cs),
(341,482,o),
(426,398,o),
(531,398,cs)
);
},
{
closed = 1;
nodes = (
(773,579,o),
(858,664,o),
(858,769,cs),
(858,874,o),
(773,959,o),
(668,959,cs),
(563,959,o),
(478,874,o),
(478,769,cs),
(478,664,o),
(563,579,o),
(668,579,cs)
);
}
);
width = 788;
},
{
layerId = m004;
shapes = (
{
closed = 1;
nodes = (
(344,497,o),
(304,457,o),
(304,407,cs),
(304,357,o),
(344,317,o),
(394,317,cs),
(444,317,o),
(484,357,o),
(484,407,cs),
(484,457,o),
(444,497,o),
(394,497,cs)
);
},
{
closed = 1;
nodes = (
(344,316,o),
(304,276,o),
(304,226,cs),
(304,176,o),
(344,136,o),
(394,136,cs),
(444,136,o),
(484,176,o),
(484,226,cs),
(484,276,o),
(444,316,o),
(394,316,cs)
);
},
{
closed = 1;
nodes = (
(207,135,o),
(167,95,o),
(167,45,cs),
(167,-5,o),
(207,-45,o),
(257,-45,cs),
(307,-45,o),
(347,-5,o),
(347,45,cs),
(347,95,o),
(307,135,o),
(257,135,cs)
);
},
{
closed = 1;
nodes = (
(170,679,o),
(210,719,o),
(210,769,cs),
(210,819,o),
(170,859,o),
(120,859,cs),
(70,859,o),
(30,819,o),
(30,769,cs),
(30,719,o),
(70,679,o),
(120,679,cs)
);
},
{
closed = 1;
nodes = (
(308,498,o),
(347,538,o),
(347,588,cs),
(347,638,o),
(308,678,o),
(257,678,cs),
(207,678,o),
(167,638,o),
(167,588,cs),
(167,538,o),
(207,498,o),
(257,498,cs)
);
},
{
closed = 1;
nodes = (
(581,498,o),
(621,537,o),
(621,588,cs),
(621,638,o),
(581,678,o),
(531,678,cs),
(481,678,o),
(441,638,o),
(441,588,cs),
(441,537,o),
(481,498,o),
(531,498,cs)
);
},
{
closed = 1;
nodes = (
(718,679,o),
(758,719,o),
(758,769,cs),
(758,819,o),
(718,859,o),
(668,859,cs),
(618,859,o),
(578,819,o),
(578,769,cs),
(578,719,o),
(618,679,o),
(668,679,cs)
);
}
);
width = 788;
}
);
unicode = 121;
}
